<mxfile host="app.diagrams.net" agent="Mozilla/5.0 (Windows NT 10.0; Win64; x64) AppleWebKit/537.36 (KHTML, like Gecko) Chrome/131.0.0.0 Safari/537.36" version="24.9.1">
  <diagram name="PÃ¡gina-1" id="-eB0IefZkYYX2TsVUjRm">
    <mxGraphModel dx="1687" dy="875" grid="1" gridSize="10" guides="1" tooltips="1" connect="1" arrows="1" fold="1" page="1" pageScale="1" pageWidth="827" pageHeight="1169" math="0" shadow="0">
      <root>
        <mxCell id="0" />
        <mxCell id="1" parent="0" />
        <mxCell id="ZzGpuX023HWnLFC4GuzQ-1" value="" style="shape=image;verticalLabelPosition=bottom;labelBackgroundColor=default;verticalAlign=top;aspect=fixed;imageAspect=0;image=data:image/png,iVBORw0KGgoAAAANSUhEUgAAAq8AAAGKCAYAAAAi6KiFAAAAAXNSR0IArs4c6QAAAARnQU1BAACxjwv8YQUAAAAJcEhZcwAADsMAAA7DAcdvqGQAAP+lSURBVHhe7J0JXFTl+sd/zDADsosMIAjKIm6gIiqKgrtmqKXXlJvLrVz6l91cSq+7ZWWrN7WuVlZmpqW54HXtVuKCe27kkrnFIgIKDKsMzMzzf8/MsM+cmWHpRvf99iE557znfZ/32d7nHM6ZsSEGOBwOh8PhcDicJoDE8C+Hw+FwOBwOh/OHhxevHA6Hw+FwOJwmAy9eORwOh8PhcDhNBl68cjgcDofD4XCaDLx45XA4HA6Hw+E0GXjxyuFwOBwOh8NpMvDilcPhcDgcDofTZODFK4fD4XA4HA6nycCLVw6Hw+FwOBxOk4EXrxwOh8PhcDicJgMvXjkcDofD4XA4TQZevHI4HA6Hw+Fwmgy8eOVwOBwOh8PhNBl48crhcDgcDofDaTLw4pXD4XA4HA6H02TgxSuH08TRqgqQW1hq2OJwfg+0UBXkgrsdh8P5b9BIxasGyuQrSLp0CZfKf5Iu4zelFii9jC9fegZTl8UjWWNo3hBos3F45XN4esaHOJFn2GcEbfZhrHzuacz48AREmplBi7yUq7j8awaKDXuqos1LwdXLvyLD2EGjaFGQehVJST/jenoh26qJGko2XhLT4e3suq0Wml/XYWxYB8QsPWrYYwot7m1+Bl3bR+CF3QWGfX9sGsamf0TM2aIEF1aNQpC7G1q4euKxDVmG/Q3LH1e/WmQfXonnnp6BD8WC/r+CBr+uG4uwDjFYevRPVuGVXMCqUUFwd2sBV8/HsCGrdsbicDicRoUag6JtNN7VhoTuK39kFLniGpWmr6Uh9jYk8XyKdj80tG8IVMfppRBbspF1p9cuqw07a6M6/hKF2NqQrPtrJNLMNIXXaOtL/chHxubQ/EnaUW0OhXRt60vUz0dGNpLm9GT1g6Z5uIsmtZDo9GQjb0t//6HQcEBAQw++nUi+UkGfNiTv+y7drIPcZWcWUKhMQs2f3G7YYwo13XynD8lgR8M+yjLs+2NjmU01lL5rPo2OHU/vnVAZ9v3RMWOLwh00wUPCYmkoLV7/KcVfLDIcaFjqHTONhoqOvxRCtjYy6v7aZcO+utLQ/lFGZxaEkkzIA9sbMtH99yncMYE8JBLyHLqY1n8aT6Jup0mnXfNHU+z496jJhB2Hw/nD00h3XstQpgak3qOx6vsEJCSwn8M/4tOn20LW8mlsPHMcJ47/E7H2huY61CjKzkJusanbsWoU5OSh6j0MdeF9ZOWp9BvyXlhy4CSOn92JOZ2k+n061Ci8n4XKZktw4ORxnN05B9WaaVXIY+1yS0RuB6t/wmsDIzFh/RWU2Oh3CRWnHjV+em0gIiesx5XaB8XRFqOohCD18kVLuoVvPtsPpeEQtGnY+kk8MhW+8JGxLh8Wobhqv2bkVhdmI6dIY+Rurh51UTaycoth/ia4BsU5mTp9m+yrIAd59brJpEFRbjYKme+IoilCdmYOyl3FuE1ZX9mZyKnwJy0eXPoee/fF49jN2gOY1YO6CLnKkipzL0VethKqWsowrydTWG4LPdoHKUjL18I2dCSee2YKHuviYDhiCWK6bsCYYbbKzS5kPdbEAj2Z1bkcvZYcwMnjZ7FzTifDPj1mdVlLLnH/0KrycD8rF2JT1cN0l52DIo1p61trZ1FM6pcdKs5BZlaeER+tTbVcWoExGzE9paQhX2uL0JHP4Zkpj6HC7Zi9spmOqqVw7QNc+n4v9sUfQ221WpvzrYgtY7JYiqaY6bSg2lpTiZF1SMSeGnYsM6fmsZq5icPhWI2hiG1YijbTGEcbkvo/Rz+UGPaVU3KYFvQKopBRq+mK7i6Ohu79ZxnFhriSrQ3IRtacQsetoTP5wqG79MWEDtT+iWX01rhgaiZxoXFbi0iTtofmDw4gJ6kN2UidKHDEKjr/MJ2+nNSRAsP+j3Yp9f2m7ZlPgwOcSGrDZHEKpBGrztPD9C9pUsdACvu/XaRv9oCOvjuOuirsyMYwfofH36CETI1wtDplF+jjBe/Qges76Rlvie7Oa+VNlTK68PECeufAddr5jDdJrLnjYtCXLHwq/V8fe5K4jaaNhvHVv7xNfextKejZmTRSaBPxCiWVsQPm5C65Shv+1oWay5iO7P1p8F+HkL+08s6r5t5/aFlsCLna2hBsZNQ8dByt0Sm95t2+Irr46RTq29pZbx8bOSkiptCmGzoh6O4XE6hD+ydo2VvjKLiZhFzGbRW6r0R9kz76SzsK7DqLDuh8QU3XPniMQoIiaX5CCTPxFzShQ3t64o2PaU5/X7JntpK1iKAZO9NY7zUppJ8+eII6usnIBjZk69qJZv+H+UMNmxb+9AE90dGNZIK8tq7UafYBurA6lvzc5LrzHFq0Ir+Oz9MeZh7Teqic2+vrZlF0S0HP9uQ37C06dHQNjevoyvxKSs4hcfTZNUEXYnoSx3JbVKK+sYZGtm5OdsJYzdzJN3AErb56vZ66boiYqdTbGx/Pof6+9qyNjFpEzKCdacJxy/zJMp1rKP3LSdQxMIz+Tx/0Ftmztlyl9Isp/3hwlN4d15UUdiyO2DFZ8w70+BsJZCw9lFzdQH/r0pz5nQ3Z+w+mvw7xJ2mVPGBatuqob35Ef2kXSF1nHSC9Ga/RB4+FUFDkfEooMadfpuGLn9KUvq3JWTeODckVETRl0w2WoWpjNJeqTNmohG6sGUmtmzO7MF00c/dl7VfT9dJ79J9lsRTiamvQUSiNW3OG8tW/0OpYP3KTC3I4UItWftTx+T30kNnCupx/3/LY0piQhc3+pzcGUlCbDjT6X9dYZKjo4nuPUkhAL1p4tFin0/ZMp8s/fIGifQSd2pJb2FP05XU2hql1SMyehT/RB090JDeWf8H6cu00m1iqMpKb/sMigsPhWEujFq8StwiaMPcf9I9//IMWvLlL/+fuh9vpyeYSsm0/l06qhFzzFY31ZNt+j9Li9Zvow+d6kptETl0Wn6UyVvi804cVKra2JPfuTRP/7wX68Pgd2vBYC1YcKihm1r/oy/WvUFzfqbRVqW8Lu2EkrPOauxvosRaswFTE0Kx/fUnrX4mjvlO3kvLmO9RHBrIb9hFlsSSa8fV48pZIyL3X8/TBV1/SuxNDyZEtkL6Td1KOfja1ebjXSPFazkPaW9fiNWIp7V85gCVHZxr+8V0mHSuIl3QlmW17evnQRkMboXg1J7ea7vxrKLmwhcshZDhNeeZRau8qPJZgKF5Zgv9qrCdJbP3o0cXradOHz1FPNwnJuyyms2U1CiZmg1Wjwin2hbfos2++prXPRpAzG6f18z+yhdXQliVnW7k39Z74f/TChycNkzJQdpGWhjMbOoymr3RZuvqfU9U6e7BCSSqnlpHjacqYLsz+IFmnBXSm5tqU9RmNdJaQfdeptHbzl/TBkv+jN/9TaOij3KZZ9NlIZ5LYd6WpazfTlx8sof978yClHltHz/X3ISlsqd1jL9P817fTLyoL9MDmKrXzod5/fYqGhzTTLWoymSu1G/43+mukp66YajX9oBk9iWCNLaqgyTlG614ULkhAtoHD6cVFH9OxrPP10nXDxEwVvclbUuT4KTSmixtJIKNOC85Y6E8W6ry8fbl+LNGlUblOUY5R/8igr8cLsexOvZ7/gL768l2aGOrIijxfmryzRnZQ36F/DXVhsjpQyPAp9Myj7cmV6RbleUBUNkMfBsouLqVwZieH0V/pC5uyM7QgVGbIN2b0K+hk1SgKj32B3vrsG/p67bMU4cxs3vp5+rGmI7KizFQuNW6j7+ke09OLQlHO9BQ4/EVa9PERuvblWPKU2JLfo4tp/aYP6bmeTB55F1p8OouOrXuO+vtICbbt6LGX59Pr238hlbU5P/GqhbHFiuKvTMjClKy+sZoGsjwo9XmSvknaQKM9pOQY9Sb9XOEbrICXtaReT/4fTertzQplCbX4y1c6n629DiWL2jPrs5HkLLGnrlPX0uYvP6Al//cm/afQWG76D7sk53A41tKoxauNrTN5tmpFrdiPf8TLdEjINDWK1+wNo8iJXbWGz/2erv7yC/1y8Z80jJ0rj1lJd0oNBaltMP3fwVx931nr6VEHVsR1WUIXqiZ9Q4IpL16z1j9KDqzfLksuVLvjUL3QeUCfjWCLEUusLx03PJCVv43i3NkC7vUU/dtU7dloxesrdOnWGhrI5ucwYBXdLjpGs0PYwh22iM4qK9sklZmTO4vWP+rAFtkAev5HQQYNZe2cTK3K77xmb6BRTqyv8Ln0/VWm818u0j+Hsf7kMbTyTmn1gqCCMsq/9xtd/2GebmG1H/UFFVQUD7YU/H8HyWCh6lhUvLICqtti+kkQtSSB/h4oJRvHMbS5xi0JTcYnNFzQQesR9Fr8z5RteP6ymk01GfTJcDYXWWsa8Vo8/VzeiI2b9EqEbl6PfWno2CI9yKjbkvPMqkS5X41mFwQS8hzzJaVrWI9Jy6gbG1c+6F/6/nQY05MIdbKFHvXt9yhaGH/wWsoQbrrVU9cNEzPlPsH0tvgnnd5KEv5OgVIbchyzWd9eh5g/Warz8vYG/VhqT6NyGfGPB5/RCOZvtu1eosqpxpE7K9y9nvq3ro8KDHlJGsCKROGAJot2Tm5VeedVVLbqt3EtKl7N6pedln+Pfrv+A80TfMJ+FH1R0xFN5dIKjNvo9nvRbHw5DV6bwTJLNm0Y5cTiLZzmfn+VzesXuvjPYexiRk4xK++wLpLolQghLz9GlWFnZc6vwFxsmZGFaevUgs4kZ2O39GXFqSyE/n5I6KFSp+HM74RlSnN3LQ0V7OkzRQiA2jKJ2rOMMj4ZzsaVUesRr1H8z9lsBIbJ3MThcKylUT8qS+IzEVtupiI1NRXJP72LAXaGAxVokHH3HlRUhgvvDkHH9u3RvuscfFcE2EqlrLA2NJMGoWs3N92v6oy7yCgjSLx94Wur22UENes3A2Vset6+vjDdLB2p6aUgiS/aBBha2bF+FRJoldnILtPv+j2xafU4/tLHAQ9PbMXGL77A9ls26PyX8egqMzQQMCd3yX1kZJWBpG3Qvp2cHZSgeStfuBmsrWE6vKcilF14F0M6Mp2374o5eqVDWqH0cgpxbt1k9PB1gZtPG7Qb/A7YQidc9FR5pFeKoK7doLdQ3ZAoWsFfeAZa2gItmktAak2N58RYG6+/4pVXY+GbtQ9LRndFYJcJWP9zieGoAYkX/vrKq4j1zcK+JaPRNbALJqz/GTVa6bBMDxIofFtBEM3erTkcbGzg5OsHd6ZLCdt2FR5v1gqSWqKn2lhni4bBuK4bOmaY3lr56/QmbdEC7HoVao2lerJU59Wx2J5G5aqNOj0V6aUs1/i2QeVUfaGQaKHMzkbV9KC5n4EsNg9pm/bQh1xztPJ1Y6PpaXg7m55H4bl1mNzDFy5uPmjTbjDeucBygaDfGsOYzqVW+LImA3fvqUBlF/DukI5sXu3Rdc53KGIeJJUam5f1Od9ieczKYo/u0/6GXnI17jFft2n3F0yKdtKfq0MCT+Z3wjIlaRGINszhtPkVbx9Uk0ncnjbw+usreDXWF1n7lmB010B0mbAeP5danps4HI44jVq8mscGzs5O7P8y9H3nBkpUKqiEn7JS5P8wEwFVXw4xIHF2hiP7V5NyG7fKn5pnC1n1B/glrF9dK6TcvlXxcL225ksUEle4OrOVkLKRlWk4VnYf93O1kLh7wlOm39UgFN/BiX37cfau8dcAKmBFweN/6QvH0tN47x9f465td4wd37F6MWFObrkznJ3YcW0G0tL0b0mo8pQoMjS1YToUDsv6voMbJQadq8pQmv8DZtZQuvbuRsx/6Sv83PI57L2Rg8Jf3kYfq/QigYR5GamLUFAoCPAQOTlF5l+4MIoTer60B9euH8VnL0TC9trXmLd8V62Pb3Lq+RL2XLuOo5+9gEjba/h63nLsYo1YDaRDq9WPbo0ezFFXPTWkDPXT9e8TM/X3J9PUV5c1/UPi6gr9VLNQOdX7yNVK4O7pybJWJeVjazPSoA85FfKUlbq3SjZmRHZJAXVRAfRmzEFOefCaQ3sXG+e/hK9+bonn9t5ATuEveNuEgk3lUrU1NrIx5BpZX7xzo8QwLxXKSvPxw8wAoQH7T0DL9Cr8a33Ot9hnzMpSjFPrPsdJtTu7sHCE+tqX+ODf96vEhxaF+fksAthvOclIEXza1V1/qAZm7enUEy/tuYbrRz/DC5G2uPb1PCxnSchUbuJwONbRqMUrFf2C/evXYd069vPReuxOqvlZlRK0jIlGKLsSPvPpMnyacAm/XD2L/3zxNlbvu2t00ZW0ikZ0exk01z/FzOeWY+WbszGiyxNYX7666JCgVXQ02ss0uP7pTDy3fCXenD0CXZ5YX7EI6ZD4YMCAMMjVV7Dp9bX44exJbF/+Lv79wAa+j45GH+G2RlW0WTi99WN89Ol/WMJi8yu9jR/Xf4TPvvuVLfZaZJ3eio8/+hT/0R/E7R/X46PPvsOvpVqkb5iGQSNHYOjL/zZ0ZgoJvEeNRYwToajwIex6PYFxbWsubmbkdmiJqN4hkGmuY8PLs/HWWzMx6qlP8ZvhBpOkZQyiQ+VQn/kUyz5NwKVfruLsf77A26v34W4NpVNRIYp0izFBlXkB36zahsvGb1QZx9YHrX3tYVOWiA9nvopXnx+JKZ//plsgrEVziy0EU1Yg/pYc7Xu0QwvBe1nFUc2JNbdYYTsFK+JvQd6+B9rpG8GGFQQuLsKiqca5za/ivX9uxxWF5XowR131ZI0tzFIvXTdSzNSg3v4kQv10acQ/PAdgQBjr78omvL72B5w9uR3L3/03Htj44tHRfXR3PcuRtIxC7xAhL23Ay7PfwlszR+GpTyt1b41stj6t4Wtvg7LEDzHz1Vfx/Mgp+Lw8eM1BRSjUKxikysSFb1ZhmwkFm8ylyfmW20jSEjHRocwfzuDTZZ8i4dIvuHr2P/ji7dXYJ0xM4gIXocpTn8PmV9/DP7dfgcLKnG+xz5iRRfPLOiz86BpkkS8jftN0hEjS8c2y93Cq4tZnGU4sH4kn5r+BhdPfwo/FNnCLGmA4Vh1xe2pwixWnU1bE45a8PXq0a6HLUTb0m4ncpOuSw+FYAzUGD/fSFF/hbU+Wbcp/bGQU8UoSlZU/89pB/8wrUT6dfHckBTpKKtrbyDxp5Ee3SK35jdYMdCCpy+O0seL9CA1lJyyj/i1l+vY2UnINe5l+yK/RVpNNCcv6U0uZjb5PqSuFvfwD5f8mPFMqJZfHN+pfyMo/Re+NDCAHm3I5m5H/sFfpUFb159B0lPxIM9ro/v5U5ceG7Af/i+5qSujHGW2IlZnVjtvYD6Z/3dVQzreTydfOgTq8fMTQWRUe7qCJLWzJIfpd+kV4DEqTSZue8CSZ1I1iP05mMxba7KRJHrbUrO87+jZm5Nbc+zf9vYuL8FwI2UhcqctTM2l0azl5P/Nv3fH8k+/SyEBHklScLyPPkR/RLbWGflszkBykLvS4oEj1bfryySBqJrRjunaPeJwGB8nI+S9bqJBJVq2tCXIPzacIV8G+NiR1707PzR1L/nJvembPQ9LUtIf6Gr3dpxlJ3cbTVsMzcuVoMr6miX7Cm86CzDZk5zuM3j3DpKjahyaDvp7op3sLX6d/O18a9u4Z3UsR6psf00hvvV+WP69ssR4YJT/MoDYyOXX8xwkSXFeT/hE94iglp0c/MaMncayRoSqalH/REGH8kZ/TA8O+eum6QWKmtszqa29Tn2ZSchu/1YyerNS5kfbW6LKaXMK2Mf849R6NDHAw+BzTSTN/GvbqIaqdHjR0799/py4uwouRNiRx7UJPzRxNrQXdGx6eNy2b7nAVcunQ/AhylQhvqjMddX+O5o71J7n3M7Tnobl5qOn2l09SUDPBhoIPRNDjg4NI5vwX2lLLEU3k0jxxG6X8awg5Sp1o5OcGr8s/Se+ODCRHQV6dnmxI5jmSPtJNTE03Px5J3sIb+YYXRh9am/OtiS2TsuTS7qd9SSpvS88fULKp32U5tiXZSprTY5+n0q+6Z15tKbh3lO4zvIXzmgWNp89+KWNtja1D4r6W8fVE8rMzyGBjR77D3qUz+aZzE4fDsQ4b4X8skH4/7q/Ho62fxQ/tluDM2VfR1fD3cE3eb/j5cjLyJW7wa98BAc2FB8dEKLmHKxduINfeH106t4GzkT83CZTcu4ILN3Jh798Fnds4w3gzNXJvX8KVtIdo1qoTugQ2N/3M3x8KM3Krs/Hr+V+Q69YeESEtas9Jk4fffr6M5HwJ3Pzao0NAcxjXugpZ15NwM98dHbsFwc2ErsVQZ1/HuWv5UIRGILD84du6oLqP65d+QRYp0K5re3jWeo5aQIX71y/hlyyCol1XtK/SSJN7C+d/ToekdTjCWzvp79parAdz1ENPDSZD/XXd+DFTf38SpR66NOof6lzcvnQFaQ+boVWnLghsbnqm6uxfcf6XXLi1j0BICyPtLJZNjezr53AtX4HQiMCK59UtRZV1HUk38+HesRuCzCnYaC611kYa5P32My4n50Pi5of2HQJQmcI1yL11Hj+nS9A6PBytnfSTsS7nWyOPmCzG0ODWu/3QYd5PGPhRCrYOTcHPGQ5o260jvIzmlyqI2FN1/zou/ZIFUrRD1/aeumdphXmYyk0cDsdyftfiVXVkPvqM+wAX7pfAa/JOXP/iMTgbjnE4HA6H8/tTtXhNxcFnFYb9HA7nj4r1t2XqgdQjCJ07R2LY5NewccVIXrhyOBwO57+MDZyDI9EvZgB6BjUz7ONwOH9kfv/HBjgcDofD4XA4nDryu9555XA4HA6Hw+Fw6gMvXjkcDofD4XA4TQZevHI4HA6Hw+Fwmgy8eOVwOBwOh8PhNBl48crhcDgcDofDaTLw4pXD4XA4HA6H02TgxSuHw+FwOBwOp8nAi1cOh8PhcDgcTpOBF68cDofD4XA4nCYDL145HA6Hw+FwOE0GXrxyOBwOh8PhcJoMvHjlcDgcDofD4TQZePHK4XA4HA6Hw2ky8OKVw+FwOBwOh9Nk4MUrh8PhcDgcDqfJwItXDofD4XA4HE6TgRevHA6Hw+FwOJwmAy9eORwOh8PhcDhNBl68cjgcDofD4XCaDLx45XA4HA6Hw+E0GXjxyuFwOBwOh8NpMvDilcPhcDgcDofTZODFK4fD4XA4HA6nycCLVw6Hw+FwOBxOk4EXrxwOh8PhcDicJgMvXjkcDofD4XA4TQZevHI4HA6Hw+Fwmgy8eOVwOBwOh8PhNBl48crhcDgcDofDaTL8jxWvWqgKlChUGzY5HLOUokBZBI1hi8PhcDgczn+XRipetchL/RUpyj/Qkq/5FZ/HtUfL1h3RPvxF/KAy7Oc0Dtp0JG75CoeTm3LZV4oLr/VD+8fW4qrJCx4t0hO34KvDyb97gVuS8SuSki4h6ecr+PWukkn7J6T0JJYPjsHCww0ZsGrcv/wDtm1Yj0+//gHXlFrDfgtpFJk41lGKk8sHI2bhYcN2E6GJ58XSk69iUL9FONKUXP9PsRZxatI4xavmNj6OC8foVVfZMvHHQH1hI1bta4VlF9KQdmkVBtoZDhij9DRWTpiG9aYrFo45ihKxds4cfHhMadjRgPxO9tH8+jH+8ZUXXv18DsJsDTtrjV2ExLVzMOfDY2iEmZpGcwf/GtcZfUc9g/+b/jeM7NYarXtMxcZrf7KCivKQdv0aUnLJsKO+lOL40l7oNvZNxJ84jf3vxCEi4mlsS7eigK2vTDy/NACEvLTruJaSa9huIjRmXvwdIGUarl9LRYOF4+9BE9c5xziN9tgA6ZzbuIdrS5TIysxBcT0vhEoL7uN+Qc37TVqUKLOQmVNc7U6YOjMD2U7+CPBiU5ZIKieuLkR2lhIlVdcudSrOfXcISZlGBDTWvgINinNzUVxxzLgs1qNGYXYWlMYGZfLcz8qr2103k+eKjKdDg6KcqvNktsjLhlJVZYfzOGzJyML2iS0MO4xRR/2I2EerUuL+/QLT+tAUISe3mI1cTinyspWoKroeJps0HPO2foyngqSGfYxaYztj3JYMZG2fiGozLS0wKkdD+b5gA7VairZPbcDRkz/hevJJzHPbiRdnfY6UKnMR04e68D6y8owcEfVxc75hDnb+/SwYG9as7apgTdvqSOAxZCWOXfoRW9Z/ip3/WYVHcr/F+vjMKj5hBdoSKHNMyKFVQXn/PmqlqHr5bzFyswuM3xQQsZtJW1sCm6MwZh3PZmNnI0tZUjf96qivz1mDaf8Uw1xca4pzkSskTFN50ZSvWIkgR3ad7CymY5YLc7NFdNIw9hGVXfD7anlbZMya65oJnZvPIcJ6no0CI8Fmsb0bG7F80Ng+JeS+rEzkmFZCdZuZa28t1Biob9BbvR2o27JLVGbYpaPkBK0YGkJenv4UEuxNbopwmrrlNqkNhy1Fk3WIXotl/fgEUZCvFwUOWkEnSoTuV9DQEC/y9A+hYG83UoRPpS231ZS9ZTIFK5xIKnUiRavW1GtRIqlISadXj6MwHx8KCPZl58TQnPgUKs34guKCPMhRKiNnr1bkFzSeNqRr2KjG2wuyq44vof6xi2nVjHBylcgodMEZk7JYi/L0ahoX5kM+AcHky/QWMyeeUnTdqOnGpqepi7cntQ72I++gONqYIshpCabPNT2eio4v6U8jln5CS0d0prb+HuQWNIbWnU+iL6f1ofZBPuTWPIymf5tCup5Ux2lJdE96+UdmGCOI6ackYR5F9l1Mx1S6TdZXIi3uG0nzDpWQxpR98n+idZO7k6+XP7Vt40ktAgbSy/HJet8SZOk/gpZ+spRGdG5L/h5uFDRmHZ1P+pKm9WlPQT5u1DxsOn1r0IEp2YyP/ZDpJZp6vvwj6WaqyaJDr8VSiJcPBQX5klfgIFqhd84G8f0KasWYhlJWDSD7VtPpoCCImD7YuZue7kLenq0p2M+bguI2kn7qpn1cd9Skb1iG+sYmerqLN3m2DiY/7yCK25iiPyAma8kBmtbKgybsfKhrKtq2LhTtpr95OdCQtff0fmsJOpla0PBZ/6BHOgVSIPOfFp2fpo2/lDtsPv20bjJ1Z7nJv20b8mwRQANfjqdkJmS9/Hf9KzSS+W+Atyspus+k3bq8JCBiN5O2tgQNZRxcSAP8WpB3G39q03MKvT3/ceo9V+/rYnGqQ3maVo8LIx+fAAr29ST/mDkUb43DMEz7XAkdmNaKPCbs1LWziJIEmhfZlxZXCkyJi/tS5LxDuvkY988SSpgXSX0XH2Ot9agSF1PfyHmkm6ZYXOvsFkuLV82gcFcJyUIX0JmimnnRtK9YiiqRrT+jX6FPFg6nToGB5OvmTp0mfkZXdQKbkZ8hFteajAO0cIAfuXu3Ib/WkTTluUfISzGJdhnCsb45QVx2/ZoTu3gVzQh3JYkslBacKRMZ08S6VnMtEs0h5evcenplJFvnArzJVdGdZu5O1+cHa+1dpqIji6IobNx6snz5N2Mzs/mg8X3qxIqhbI1jMR0STN5uCgqfusUwP2M2KxRpX3d+3+JVlUS7Nx+jNJ0PqejKiihy7DCXTpZbyCLyad/U1uQxZBVdEQJIk0Pnd+yln1kfqqTdtPlYmi4RkeoKrYhypA5zTzJ5HlLWtonk7T2RtmUqqZC1LTo8i9p5DaVVl4tYYzWlbB5Pfj4TaHuOmh5mbqKx7m1o+t4sUuY/1Dmm6fbMlAemka99M/KPXUnHb9+iG2mFpmWxhqLDNKudFw1ddZl0o6ZspvF+PjRBGFR1hGa29aQxmzJ1QVWUfIOShUaWYOpcsfHYTA5M8yU7j2halJBFGk06bRytIKcWoRS3/gprX0IXlkWQQ9hCOisYvWbRUQMx/TyMn0xevlNoX/mpJftpqq+CJukypjH7FFHCiyHk1nMRJeboZkSXVw8jhcdo2niPbQuy+NqRR/QiSsjSkCZ9I41mFzMtQuNo/RU205ILtCzCgcIWntX5q2nZjI1duYgK0uXvm0qtPYbQKr1zUs75HbRX75wN4PtVqBVjhfT9cwHUrPeb9ItaXB+qIzOprecY2pSpP5Z8I5n9XzC/aR8X9w1LYEl8ZlvyHLOJ9MMm0w2905m3XYUfmWlrBWUlhaS8d4m2zepJHoGTaVtF4rcAnT9Jyb7jdNrxm2Db6/ThIy3IffRGymDdFCW8SCFuPWlRYo4+vi6vpmEKDxq98R7bqof/9p1P32ewbFR4nOaGNqOuSy/obC9mN1O2tojCg/RsGzeKeSuJ+baa0g/MpggnKbWYtEvn6+JxWkSHZ7Ujr6GrSC9WCm0e70c+E7aTpR5jPh9ZWbw+jKfJXr40pVJg2j/VlxS6+Zjyz4cUP9mLfKfs081ZoGT/VPItL+DE4lpnN3tq5h9LK4/fpls30qiwmj+zYUR9xTJ064+sGXWcso1us3HLbn1MsQp3emyD0IcZ+UV1XEgHn21DbjFvURJrq04/QLMjnEjawpJzLUNcdv2aY9/Mn2JXHqfbt25QWpbImKbWNatySPk615fmf5/BvL6Qjs8NpWZdl9IF/eJgnb1ZhP60Ko5iZ31Ld4XuLcKMzczlg0b3KRUl7d5Mx/RKYEvkCopy7EBz9UqobTNWcJluX3ca7bEBo8jDMOrJvvCVFiIzORXU0h8u99Nxz5q766pE7DqQh35PPYWO9mxb0hzhY2IRKhe6H4Un+/pCWpiJ5FRCS38X3E+/B0jt4Wwvg42NDPYurnCUq3Bmxx5kdo9Ff9tUXL9+E8Vh0ehafBKHL6lh72QPmY0EcgcXuDrbQwqx9oZnDOXRmL9uFqICAhHs62haFitQndmBPZndEdvfFqnXr+NmcRiiuxbj5OFLUElc4ObyEFd/PIDLSi0c/IPh72A40RwmzhUdT3eiDZyHzcLi/gpIJF7oF90BWv8xWPBURzjADh16R8A97Tbu1PwLgzYP6Td/ZXq7juu/3kFWiYitzCKtbR/VcXyzKxMxz81Gn+aCSzug05RnMUySgD0JRfrTbJwxbNZi9FdIIPHqh+gOWviPWYCnOrKJ23VA7wh3pN2+o/sTkmnZjIyt67wcFRJ3HUBev6dYvzrnRPPwMYjVO2f9fb8WWuT8vBcbP/8Ib/99FJ752gFPL3wGbdXi+pC4uMHl4VX8eOAylFoH+Af7sxbiPm7eN8whgYubCx5e/REHLiuhdfBHsM7pLLBdOda0FUN1EC/16IBOXaIx8aMMRPx1NLq4WpkKbVwwcsl7GNNasG0IJk6Igfr4IZwuVeH4N7uQGfMcZvdprns8yaHTFDw7TIKEPQlsqx7+O3sZBnsxj3OMwKAoD6TcuMn8Vdxuxm1tGaXn9uPH7D6Y/EwYBE9v+cjrWDbWs/KRKzFUZ7BjTya6x/aHbSqL+5vFCIvuiuKTh1GeMs1Rf5+zBhP+aQ6zcS1H9Px1mBUVgMBgXzga9uox5yuWY+M0AkvefwIBzB1tA8cjrq+a6emM4ahpRHVceg77f8xGn8nPIIylM2nLR/D6srHwNDhAQ9nHnOzy6PlYNysKAYHB8LgiMqYla6JFOURY52Zj2WAv5vWOiBgUBY+UG7ipXxystLctImZ+jb3vj4WPRYFjISL5oPF9So6wUU+ir68UhZnJSKWW8He5j/Qqi1lVm/k6mm9fFxpSnebR3sW+hcMQ4hOEXsPH4Mk3fgC7+LHuWajSTGTmusHLWygOqqO9uw8Lh4XAJ6gXho95Em/8kAMNGetdg4x7WSg+vQaTx4/HeOFn0nqkBoWhjWv1ckSP+fY2cgW8WWFUjuWymEaTcQ9ZxaexZrJhzPGTsD41CGFtXCG17YqXPn4Pfa4tQO+Ajhi5aHftotEUJs4VHc9wqhDY5cjlwgVB5TbbARlpatlT89s2zI0r7/MprDquahD9VFB6F+nZbmjl72TYwZD5wtejFNkP8g07GBWiyiGX2TDZDZsMYS6k0Y9fd9lKkZmZCzcvb7bY16AhfL8WhOK7P+PsuWvIVozF2hPH8a8RrLgwow/bri/h4/f64NqC3gjoOBKLdgtFu7iPW+YbYtii60sf470+17CgdwA6jlyE3YLTWWo7AWvaimH3CFYnpSAtMwcZJ+bDcdN4DJu518oX7qSQ28kMvwP2CgVcCpVQakpxNz0bbq38USmlDL6+HijNfmDYroHV/iv4qy20auHZMXG7Gbe1ZagzM/HAyQvezoYdbM62thYuGZoM3Msqxuk1kw3+Mh6T1qciKKwNjKZYI9Tf56zBhH+aw1xc28ih8GYX+4bN6tTBV0whlaPSHe2hULigUGneo0V1rGZr7QMnttZWOABbd2wr5tJg9hGV3QZyhTfKl1bRMS1ZEy3OIdXXNVutmkUao172bmCM5oPfw6e0uLtvIYaF+CCo13CMefIN/JCjQeUSWd1m5tvXjd9Fx+WoDr2BGWtLMf1wMu5cvYQzH46puIqzGJkTnOwKkFfrY7hUOPTGDKwtnY7DyXdw9dIZfDjG1F0CCZxdneE4aAVOXLyIi4afCz/F46VwWyNaMdO+FtbIYhqJsyucHQdhxYnKMS9e+AnxL4WzVAs4R0zHp6du48q2OBR/+hT+vilDf6IFGDvX3Hh1RRo4DZt/umDo7whWDIK4fiRS2JSVocywKXi5/gVAAzUVKXOBS7MClnwqzmDxch8P8uzgoXA17LAUM7YTNaIMTk52KMhT6hNdFRrE92shRatHFuDDf63GO0ufw4gOhrma1YczIqZ/ilO3r2BbXDE+fervEFxHzMcbxDecIzD901O4fWUb4oo/xVN/32Sd7RrUzgJSNA+fglljWiP9aAKu1FzozFHFJ0tzc1Hk4o7mUhlcXJqhgC0UlVJqcf9BHuw8FPrNBvVfc7nJmK0tWzWkjk5wLMpFboVYwmNmhl8FxOJU4gxXZ0cMWnGi0l8uXsBP8S/BaMo0QsPnIwmkNkzeKvPRVp2QMf9kSKQ27JxK25CW6cHwe/3i2gJfsYLKmZQiN6cQLu7NdVti8ovqWOoIJ4ci1lflfVSqoq+GtI8p2Wtibkyza2I9c0jj5PHaiNlMnN/Bp1SH8MaMtSidfhjJd67i0pkPMUZMCda2t5BGUHs5hJKc33DtyhVcYT9Xf72HfGUu8mVe8POxZ/rMxqmE89Z/5Ia8J6J7qHFk535k6nJwHi5+tQUnijRQ5uZD5uUHffenkHA+14TB5ejRvxdsj36Db6t89ltpXh6Kdb81g4NdPh48KF/NzLWviTWymEbeoz962R7FN99W+QzR0jzkCYOW/IqzF+8zt7RHm4FxGNSmDAX5Jfo25jBxruh4DYq4fmz9/OBdeAUXfxX0X4iz77+HXVlVF9wa9pH3xsAowuEtW/GbTnANUndsxEH1QDw2wNI/kpZjznY1faMqcvSM7gH1kZ3Yr3dO5F38CltOFEEj5vvaVOx5bQaW7bxTqff6YEYfJb+excX7TD77NhgYNwhtygqQXyLu4/X3jRL8evYi9MMORNygNigryLfOdg1hZ+09XDh5HQXl7sRi4cS5DDh27Ixga1ZcUuLAh+/jTAH7XZuO+G+PQdK7PyLlcvQeGAU6vAVb9UJCk7oDGw+qMfCxAbrthvVfcbsZt7W+jTlk3XojXHIKe/ZmsFzBIvHcGqyM1/8uIBqn8h7o38sWR7/5FpVilSLPimTS4PnI1g9+3oW4cvFXJgmT+Oz7eG9XlmE+JvyTlUR+ft4ovHIR+mmexfvv7UL5NEXj2iyW+IplkPIAPnj/DHTuyPrYelSC3v0j2Za4/KI6lnVD724SnNqzD7rrncJzWLMyXv87o6HsY1r22oiOacmaWM8cYr29Nbj+9QL8fWUCsg16M4+4zcT5HXxKo0Ruvgxefj5M01pkn0rAeTElWNveUvSPvjYwmhT61xBHsmHdC0MIPzaOj9OXKT/Q3G5u5B7Sm6K6dKR+Tz9BEb5/o93lTyVbyMMLq2lkazfy6RxD/boFUOCAFXSS9ZH7w1zq5uZOIb2jqEvHfvT0ExHk+7fdunNK9k8jP/9pdED/zDBR2U3aMqULeShCKGrwUBoQ2Y78wuaQ7oVEzQOKnxJITj5dKabvM/S58KS1SPuSH56nQN+n6d9V5iEmi+WU0c0tU6iLh4JCogbT0AGR1M4vjOYIg+bspmfb+bD+B1L/rr7k2WUGxVv60onJc0XGoxL64flA8n3634aHyDWU+fEj5Bb5Bl0xvDWoOjaH2imepO26h8p/oOcDfenpqkqpgqh+1Lfoi3FtyEnRkaJ6hlKPiUtoSoQfPb3H0JcR+6iubaBJHd3Js0NfGti3A3n7RNLMXYY3rmvKosmkjx9xo8g3ruiPk4qOzWlHiie36+YmKlutsYur6+XhBVo9sjW5+XSmmH7dKCBwAK3QO6dp31edoH90cqa2MxOYli1EfZtWxrhQz9fL51AdMX3k7H6W2vmEUO+B/amrryd1mRFPevOLxISob1hCDu1+th35sPkP7N+VfD270Iz4dN0Rs7YL8KmwnWhbSyi7SO8O8iWP1uEUPWgA9QhoTopuU+mrG1a8PMBkei44lP4ybQiFBHenmG6tyC1gNH10xdCH6hptmNSR3D07UN+BfamDtw9FztxV+RZ2ff23hr+K2c2krS2iiM6+M4i8Xf2pe/9I6hg+mp7srzC84MQwE6dlN7fQlC4epAiJosFDB1BkOz8Km2P4VA6LMJePAsiHxZ3lqOnWF+OojZOCOkb1pNAeE2nJlAjye3oPm49p/1Tf+oLGtXEiRcco6hnagyYumUIRfk+TbppicW0sB9bcZ85XLEB4uaaVawQ9OrgdhfSIoW6+bhT4l4+p3B1F5TcT10Vn36XBLV3Jv3t/iuwYQeOXTKMeFp5rCeKy11xzBETGNLWu1dC5eA6pPWa1dc1ae7P+hJcCnfu+TVetsKmozczlg0b3qVz6YW43cnNneSWqC3Xs9zQ9EeFLf9MrwYjNxNrXHRvhf7oq9vdCnY3r564hzyMU3YPc6n7rt+Qerly4iXyXtgjvVPmMoTr7Os5dy4NHaHcEuZnrXYvC1MtIupMHqUcQQtv7wLH8FG0e7py7hHS7YIR39oH+mkykvRGsk8U02sJUXE66gzypB4JC28OnfNDSbPx68SoyJb4ICw+EmzUPGomca3K8BkZUP9oipP58CWmyYER09GTXkzUwZh9NHn5LuoyUEle07RKKlhbejDOGuGzGfKMqJbh35QJu5rugbXgnVDye3VC+byki+ijN/hUXr2ZC4huG8EC3Ks+oift4/XyjFNm/XsTVTAl8w8IRWNXprLFdve2shvLOZVxNzYekRVt07tTSiA0tgekq+RIupcsQGM7kKLezDg3yfkvC5ZQSuLbtgtCaQja4/5q2m2lbW4IWBb9dYHO0Q3BEMC68EIy/qT5EypeP63Ou2TgtROrlJNzJk8IjKBTtfRyt9vuGzUdaFKX+jEtpMjafjvCsJrBp/9QWpeLnS2mQBUegY/WTGiCuzfiKGVQHpyN4UjHWJH+EiOuXcFceVG1NFBCVnyGmY21BMi4lpUMe1A2dvGt/u0997GOJ7MYwOaala2J9Yu13yuPmbCZOY/uUGtnXz+FangdCuwfBfHljbXvz/P7FK4fD4XCaICocmBZUvXjl/NepKDRSv8LoJmaUpiz7n5mmYJfGumjgcDgczp8KKTw79EF0J2++cPyBkCo6ICo6FN5N0ChNWfY/M03BLvzOK4fD4XA4HA6nycCvdzgcDofD4XA4TQZevHI4HA6Hw+Fwmgy8eOVwOBwOh8PhNBl48doAqK9uxWsr9yO14lOTOZw/DlpVAZSFasNWJZriPBQ0/JfEczgczh+cUhQoi8CX7KbL/2jxWoqTrw5Cv0VHUP+1uxgJH8zH2nNFcLbuAxQ5fzRKT2L54BgsPPxnqeg0+PXzOLRv2Rod24fjxR8q56W9H4+pnbtj5gHhG2k49aX05HIMjlmIP43r/JHQpiNxy1c4XOUbxBoVbQFSf01BrW8g5zQwbB1ePhgxCw8btn8vSnHhtX5o/9haXK19TW89v7d/soydnrgFXx2u8i1j/4P8jxavBGXadVxLtf4rW2tR+CO+3luGR+KGw82w689M6emVmDBtfcME/R8NykPa9WtIaYivrvsjoL6Ajav2odWyC0hLu4RVA8s/YLwACcuX4uLIj7DyccXvmARKcXrlBExbfxV/NvehvDRcv5Zi/dddc8xTlIi1c+bgw2NKw47GRXN7HeLCR2OVRUnuz+vTNWn43E/IE9bhlFzD9u+D5teP8Y+vvPDq53MQZs1XQpuikf2ztt6LkLh2DuZ8eAy/T0T8MWnkdUuNwuwsKEtM3dvRoDg3GwVGg6EUBffvo0D4bt9q1KNPbQlys/NYzyZQFyI7SwlTXWuKc5FbXP1g3ndbcdB2BOIGOxn2aFGizEJmTrHJqyJtiRLZeUakYPIpszKRU2zsTGFeuTB2SOgvKzPH6DEBY3KbRauC0oj+1ann8N2hJGQaFbEYubnF1e7kaVVK3L9fYFrnJhH0mA3jarJmvubtYRRhLtkFRhYkc/3V0W+N6M4opQVG9GlCJnUmMrKd4B/gxQKd/Vce7VotfMauxdblA9DcsKuhMW53NVLPfYdDSZlGdVfbT7VQKe/jfm1liiPEkdE4N2c7Q4xVuI5YPJpGmEe2sQRkpr/SAhNzrUNeMobR/s3O0XQc6jCpawsw6suMmvudx2FLRha2T2xh2FGO2PpRR9/RQfqbGrUuRIyNJ+LTdbFbnfMOO7Uop3p/pXnIVqrYmbVRF2YjS1li9JiAMR82nfvNrcnWYH6eRtEUIada/ixFXrYSqloisf6l4Zi39WM8FVT7T6XaEmHeVvpMHfzT3BpWldp6d8a4LRnI2j4R1UY042+mfYth7tyGQGz8uiB8zmtjoDy9msaF+ZBPQDD5evpTzJx4w3frquj4kv40Yul6emVkZ2ob4E2uiu40c3c66b9yW0NZh16j2BAv8gkKIl+vQBq04gQJ35Zcnz4zDiykAX7u5N3Gj1pHTqHnHvGq/I5uUtLp1eMozMeHAoJ9ydM/hubEG77rWHWclvSPpcWrZlC4q4RkoQvoTJnuJMYD+uovCmr74mGdfCUnVtBQJrenfwgFe7uRInwqbbmt/0JhVeIS6j/6Ffpk4XDqFBhIvm7u1GniZ3TV8B3OJ1YMpRAvT/IPCSZvNwWFT91ChlNJeeJtGhnSkloF+pO3lw+1auVHQWM+oeTiE7RiaAh5MV2EBHuTmyKcpm65bYHcYuTTT+smU3dfL/Jv24Y8WwTQwJfjKVnNdPhFHAV5OJJU5kxeggzjN1C6Rq/72MWraEa4K0lkobRAGCj/J1o3uTuznz+1beNJLQIG0svxyYbvjzaFihJZX6Nf+YQWDu9EgYG+5ObeiSZ+dpUdYZRYN9/Eo6btYZSSAzStlTsNe/FlGtYpiAK8XEnRfSbtNnwZvJh96+O3tXRnDE0WHXotlvmIDwUF+ZJX4CBacaLEtEzZW2hysIKcpFJyUrSi1r0WUSJTomlZaqPcMY3CohbS4YqvoFbRiWX9KOLv+6jIsKcWpuyuyaAv4oLIw1FKMmcvauUXROM3sPg04af5P62jyd3ZPP3bUhvPFhQw8GWKTxaxnSqR9TOaXvlkIQ3vFEiBvm7k3mkifaYPMPHYPM5iM3YxrZoRTq4SGYUuSBSNR2PovgvcfRi9+PIw6hQUQF6uCuo+czeLD91R0f40WYfotVjm1z5BFMTiLnDQCmKmZdQ1L1XHeP9iMpmJQ3O6TphHkX0X0zH9pq794r6RNO+QblImfdnkfmGu0T3pZd135pvL9XXwnRqob7xFvR260bJLgkJFxjPl09barUjYN4KWrn+FRnZuSwHelucdne+OWEqfLB1Bndv6k4dbEI1Zd56SvpxGfdoHkY9bcwqb/i2llCtHeZpWjwsjH58ACvZlto+ZQ/GGBFDe1/pXRrK+Asi7wodN5X7r8kltSujAtFbkMWGnfks0vxpBp0umt0+W0gimN38PN7YurqPzSV/StD7tKcjHjZqHTadvDZMX7Z/Z8uDCAeTXwpva+LehnlPepvmP96a5Op8roYR5kdR38TG9/zNUiYupb+Q80rm0Nf4ptobVQmzNjaaeL/+oW1/M5wnTviV6LpvLkUVRFDZuvUjus0A3ouPXncYpXosO06x2XjR01WXdIqdO2Uzj/XxowvYctiU4rC/ZefSl+d9nMCUV0vG5odSs61K6IOSK/H00tbUHDVl1RVdYanLO0469P5OqPn0WHqRn27hRzFtJrE81pR+YTRFOUmphKF6LDs+idl5DadVlXc+Usnk8+flMIH3XrKDxtadm/rG08vhtunUjjfWuR3PvMxrp3oHmntSbTZW0mzYfS9M7lOoKrYhypA5zT+qOCYubr6wZdZyyjW6z5mW3PqZYhTs9tuGe0JiSdm+mY2l6V1RdWUFRjoZ+1TfovWg36rnsPJu3hh7sfoYCW02m7Q/YxFRJtHvzMdKfpqIrK6LIscNc0okjIrcYRQkvUohbT1qUmKMLtqLLq2mYwoNGb2Ryqh9S5qax5N5mOu3NUlL+Q8Gj9bq3b+ZPsSuP0+1bNyitsIgSXgwht56sYMrR9UKXVw8jhcdo2nhPzGn1fcmadaQp226zGZXRrY9jSeH+GG0QzrNyvjki9jCKrg9bcus1n77PYHMrPE5zQ5tR16UXmCTC8CL91cNvq+tO6Kw2+fumUmuPIbTqiq53yjm/g/b+rBKRSU0Ps7bRRG9vmrgtk5SFTEmistRGc/cjesTVl6bsNQhVkkAvBLnTqA0Z+kRcC3G7qx9m0qax7tRm+l7KUuaT3n2M+GlRAr0Ywnx+USLpu7lMq4cpyGP0RjLpPrp+ZNSs4xTapg8w+jhWQe6PbdCdYzY27ZuRf+xKOn77Ft1IyzEdjybQ9WHrRr3mf09615lLoc260lJdAhKJb3axuG9qa/IYsor0ps2h8zv2EjNtnfNSdUz1LyaTmTg0o+uH8ZPJy3cK7RPGEyjZT1N9FTRpl36HKV82tV83XisPmrBT2G8m19fFd2pQvXgVH8+YT1ttN90+O/Loa33e0fmdnQdFL0qgLFZkpm8cTQqnFhQat56usOFLLiyjCIcwWnhWpxw6PKsdeQ1dRXrRUmjzeD/ymbCd9KLp++przIeN5X4r80ltBN1WFq+i+dUY5XqLXkQJWRrSpG+k0QonahEaR+v1k6dlEQ4UtvCsWT0WHnyW2rjF0FtJzMfU6XRgdgS78G9h8NmHFD/Zi3yn7NPldoGS/VPJVzGJdIet8U+xNcwYJtdcvd6EEc37m2nfEj2XtfhpVRzFzvqW7pqMHQt0IzJ+fWiUxwZUZ3ZgT2Z3xPa3Rer167hZHIborsU4efiS4QUpGzgPm41lg70ghSMiBkXBI+UGbpaycxN34UBePzz1VEfdd2dLmodjTGwoqB59lp7bjx+z+2DyM2GsTylaPvI6lo31NDwzocKZHXuQ2T0W/W1Tcf36TRSHRaNr8UkcvlT+9oUc0fPXYVZUAAKDfVnvAlrc3bUVx/zH4q/d5bo98rBReLKvL6SFmUhOJbT0d8H99Hu6YwI2TiOw5P0nEMCa2waOR1xfNZP/DDsiR9ioJ9HXV4rCzGSkUkv4u9xH+j0toE7Db+mOCO3eAQ5M4uadO6GVMgVpRUx6eRhGPdkXvtJCZCanglr6w+V+OoTT9BiTWwwVjn+zC5kxz2F2n+Y6/Th0moJnh0mQsCcBkNrDyV4GG4kcDi6ucLav/LOLPHo+1s2KQkBgMHxtj+ObXZmIeW42+jTX9YJOU57FMEkC9iQU6U8wiQ2cRizB+08EMOltETg+Dn3VzBZnmCGtnG9zM/Ywio0bYucuw2AvNjfHCAyK8kDKjZu6P2GK2bfufltDd0aNpELirgPI6/cUnuqo6x3Nw8cgNlQuIpMU9s72kNnYQGbvAldHuQVxWR2J9xg8OfAh9m/7HgVsu+T4t9ifPxDjRwmPIRhBJW53qb0T7GU2kMgd4OLqjEr3qW432+PfYFdmDJ6b3Qf6bjphyrPDIEnYA1H3sXHCiCXv4wl9gGF8XF+oTx6G3nXM+II8GvPXzUJUQCCCfZubjkcRbNxiMXfZYOhdZxCiPFJwQ0hAYvGtSsSuA3no99RT0Ju2OcLHxCJUXte8VAOT/YvIpEMkDnWHTetaHFO+TCZ9vDYi60ddfUcU0+PV9uk62s3GGcNmW593BGych2HW4v5QSCTw6heNDlp/jFnA7O0A2HXojQj3NNy+IyjnDHbsyUT32P6wTb2O6zeLERbdFcXMbuWiCX3NNubDRnK/tfnEHGZj1BiC3mYtRn+FBBKvfojuoIX/mAXMh3STR+8Id6TdvmNGj6U4t/9HZPeZjGfCmO9JW+KR15dhrKfRLGcBpv2FCWFmDauByJqrxwJ/M+lb5s61RcTMr7H3/bHwqasqBER8uz7URySTaDLuIav4NNZMHo/x44WfSVifGoSwNq7MmOXYGP5lsERqq1XrnnEpzcxErpsXvIX8VYX69KlmfT5wYn066w8JC7utbfnUNci4l4Xi02swWdcv+5m0HqlBYWjjaujZRg6Fd40XWzS/Yce20wj5y3h0Njz0rb27DwuHhcAnqBeGj3kSb/yQAw1V8UqpHHYyw++sxFEoXFCoFB65ZoXwvoUYFuKDoF7DMebJN/BDjga6U+06IyaScHD1Cnz93T58+vpGXG7fHzGCN2nvYt/CYQjxCUKv4azQeOMH5Gio8rkfY3KLUoq76dlwa+WP8id4ARl8fT1Qmv3AsG0MG8gV3ix5GjZL7yI92w2t/Ct7gcwXvh6lyH6Qb9hhGqncjo1qwF4BhUshlMKrv1bO16w9TFHNjWyhVesfNhLrr+5+W0N3RilFZmYu3Ly8dYVxVayZo2UxVAWJAiOffAR0cCsOKouRuP0AioeMx6PuhuM1qavda9it9G46st1aoXo3vvAozcaDfDH7SSGvDDDmOgq4FCp1b42b05ONXAHvCiOIxKMZKl2HXVjYaqF3HZH+SjORmesGr5qOU9e8VBOT/Zufo8k41GFa1+KY8mXTPm4cE+tHnX3HHMbHq0097FaHvFNOxalMNuGCtZofyggaobkmA/eyinF6zWRD/I/HpPWpCAprg3LRBKqdW+HDtbE6n5ih/vlamCubezU9ykC6yYv1r2a+9wBOzPcqSwRbVJQIdaKaEJX+Ym4NsxoL/E2gmjjlvmXhuQ2B0fHrR73MYwqJM7tCcByEFScu4uJFw8+FnxD/Ujir5cWROTnBriCvVhKsT59SRyc4FOUip+JyUHhcwvArU4Ezu2J2HLQCJ8r7ZT8XforHS+Gme9bc2IZtF8LwRFx7Q6CqcOiNGVhbOh2Hk+/g6qUz+HBM+d3dSirfAShFbk4hXNybs1MP4Y0Za1E6/TCS71zFpTMfYkz5VV/pNZy55IKIkEzsWvsxfrSbjG92LIAgmurQG5ixthTTDyfjztVLOPPhGNT5YlGHDC4uzVDACtUywx5hkbv/IA92HgrdlkXdy1zg0qyAFSyVvUB7Hw/y7OChcDXsEKPKmxKlzG6FLnBvzq70rZqvZfawHPH+GsNvK5HByckOBXnKGgumdXOsiyxuwycg1u4HbN25F9v2l2F43COmP1XDrN0t077MxQXNClixUa2bB8iz84DC1Uwf1VwnB4Uu7mgutdIXxOKxLoj1J3OCk10B8mpVfXXLS7Uw1b9FczQehxUY1TXbkEhhU1ZWmUNYgVCZb035sqn91lEv36kTNftsILtV0IB5TOIMV2dHDFpxokKuixcv4Kf4l3TriTlqzbRBcls5DZ2vayLWvxSOTo4oys2t4rOGl/YMSKQ2KGM+XQ5pqx+3lLqs2eKH6+NvDeOrDaUba2k436iCvEd/9LI9im++rfI5ZKV5yCs2/C6CvGc0eqiPYOf+TP3VSN5FfLXlBMrq0aesW290k5zCnn0Zuj4Lz63Bynj972xE9OjfC7ZHv8G3VT6nrTQvD6a7VuPq1u24GjEOTwSWJ3MNlLn5kHn5wceeJczsU0g4X/2juEh5AB+8f0b3J1ht6g5sPSpB7/6R7FQlcvNl8PLzgT2TKvtUAs6Xf+ZOaTrSMotR5twRQx4fh9EDO8CxTP9WpUaZi3yZF/z0A+JUwnnTH9VTcgbrXnwZGy+LvesnR++BUaDDW7D1N70uNEzOjQfVGPjYAN02mjnALv8BHpTqN40i742BUYTDW7ZC340GqTs24qB6IB4b4KBrYhqC8sAHeP+MTkvsvK04KumN/pFy6+ZrgT2sQ7y/xvDbSuToGd0D6iM7sT9T77V5F7/ClhP5Vs2xTnHpOBATH3fD96/Mxb9tHsX4QVVuadXEArs3c7BD/oMH7NLNNPLeAxFFh7Fl6296OTWp2LHxINQDH4Oo+5ASBz54H3rXYedsPQpJ7/6IlFvpCxqReKwLYv3JeyK6hxpHdu6H3rR5uPjVFpwoqkteMoKp/vPNzdF0HOoPm9I1YOvnB+/CK7j4q2DlQpx9/z3sytL7LRPIhC+Xmdhv3d/6zfmONnUPXpuxDDvvVOq0vlT36QayWwUNmMfkPdC/ly2OfvMtKkUrRZ6lyahG7jeXT0rOrMOLL2+E6JJTQUPn65qI9S9Dt97hkJzag70Zgu8V4tyalYjX/S5gCz8/bxReuQi9S5/F++/tQoVLW4F1a5gB0TW3Pv5m7lwNrn+9AH9fmYBsk3NtON1YS6MUrxLPOLyz+lHcntsDHfsMwbCBvdA+OBrLT+lvfcpkctjJKyt7G7Ytl8l0t+kl/k/j7eXhSJzWDeH9+iMi/C/4PFkCWX369P4rli3qhMTnIxE5oBcinz2PPmO6wcFWaC+BZ9w7WP3obczt0RF9hgzDwF7tERy9HPquZZDJ7VCla1a7XsQ3O24havxf4FehQQcMnjoV/t89j8ioPugWswxZAe3QjMlQjo1jABwOTUb3nv3Qo/dsJEW/idfjPNmpgzF1qj++Y/JF9emGmGVZCGjXjM2JneTQE0P7avDL6fM4e/wQ9n39Lp7q0Qmj1v0Cu8FTMdX/OzwfGYU+3WKwLCsA7ZoxeXWjVZdbm3sWO9ZvxtFksUwiQcuJ7+CfQ29gXmQYogdFI6znPKSM/Qjvx3npWsh7jcRwl72YFdMP0VM2IJ05aU3dQ9ISE9/5J4bemIfIsGgMig5Dz3kpGPvR+4jzMudyNnAMcMChyd3Rs18P9J6dhOg3X0ccuzx1sGK+ltijNqwPWdU+bFifcrbPlmlGvL+G8lvjSOD/9NtYHp6Iad3C0a9/BML/8jmSJc7ic7Sxha0tiwGZ/m825uLSOPaImvgE/DPS4TTyr+gvVjyatbscvUYOh8veWYjpF40pG9JZWVTTbkI3E/HOP4fixrxIhEUPQnRYT8xLGYuP3o+DqPvYOCLA4RAmd++Jfj16Y3ZSNN58PQ6eEjO+wP6V28kr7xaJxaMp2EFZ1T5sWJ9ytk9IQGL9Sfzx9NvLEZ44Dd3C+6F/RDj+8nkyJNI65CVjmOrf2dwcTceh/rApXbPlLOxvmDUiG+8NDkefyN6YcTUao7s4MF8UTjTlyzIT+4WbA9XnKprrzfiOOu04tm76WjwPSgW72bIffdyIjVfbpzPgYbXdau6zPO8IBqvmu4Lswj6D7NX8UOKJuHdW49Hbc9GjYx8MGTYQvdoHI3r5KehFq9FX1XMZNXN/hodYPtEi9+wOrN98FGKq1smqm3gd83U1vUl1/cnYDv3sLdWjBN5/XYaFHY/iuchIDOgViWmnvBHmrp+3UKCF/W0WRmS/h8HhfRDZewauRo9GFweWX3XHq8sh5i/ia5hxxNdca/NEVZ2YO1eN24c2YWP8WWSZLLCt00318euJ4cWtRkFTkEKXjh+ho6eu0N1CC1/1NPAw/TKdOHqCLt8rf4dNT9371FD+b+cp8cRluqd/wbYGGipIuUTHjxylU1fukljXqsQ51K7F4/RFZu1GZQ9+oVPHTtPN3OrHhDc5W3lMoJ1FBZR8PpFOXL5X8XaenjJ68MspOnb6JlU9VXV0FoW0fJK+VRp2sHZnFoSSw5C1lCG0K3tAv5w6Rqdv5pp4A1xAQ2mfjiLf7kvpdPVBTaAm5R2mqyMn6Od04S3E6miUt+nMkUS6dLf2sWqolXSHzfXIiZ/JSDdGqHyLsqggmc4n1ra/ZfOtxJQ96oq5/hreb6vykNIvn6Cjgg9X6d7aOVori+a3NTTIJYRmV3z2kRlE7a4h5e0zdCTxEpl3nzvMB47QiZ/TdW8zi1Lxxm8RFSQb4ryW61ijJ+PxWHfM9PcwnS6fOGokL1iel0Qx2r8pmczEoQW6Jk0hpVw8TieuZJJxrzHuy6b3W4dVvlNvjPl0A9nNQIPmMU0BpVw6TkeOnqIrdwstyqPlGMv9RvOJJo0+HeVL3ZeeruHP4jR0vq6JaP+afLrz0zE6/vM9KnlY/RMyBDSFKXTx+Am6kmlhHjSFlWuYgPk1tz7+Vn9fbTDdWEGjFq9/TlR0dGYItYzbqvt4EUupKF6tTMiq0/Mp1LkjTVqzm46cOkkJ29+msSEtKOrNJLb0WIjqFC3oEUmLTzZ+Gq8f1T8ChPNHQE3X3uxNju1fphO/X16ynmofV8OpH2bikOuaYwbVqQXUI3Ix/eGXHFPU+Hg3zh+Pet+5/d9Djj5vn8fNTeOs+nYiqaIDoqJD4W2lxuU9l2D7lxPhdGwdXpk3H298eRVt/7EP8fPCKv+8Yw55OBYlHMVrvcw9b/rfRgpFhyhEh3rX/08KnIZBm4OrmS54/IVJ6GHsU4v+KEgV6BAVjVBrA4xjBDNxyHXNMYM8fBESjr6GP/ySYwqpJzr0iUYn7uN/WGyECtbwO4fD4XA4HA6H84eGX1ZwOBwOh8PhcJoMvHjlcDgcDofD4TQZePHK4XA4HA6Hw2ky8OKV87+DVoUCZSFqfuygpjgPBbrPteNwOJz/DbSqAigLa2VDFOcV6D/3lcP5A/PHKV5LT2L54BgsPPzfDptSnHx1EPotOtKIAfx7jMGpiubXzxHXviVad2yP8Bd/qNC79n48pnbujpkH7uN3+FKQhuF/KVbYXF8d1A+LjtRhhIbQ0x9G1xxOQ6HBr5/HoX3L1ujYPhwv/lDu21rcj5+Kzt1n4sD9JpMNOX842LqwfDBiFh42bDcOf5zilfKQdv0aUurzNYwGSk+vxIRp63FV7MukTEJQpl3HtdSG/Gq6mvweY3AqUePCxlXY12oZLqSl4dKqgbDT7S9AwvKluDjyI6x8XNF0/gzxvxQrpNTNNbUuc20IPTWgrpsWpTi9cgKmrb9a6y8VnCaO+gI2rtqHVssuIC3tElYN1GdDFCRg+dKLGPnRSjyu+HP+UbZ++e7PSkPHOiFPWBdScg3bjUMje2gpCu7fR0GN7+TVliiRlZmD4sqv0zWJujAbWcoSk3fFNMW5yC6ornJ16jl8dygJmTX6Fx1XW4Lc7DwmsQm0KiiNzKUCTTFyc4vF796ZG0NdiOwsJUosuOgVnYtBFgvUWwMtSpRZyMyx4lw2J6XROZnrS4Pi3FwUV8zV2rGt8S01MjOy4eQfoPuKSInE4PZaLXzGrsXW5QOs+sxeixHskF1gYULgsVIVbQmTNc/kCGbnKobouaUFuH+/wPjcxOxpRezWBWO2E0NTlIPcyuBi88pDtlJldM5aldLInNVIPfcdDiVl1o7HBsqFDZI3hH6yMpFjSYAwBL826VdG5DbnZyb7MydXjbHMxblg/2r2rIlRvzWhS3UmMrKd4B/gxQoA9l9FOvTB2LVbsXxAo2RD44jFVE00RcipZp9S5GUroTKmFhM+airfCbpSKe/jvmmnrrFeGUPQdzaMu4M19rV2LTSBaE6qOh+RWDeT18z6ZQUNNKeq6L6qoMHRUNah1yg2xIt8goLI1yuQBq04QSUlJ2jF0BDy8vSnkGBvclOE09Qtt0ktnFLzW1uUp2n1uDDy8QmgYF9P8o+ZQ/EpupakOr6E+o9YSutfGUmd2waQt6uCus/cTekaDWV8EUdBHo4klTmTVys/Chq/gdKLRcZlsmYcWEgD/NzJu40ftY6cQs894kWKSbsM3y6TTz+tm0zdfb3Iv20b8mwRQANfjqdk3ckqOr6kP8UuXkUzwl1JIgulBWeMfe+VuTGUdHr1OArz8aGAYF/y9I+hOfEpBvlqIKZD1s+Jt0dSSMtWFOjvTV4+raiVXxCN+SSZNCUJNC+yLy2u+IpPFSUu7kuR8w6R8G25JSdW0FBmL0//EAr2diNF+FTactuoBOzURFrSfzS98slCGt4pkAJ93ci900T67Kq+b7G+dLaLXUyrZoSTq0RGoQvOWDe21b6VTVsmB5PCSUpSJwW1at2LFiWqmHutpnFhPuQTEEy+7JyYOfFkcC8zlFDCvEjqu/hYxddeqhIXU9/IeXRIUKTqONPNCFq6/hUa2bktBXi7kqL7TNqdbuo793isVEOTQQcWDiA/d29q49eaIqc8R494VfmmG5G51sIKPZEmiw69FkshXj4UFORLXoGDaMUJZlBdH+407MWXaVinIArwqmlPK2K3JmZi0rTt9K1rUt7+k6UjWHt/8nBjsb/uPCV9OY36tA8iH7fmFDb9W0opPz//J1o3uTvzOX9q28aTWgQMpJfjk0nNbPBFXBB5OEpJ5uylyyHjN6Qz69fTvg2aNxLpxIqhzF7MjiHB5O2moPCpW8hY2lAlsnNHv0KfLBxOnQIDydfNnTpN/Iz0w5qQWyymRPsrEZHLyFiJR03Hmy6XxNLiVTMo3FVCstAFVCtkTPitSV1mb6HJwQpykkrJSdGKWvdaRIkqy3xYuWMahUUtpMOGcBLmc2JZP4r4+74aX8HbgDmyvO0nS2kEa+vv4UZBY9bR+aQvaVqf9hTk40bNw6bTt5VObcJHTeQ7dlr+T+tocnemO/+21MazBQUMfJni9U5txO/O6PZXwmKW2XT0K5/QwuGdKDDQl9zcO9HEz67q5y6Wx43YN/GoJWthLn07JYyiFh6p/Aa8kuO0NKYbvbC3kG2Ytmet+cw/YCLWRXzCrF9WfkOfbsuq9d1yGqd4zd9HU1t70JBVV3TK1eScpx17fyaVKol2bz5GaYIDM9NeWRFFjh3m0knBytUWmiI6PKsdeQ1dRZeFqFCn0ObxfuQzYbvuK1mFr1r1tfOgvvO/pwymg8Ljcym0WVdaeoFpUP2QMjeNJfc202lvlpLyH7IGYuMWHqRn27hRzFtJTFY1pR+YTRGs0GlhWJCLEl6kELeerODJYQZl25dX0zCFB43eeI9tCUbyJftm/hS78jjdvnWD0gTfqYm5MQ7PonZeQ2mVfrKUsnk8+flMoO3Gvn9WZC7qG+9RNJN12XnWj+YB7X4mkFpN3k4PBMd6GE+TvXxpyr5ydy+h/VN9KwoPVdJu2nwsje0VNq7QiihH6jD3pLBVG8FWvjJq1nEKbbvNBi67RR/HKsj9sQ10jylJrC+d7eybkX/sSjp++xbdYAqzauw6+Jb6YRZtm+hN3hO3UaaSjVd0mGa186Khqy7rkq46ZTON9/OhCUYVXpOHFD/Zi3yn7NONL1Cyfyr5KiaRrr7S6caOPPrOp+/1zklzQ5tR16UXjH+dL4+VahQefJbauMXQW0msR3U6HZgdwRbaFobiVXyutbBCT/n7plJrjyG06orQVkM553fQ3p/ZpHX2tCW3XsbtaVXs1sRMTIrazgjl7aMXJVAWuzhJ3ziaXbS1oNC49XSFiVdyYRlFOITRwrM6ySnhxRBy68mKlxydtejy6mGk8BhNG1kQqx9m0qax7tRm+l7KUuaT4Br1tm+D5o0cStq9mY7pHZU1X0FRjh1ors5Rq6M7V9aMOk7ZRvphP6ZYhTs9tsGU3BbElMn+VCJyGRkrx0yc+9pTM/9YWnn8Nt26kUY1VWrKb03rUk0Ps7bRRG9vmrgtk5SFKot9WHP3I3rElfmrrkBisIuvF4LcadSGDJ0/VNKAObK8bfQiSsjSkCZ9I41WOFGL0Dhar3dqWhbhQGELz+rjUcxHjeW7ogR6McSNei5KJH0YXKbVwxTkMXqjzidr+10tp9bZVNasI03ZdptZsIxufRxLCvfHaIPeqa2yb45Fa6GGUv41hFz8p9NBwWSMkkMvUJAwZqZG1J7G5mM01sV8wqxfCjqpLF6tWt+toFEeG1Al7sKBvH546qmOsGfbkubhGBMbCrk8DKOe7AtfaSEyk1NBLf3hcj8d92redVadwY49mege2x+2qddx/WYxwqK7ovjkYVwyPFtu4zwMs5cNhpcUcIwYhCiPFNy4WQpI7eFkL4ONRA4HF1c427MGIuOWntuPH7P7YPIzYUxWKVo+8jqWjfU0PE+hwvFvdiEz5jnM7tNct8+h0xQ8O0yChD0JuhYC8uj5WDcrCgGBwfB1NOysgrkxzuzYg8zusehvm4rr12+iOCwaXYtP4nD5ZKsiMhd12m9IdwxF9w4OgtLRuVMrKFPSUGSBleVho/BkX19ICzORnEpo6e+C++n3DEeNYOOEEUvexxMBcsA2EOPj+kLN7HOGmcBsX/JozF83C1EBgQhmCrNm7Lr4ltTeGfYyG9jI7OHi6gg6swN7Mrsjtr8tUq9fx83iMER3LcbJw5ca5sUjG2cMm70Mg/XOiUFRHki5cdPon6J5rFSlFOf2/4jsPpPxTBjThrQlHnl9GcZ6GhzYgrmaRPRcFRJ3HUBev6fwVEedFdA8fAxiQw3fh2vjhti5xuxpZezWAZO2M4HQftbi/lBIJPDqF40OWn+MWfAUOrKUYNehNyLc03D7DjtfdRzf7MpEzHOz0ae5zlroNOVZDJMkYE9CEXMNJ13MSOQOLGZY/EgbJhc2XN5ojrBRT6KvrxSFmclIpZbwd7mP9FoBosfGaQSWvP8E9MOOR1xfNYv3M4ajNeS2tSCmTPYnNytXtbGam4tzOaLnr8OsqAAEBvuiukpN+61pXUph72wPmY0NZPYucHUki31Y4j0GTw58iP3bvkcB2y45/i325w/E+FHC4wdWYkWO1LWdtRj9FRJIvPohuoMW/mMWsDnrnBq9I9yRdvuOLh5FfdRIvlMd/wa7MmPw3Ow+0IdBJ0x5dhgkCXvAwkBPjfWqNjZwGrEE7z8RwKxli8DxceirZvrTO7VV9m1u0Vooge/ocYjO349vDwtCluD49n3IHzgOozzLzNuzxnyMxbp5nxDzy+pYXVtYiNU+ZwmlmZnIdfOCtxBPVdHexb6FwxDiE4Rew1kgvPED2NVOlWdYDGgycC+rGKfXTMb48eN1P5PWpyIorA1cma+XY2P4V1Ck3FYLtamHKUTGVTNZHzgxWZ31TYXgtrUtV0sp7qZnw62VP5wMewAZfH09UJr9wLBtA7nCmy0Whk0jiI+hQca9LBSfXoPJhrmOn7QeqUFhaFN1suWIzMWucwwi6SBWr/ga3+37FK9vvIz2/WPgY4GVtXf3YeGwEPgE9cLwMU/ijR9yoKFalqmCFHI7meF3wF6hgEuhEkpmA3N92cgV8K6iMGvGrrdvMTQZ95BVfBprJhv0PX4S1qcGIayNK5tVA1HpnKwQtYXWhHPyWKmKGpmZD+Dk5Y3KIWxRGSqWzdUooueWsnFz4cbGrWmGCoza08rYrSMW285ARXu5XFekVDtfRtAIxiy9i/RsN7Tyr7QWZL7w9ShF9oN8w46qNEwubLi8ocXdfQsxLMQHQb2GY8yTb+CHHA1MpiypHJXD2kOhcEGhUmnYriG3JX5msj9zctUYy1yc28ih8Db1Mqlpv7U8p1rhwxIFRj75COjgVhxUFiNx+wEUDxmPR90Nx63FaEyZoNKpmQ8zn652rgykd2oLfLQ6pXfTke3WCtXDwBcepdl4kK/XV831yhhSuR0byYC9AgqXQij1Tm2VfS21m8TrMYwbUIyDOw+jqCQR2w+UYMj4R+FugT3Nz8cCnxD1y+pYs75bgyVjW43MyQl2BXm6hFQV1aE3MGNtKaYfTsadq5dw5sMxKL+pUg2JM1ydHTFoxQlcvHjR8HMBP8W/hHBbQxsRanYpNq7U0QkORbnIqbjIFB6lMPzK3NHFpRkKmOOXGfYwU+D+gzzYeSgM2+YRH0MCZ1dnOA5agRMVc72ICz/F4yUjkxWbS+m1M7jkEoGQzF1Y+/GPsJv8DXYsCGfXggISSG3KUFYxERZAFUKocOiNGVhbOh2Hk+/g6qUz+HBM+R01Eaq8gF2am4NCF3c0Z1dt1vVlXft6+xZD4syuuh0HYcWJSn1fvPAT4l8q15U4EqkN02OlR5CW2dPwu7XwWKmKFI5ODihivlQ5RBXd1meuoufK4ORkh4I8JUvb1mBd7NZGLCYbGZkLXJoVsEK10lrQ3seDPDt4KFzZRk3PaJhcqKMh8obqEN6YsRal0w8j+c5VXDrzIcaYCngDlcOWIjenEC7uJl5MstDPjPZnpVzW5K3amPJba3RpnQ+7DZ+AWLsfsHXnXmzbX4bhcY/AzXCsKg2ZIy3HvI/W1IHMxQXNClihWi0MHiDPzgMKV4sNwajm1MgpdIF7c6mV9rXCbsKFxLjBKD24Hfu/244DZY8g7hHBEnXJSTVHqG9eq4q19YDlNEQftZD3jEYP9RHs3J+pv8LIu4ivtpxAvjIX+TIv+Pmw60RtNk4lnIfRT6CR90D/XrY4+s23SK6IylLk5RUbfjdDMwfY5T/Ag1L9pkZkXFm33ugmOYU9+zJ0shaeW4OV8frfhau83gOjQIe3YOtvekE0qTuw8aAaAx8boNu2BHNj9OjfC7ZHv8G3lZNFaV4ejM1WbC6l6WnILC6Dc8cheHzcaAzs4Iiy8jcBbf3g512IKxd/ZZpkMpx9H+/tyjLIoIEyNx8yLz/ouz2FhPNmPv6IlDjwwfs4I/z9SJuKHVuPQtK7PyLl1vZlXft6+xZD3qM/etkexTffJlcm/dI8lLtXyZl1ePHljbhs9BVYW/j5eaPwykX8qlck3n9vF7IMarYWHitVkaFb726QnNqDfRm6EXBuzUrE635n1GeuoufK0TO6B9RHdmJ/pn6svItfYcuJ8r8bmsJc7JbgzLoX8fLGy8bfphaNyUZG3hsDowiHt2yF3lwapO7YiIPqgXhsgIOuSTMHO+Q/eKCTTZhrQ+TCBssbGiVy82Xw8vOBPdNY9qkEnDcV8AxSHsAH75/R/blby+TeelSC3v0j9QdrYoGfmezPSrnE4s08pvw23wpdWrf+wHEgJj7uhu9fmYt/2zyK8YOq3LKsoGFzpOVY4KM18p2890BE0WFs2fqbfi3QMJ/ceBDqgY/BEAYWQFAe+ADv652axdFWHJX0Rv9IuZX2tS4Gmg8fj2HavVg6fw/o0XHQm8JKexqoGet16cM4dagtLKRRileJ/9N4e3k4Eqd1Q3i//ogI/ws+T2bV/OCpmOr/HZ6PjEKfbjFYlhWAds1kbMkSYP/KhD+LCR14Iu6d1Xj09lz06NgHQ4YNRK/2wYhefkp/R0Ymg9xOeLrEgA3blrPzDX9flPcaieEuezErph+ip2yAcqDpcSXef8WyRZ2Q+HwkIgf0QuSz59FnTDc42OoEQcuJ7+CfQ29gXmQYogdFI6znPKSM/Qjvx3npxhJkttMJbRpzY3jGvYPVj97G3B4d0WfIMAzs1R7B0ctxquL2UyUOIjp06DkUfTW/4PT5szh+aB++fvcp9Og0Cut+YQ5oG4a/zRqB7PcGI7xPJHrPuIro0V0MMjhg8NSp8P/ueURG9UG3mGXICmiHZkzPJrFxRIDDIUzu3hP9evTG7KRovPl6HLuqNNNXTdtZOXbdfMsGtmyeMluZ7q9PEs84vLP6Udye2wMd+wzBsIG90D44Gst1Ctci9+wOrN98FMkmitewv83CiOz3MDi8DyJ7z8DV6NHo4mBrmBMbU26n92MdNmxbzqZtazTYeKxURQLvvy7Dok6JbPxIDOgViWfP98GYbg7MfsJhM3OthaV6ksD/6bexPDwR07qFo1//CIT/5XMkS4Q/kQl9mLKnmdjV5uLsjvXYfDTZRPEqFpMMM7arRc32UkF2ts/W8DfWqudLWmLiO//E0BvzEBkWjUHRYeg5LwVjP3ofccLnybEFrNfI4XDZOwsx/aIxZUMGvBogFzZY3nAYjKlT/fEd88WoPt0QsywLAe2aCc2MYuMYAIdDk9G9Zz/06D0bSdFv4vU4T92xWnJb4Gcm+zMjV82xxPI5a10jl9TElN86i+vShuUqlgttZbpsaNX6IzwiETXxCfhnpMNp5F/R32iB15A5smZbKWsn7LPV5fLq55rPQTXzXYbXRLzzz6G4MS8SYdGDEB3WE/NSxuKj9+N0H6soGK76emUMGzgGOODQ5O7o2a8Hes9OQvSbryPOU2Klfa1ch12H4clRTrh12wljnhzAzhYwY0+j86kd6x6iPlFT7tro8o6uQR1qC0sxvLjVKDxMv0wnjp6gy/fK3zlklD2gX04do9M3c2u8oWgETQGlXDpOR46eoit3C823r4JGeZvOHEmkS3cNr+OJjquh/N/OU+KJy3RP90pcTdSkvMOOHzlBP6cb+rMac2NoqCDlEh0/cpROXblLhWKTNToXFR2dFUItn/yWlIY9VHaGFoQ60JC15W+Daqgw5SIdP3GFMoW3HWtQ9uAXOnXsNN3MNaNp4W1D3VvcRVSQbJhTFRMLWNyXAWvb19u3GJqCFLp0/AgdPXWF7pYrXJNGn47ype5LT1e8KWsMTWEKXTx+gq4YU2Qd4LFSBU0+/XY+kU5cvqd/Q7Um9Zir+LkPKf3yCTpqxJ/FMR67mrRPaZRvd1p6WtSTRGOy0VEr6Q7T9ZETP1Ntc2lIefsMHUm8ROWuUS/7NnjeKKMHv5yiY6dvklhz4Q3rVh4TaGdRASUb/Moi85rwFfP9WSZXBVbmrdoY91vrdGn5+qP5bQ0Ncgmh2RUf8Wachs6RliPuo7XyHUOtvEPnE4/QiZ/TyTqvrnyzvqggmfVRI4cLWGlfa9dC41hRT+gwFuvW9mGahplTdWyE/xnqWE6TphRnFkRg8L/D8cabU9HTU4u0o//CwnfS8XTCEcwPE792tArVQUwPnoTiNan4arS9Yeefg9LTC9F3phRrDr2GXhb/2YjDqUkpTi/si5nSNTj0Wi/DXZH/cf5LeUN1cDqCJxVjTepXaIhhG7q/poUGv7wVje4b++D7S++it+EDOf53UeHg9GBMKl6D1K9G13pxjtN4mPj7E6fpIUfPJdvx5UQnHFv3CubNfwNfXm2Lf+yLx7yGLFwFpAp0iIpGqPefz33k4YuQcJQXrpz6Ikf4ogQc5YVrJf+lvCFVdEBUdCgaatiG7q9Joc3B1UwXPP7CJPT4ny9cBaRQdIhCdKg3L6Z+Z/idVw6Hw+FwOBxOk4FfLHA4HA6Hw+Fwmgy8eOVwOBwOh8PhNBl48crhcDgcDofDaTLw4pXD4XA4HA6H02RonOK19CSWD47BwsNGP+XYIkpPLsfgmIWoRxccDofD4XA4nD8ZjVO8Uh7Srl9DiuXfc1cLykvD9WspVnxVHofD4XA4HA7nz87v+tiAujAbWcoS49/dXVqA+/cLDN+tWx1NcS6yC4x+waLQKbKzlCj5Xb4QnMPhcDgcDofz3+T3KV7zzmDN+M5o3a4H+oS2RkC/l7A7VaM/pr2PhNdHoJ1/e/Tu3QH+QYPx5knDswLaBzi85BF06RyBTn4+6DHr37hXUaTm4cya8ejcuh169AlF64B+eGl3Kgy9cjgcDofD4XD+hPwOxWsxjrwyGSuUU/CfG7dxI/knvNnyWzy/IB657GjBwYV4enUpnj90CzdvpuDa9ufR2dlGdybln8YZ25fx4/XbuLX/KZR8sgwfJenvwBYfeQWTVygx5T83cPtGMn56syW+fX4B4oVOORwOh8PhcDh/Shq/eFWdwY49mege2x+2qddx/WYxwqK7ovjkYVxSqZC46wDy+j2FpzoK3wosQfPwMYgN1X/vnI1bLOYuGwwvKeAYMQhRHim4cVN4sECFMzv2ILN7LPrbpuL69ZsoDotG1+KTOHyJv+HF4XA4HA6H82el8YtXTQbuZRXj9JrJGD9+vO5n0vpUBIW1gau0FJmZuXDz8oZQuhpDfw9WQA65rRZq3XMBGmTcy0Lx6TWYbOhz/KT1SA0KQxtXVulyOBwOh8PhcP6UNH7xKnGGq7MjBq04gYsXLxp+LuCn+JcQbiuDk5MdCvKUVj6rKoGzqzMcB63AiYo+L+LCT/F4KdzW0IbD4XA4HA6H82ej8YtXeQ/072WLo998i+SKCrUUeXnF7F85ekb3gPrITuzP1L+JlXfxK2w5UaT73TRy9OjfC7ZHv8G3lZ2iNC8PQq/a1D14bcYy7LzDX9/icDgcDofD+TPRSMWrDDKZ8Gd+9qvEE3HvrMajt+eiR8c+GDJsIHq1D0b08lNQseH9n34by8MTMa1bOPr1j0D4Xz5HskTKumB92MlRcR/VRga5nO2zFUSWwDPuHax+9Dbm9uiIPkOGYWCv9giOXo5TKkCddhxbN32No8kmPl6Lw+FwOBwOh9MksSGG4ffGRVuI1MtJuJMnhUdQKNr7OFapnEtw78oF3Mx3QdvwTvA29QBsLbQoTL2MpDt5kHoEIbS9Dxwb/14yh8PhcDgcDue/xO9XvHI4HA6Hw+FwOPWE36fkcDgcDofD4TQZePHK4XA4HA6Hw2ky8OKVw+FwOBwOh9Nk4MUrh8PhcDgcDqfJwItXDofD4XA4HE6TgRevnCaHVlUAZSH/DF8Op85oVShQFqJmFGmK81CgMmxwOJwmiBqFyqJasf1no5GKVy3yUn5Fap7+W7MqKUT6r78hh9cdDU7pyVcxqN8iHBEWHm06Erd8hcNVvn2sKtXa1ofSk1g+OAYLD/9eq50Gv34eh/YtW6Nj+3C8+MOffZXVIj1xC746nGzl1ydbALPdq4P6YVG9naAqpTi5fDBiFh42bNeT392/TMHm9eog9Ft0BI0iSaPYwjSaXz9HXPuWaN2xPcJf/KFiTtr78ZjauTtmHrjPPI/zX6GazzdwPP2OlJ5cjsExCw1bnN8PNX5ZPQztBr+Dc/VIJ9r0RGz56nCVb0X949E4xavmOv71RDjGrbtZfdHN+RpTwodhxZlSww5OQ0HKNFy/lopc4VN7ixKxds4cfHhMqT9Yg2pt6wPlIe36NaTUuyMLUV/AxlX70GrZBaSlXcKqgXaGA8YoxemVEzBt/dUmfAVahMS1czDnw2Mwbsl6QEqd7VIb1HaEvLTruJaSa9iuJw3oX6WnV2LCtPW4WidnICiFeaXmst8agUaxhSnUuLBxFfa1WoYLaWm4tGog9FFUgITlS3Fx5EdY+biC/0nuv0U1n2/gePodoTxhjUkxbFlO/eL0D0TpaaycMA3rf+eJaFO+xIK1Nnhpw0JEii2PVTEia1HiWsyZ8yFMlBB/CBotR+nTcI1kbNis/bUIGhTnZqPAiJ21JUpkZeaguN5XAGoUZmdBWVKfewrm+jA9D6GYKrh/HwVG6nZ1YTaylCUm73ZoinORbbRTLUrYeHk1+3Qehy0ZWdg+sYVhh4CJtgYaTM/aEiizMpFjaUelBbh/v4BppypMVmUWMnOKq1/8qDORke0E/wAv5rjsv3LvVRciO0uJ6mZRI/XcdziUlFn7rqXR9pUI+s4tLj9oQhaTNKSPOGPclgxkbZ+IqpY0Jz+bAHKzC5gktdGWMF8y5QQMc75YSV3jyXgcWON/dYkXdeo5fHcoCZk1+hcdl/lybnZeDd+sglYFpYmY1iHYIbfYpJwNZwtrdKpGZkY2nPwD4MXiR1IeRFotfMauxdblA9Bcv6f+iPipuvA+skzMXZDblF7EdSLEVi4qQ9fSXGRFjOt8oma+sgJzsWsRIrFn8Dmz8zCGpbJZm+MNWBLjpuJUdM46NCjKqWJ7RmleNpQqE+2FOZiKbavWBxPzUqfi3HeHkFR7IuapkTcs0Vs5JOuMFzZtxIwwU5Wr4Os16gAjsjqP24KMrO2oVkIIaIqQUy2nlSIvW4naarZ23awDwjdsNTjqq/R6Twfq9eYvpDbs0vHgE3rEIYTmJKrYhoqOL+lPI5aup1dGdqa2Ad7kquhOM3enk0ZoW3KCVgwNIS9PfwoJ9iY3RThN3XK7en8Gcr+dQmFRC+nIQ8MOKqHjS2Oo2wt7qZBtKU+vpnFhPuQTEEy+rL+YOfGUwjpSJS6iXq1bUatW+h+/9s/S7iJ9DzUx1YfZebD/Zx16jWJDvMgnKIh8vQJp0IoTTEKG8jStHhdGPj4BFOzrSf4xcyhe3ympji+h/iOW0vpXRlLntgHk7aqg7jN3U7q+U9JkHKCFA/zI3bsN+bWOpCnPPUJeikm0S9CB6jgtie5JL/+oG0W8rRV6rkXJAZrWyoMm7NR1RCdWDKUQLzaPkGDydlNQ+NQtdNtUR5osOvRaLGvvQ0FBvuQVOIhWnChh4qygoUxXnv4hFOztRorwqbRF6CR7C00OVpCTVEpOilbUutciSlQp6fTqcRTm40MBwb7snBiaE59Cak0GfREXRB6OUpI5e1ErvyAav0Gwh4n2gjyCzvrH0uJVMyjcVUKy0AWUeNSELCZoeB8Rzoumni//qPcXs/KPoKXrX6GRndtSgLcrKbrPpN2VDkMHFg4gP3dvauPXmiKnPEePeCloks4JGCK+WBPT8yyhA9NakceEnbp21TExRzH/q+ZfjDrFi4YyvoijIA9HksqcyauVHwWN30DpxWJ+z845sJAG+LmTdxs/ah05hZ57xIsUk3aRXpJ8+mndZOru60X+bduQZ4sAGvhyPCXrTtbbOnbxKpoR7koSWSgtOFOmO6uCBrOFtTrNpi2Tg0nhJCWpk4Jate5Fi1guNm3PKih30LSwKFp42CAjQ3ViGfWL+Dvtq5UzRfxUfYM2Pd2FvD1bU7CfNwXFbaQU5qKqRGa/0a/QJwuHU6fAQPJ1c6dOEz+jq8JSIWDO9rGLadWMcHKVyCh0QaLFuchkvqkF84mDgk+0YD7hT216TqG35z9OvecaYrMkgeZF9qXFx8oFVlHi4r4UOe+Q+ditSo2cWjOeTNtKSSfeHkkhLVtRoL83efmwNY3lvTGfJJOmoWRjrS3W64Fp1MpjgmHDkjXGRJwy3zCfVz+hpSNYXvX3ILegMbTufBJ9Oa0PtQ/yIbfmYTT92xTWu9A8keXI0fTKJwtpeKdACvR1I/dOE+mzSiezan04U2h8XqUZX1BckAc5SmXk7MXqiqDxtIFNpCRhHkX2XUyVZkikxX0jad4hwQpG8kbiUQv0ZiD/J1o3uTvLAf7Uto0ntQgYSC/HJxvaMnuzvke/8gktHN6JAgN9yc29E0387Co9NCGrEFPRPV8mXQlRvrZ8spRGsLXF38ONgsaso/NJX9K0Pu0pyMeNmodNp2+FQGZYHlP1479YvAqB6Ut2Hn1p/vcZrF0hHZ8bSs26LqULQq5XJdHuzccoTRddKrqyIoocO8ylk+WGr4Im5V80xMWfph80ZNGSQ/RCkDs9tiGTNEWHaVY7Lxq66jIJR9Upm2m8nw9N2J7DtlRUqMyl3Nw02j0tmDyG/otuGtOxaB9m5pG/j6a29qAhq67oFj5NznnasfdnNnIRHZ7VjryGrqLL+k5p83g/8pmwnXS9suD3tfOgvvO/pwwmU+HxuRTarCst1XVaSAefbUNuMW9REutUnX6AZkc4kbRFeUFaNQGaaWuFnmtRbRwVJe3eTMf0HZHqygqKcuxAc010lL9vKrX2GEKrrgjnaijn/A7a+7OKibObNh9L0ydV1RVaEeVIHeaeZBtqepi1jSZ6e9PEbZmkLGQaPDyL2nkNpVV6BVLK5vHk5zOBBLOoH2bSprHu1Gb6XspS5tNDpkOx9rq5+NpTM/9YWnn8Nt26kUY5JmUxQqP4SOXiJew3L78defSdT9/rHYbmhjajrksvkM5jDj5Lbdxi6C29E9CB2RHsQqCFoWAS98VqmJ2nieLV1BzF/K+af9UjXtQPKXPTWHJvM532ZikpX3AGsXELD9Kzbdwo5q0kJqua0g/MpghW8LUwFK9FCS9SiFtPVvjl6BbFosuraZjCg0ZvvMe29La2b+ZPsSuP0+1bNyhNuIKuQoPZog46VT/Mom0Tvcl74jbKVBaSStSeVdDcpY8ecSXfKfobAsI8E14IIvdRGyhDv2ZVIOanqiMzqa3nGNqUqdMcJd9I1o2rs5+sGXWcso1uMznLbn1MsQohhws6tcD29s3IP3YlHb99i26k5Vici0znmxqY8Ql6GE+TvXxpyj7dFqOE9k/1rbjgEY3dqlTz+RrxJGIr9Y33KJr55LLz7IjmAe1+JpBaTd5OD4TgbyjZrMjx1YpXS9cYY3FqUV6NpkUJWaTRpNPG0QpyahFKceuvsPYldGFZBDmELaSzgh50OVJGzTpOoW16J6OPYxXk/tgGusfc0dr1odDkvNhalbmJxrq3oel7s0iZL3iMYIbJ5OU7hSrNsJ+m+pZftBrJGzkW6o3NNOHFEHLruYgSc/RxdXn1MFJ4jKaNwsQMfcuadaQp226znsro1sexpHB/jDbcKzUqa7n99G5oWFuiF1FCloY06RtptMKJWoTG0forTFclF2hZhAOFLTyrW2ssjql68l9+tMkGzsNmY9lgL0jhiIhBUfBIuYGbwi1teRhGPdkXvtJCZCanglr6w+V+Ou4ZuZUv8R2NcdH52P/tYRSx7ZLj27EvfyDGjfJE2Zkd2JPZHbH9bZF6/TpuFochumsxTh6+BBXkcHR1g/31dXhlpyfmvDcVQVJ9n1VRifYhYHoeqsRdOJDXD0891RH2rKWkeTjGxIZCrjqDHXsy0T22P2xTr+P6zWKERXdF8cnDuGR40NrGeRhmLxsMLyaTY8QgRHmk4IbQaek57P8xG30mP4Mw1qm05SN4fdlYeBqzprm2VuhZHDnCRj2Jvr5SFGYmI5Vawt/lPtKNdqRC4q4DyOv3FJ7qqNMKmoePQWyonIkzCk/29YW0MBPJqYSW/i64n36PtZHC3tkeMhsbyOxd4OpIOLNjDzK7x6K/bSquX7+J4rBodC0+icNMgVJ7J9jLbCCRO8DF1Rn2UpVoez1yRM9fh1lRAQgM9kVzk7LUplF8RHdeORbIb+OMYbOXYbDeYTAoygMpN26ilP13bv+PyO4zGc/onQCPvL4MY8udwAJfLMf8PI1jco6W+l994kVqDyd7GWwkcji4uMLZnjUQGbf03H78mN0Hk58JY7JK0fKR17FsrKfhGSsVjn+zC5kxz2F2n+a6fQ6dpuDZYRIk7EnQtRCQR8/HullRCAgMhq+jYaeOBrRFHXQqtWexwOLCRmbP4sIRZKk9Jd4Y8+RAPNy/Dd8XsO2S4/h2fz4Gjh+le/ygEnE/lbi4weXhVfx44DKUWgf4B/vDwXCmjdMILHn/CQQwx7cNHI+4vmomxxnLdCKPxvx1sxAVEIhg3+YW5yLT+aY64j5hDktyj3nEYq8o7TekO4aiewemTUlzdO7UCsqUNBSZFdAa2azJ8VWwNMaNxKlleXUWFvdXQCLxQr/oDtD6j8ECFhMOsEOH3hFwT7uNO0JNoWvuhBFL3scTeifD+Li+UDM/OlNq/frgaHJebK1ysmdrlQRyB7ZWsXXLSFlhlGp5o7mlufE4vtmViZjnZqNPc11GQqcpz2KYJAF7EoSKSMAGTiOW4P0nAtgsbBE4Pg591WxuZzSWySqsLbMWo79CAolXP0R30MJ/zAK2fjN/s+uA3hHuSLt9R/cYhqUxVV9sDf82MCw5sv+z4li/WY6WQMIx4WAFVTbkTK1atf4ZCe1d7Fv8DGZ/ehFlHt5wKUtHjmZolWctqsCc9rFxA/CPhTtxuGgg7LYfQMmQd/CoO6DJuIes4tNYM3k8Pi8fyiYIYf1c9UYq/RmrXvoI7LIDs8OqlwvlmO1Dh/F5lGZmItfND97C6lIVTQbuZRXj9JrJGF/ZKYLC+sG1ivdU9soKO1st1EKn6kxkPnCCl7ez/hBDamvLEqmRp0vMtbVGz6JocXffYjwz+1NcLPOAt0sZ0nM0GGq0o1JkZubCzc9bt+hWRXt3HxY/MxufXiyDh7cLytJzoDHaiQYZ97JQfHoNJo//vEJPNkFh6KdTYE1dmGsvbMih8K58WcVyWRrJR6phgfwC1YawhVbvMEzfD+Dk5Y0KL5DawpZNVKclC31RwLJ51sbkHC31v/rEizFExlUzWR84eaEyZKSwrVBWKe6mZzPf9YeT7piADL6+Hig988CwbQO5whsszxuh4WxRb50yLLenBIqRT+KReTOw9aASQ5tvx4HiIXhHSLLVEPdT264v4eP30jBjQW8EvDkQz7+9BsseC9A3ksphJ9P/CpYZFAoXViQpWZfFZnViI1fAu0LhluciS2Nc3CfMYWHsmkHMVg6dYxBJs7B6xdeQRRbg242X0X7MKvgY9cGqWCObNTm+CvVYY6zNq3I5K36rFhgsz8pIU2UsKeSVTgZ7hQIurMhSajQoNqeHGutDfeZlnBp5w9L+S+8iPdsNfv6VGQkyX/h6lOLMg3y24aHbJZXbsUxlwF4BhQsripUWObCeCrWy3CpcAFdTswyk0UtmzbpZH8y6dp2wcUNzV+Aeu1ooM+wSUKek4h65Q+FhPmBVh97AjLWlmH44GXeuXsKZD8cYv7OoQ0is4zC49CC27/8O2w+U4ZG4R+AmHHFmV3COg7DixEVcvGj4ufAT4l8KZ5W7BjfXv4x/3o/Du//oVauQKke8D3FkTk6wK8hjwWHYUY7EmV3lOGLQihOVfV68gJ/iX0K4uU6ljnByKEJuTuWVca0LhXLMtLVOzyKoDuGNGWtROv0wku9cxaUzH2KMyY5kcHKyQ0GeskbuV+HQGzOwtnQ6DiffwdVLZ/DhGFN3NyRwdnWG46AVOFGhv4u48FM8XtIpsOZZ5trXxBpZGslHqmGt/FWRwtHJAUW5OYa7FQzhkSHDr9b4Yl3naWqOFvtffeKFUbNLsXGljk5wKMpFZcgIj1cZfmW+6+LSDAXZD6rkNi3uP8iDnYfCsC1Gw9mi3jplWGVPt+GYEGuHH7buxN5t+1E2PA6PCEm2Gub81BkR0z/FqdtXsC2uGJ8+9Xdsyqhc2CozUynLWYVwcW9uve0tzkWWx7jgE47MJ3IrjF7VJwQkkNqUoazKcW1Fg/rEbiVittJeO4NLLhEIydyFtR//CLvJ32DHgnIbNpBsVuX4SqzyR8O/5dQnr5qkit1KWRwWurijudR6G4nOy9j8JFLYMCNUmkFbw4eqY7HeZC5waVaA7AeVGQna+3iQZwcPBSvEKqg2ceQUusC9OavFTNiibli3btaHxuiT9arAgKERyNn6CpYfTEEJ26W5z66eln6OW2GxeDTQfPGqUeYiX+YFPx9WUmqzcSrhvPhHOzUfjvHDtNi7dD720KMYN0h/FSLv0R+9bI/im2+rfFZmaR7yioUrhC34x4rrGP7mMgysauMaiPVhDnnPaPRQH8HO/Zn6K6a8i/hqywkUyXugfy9bHP3m2yqfpVaKPEs6lXVD724SnNqzD7q8X3gOa1bG63+viZm24nouwZl1L+JldhVv9OX4qmiUyM2XwcvPh10EaJF9KgHnTRpMjp7RPaA+shP7M/WC5F38CltO5EOZmw+Zlx/04pxCwnlTH08kR4/+vWB79Bt8W+XD6Erz8lCuwWYOdsh/8ED3pwxL2ldHY4UsjeQjuqPlWCt/VWTo1rsbJKf2YJ/eCXBuzUrElzuBFb5Y13mammO+pXFen3gRaOYAu/wHeKB3BlG/l3XrjW6SU9izL0Mna+G5NVgZr/9dsEPvgVGgw1uw9Te9IJrUHdh4UI2Bjw3QbYvTgLaor04Z1tnTEQMnPg6371/B3H/b4NHxg6rcfS5H3E9Lfj2Li/eZtPZtMDBuENqUFSBfWCAYpDyAD94/A+GpBC3T6dajEvTuH2mVTnRoLM1Flse44BPhgk/sNeYTDFs/+HkX4srFX3X5pvDs+3hvV1aFz9Q9disRs1Vpehoyi8vg3HEIHh83GgM7OKKs/I34hpLNYr1Wx6q1vEac1ievGoWUOPDB+zijdzLs2HoUkt79ESm33kbi82oGB7t8PCifCMPWzw/ehVdw8VedFXD2/fewK6vCg2phsd7kvTEwinB4y1boU5IGqTs24qB6IB4bUP5QDkF54AO8r584O74VRyW90T9S+GtzbVnrjnhMaVP34LUZy7DzTqWO60rjFK+Qov3fP8IHo4vx0chAuAlXT7598frdIVjz+UsIM1zIyGRy2Mkrr2ps2LZcJtP9Cc1h8FRM9f8Oz0dGoU+3GCzLCkC7ZrLK2961cMWwJ0fB6dZtOI15EuU2k3jG4Z3Vj+L23B7o2GcIhg3shfbB0Vh+SoWiI/H4PjMDu6a2g4e7O1p4xeCNpNplmlgfAmLzkPg/jbeXhyNxWjeE9+uPiPC/4PNkdiUs8UTcO6vx6O256NGxD4YMG4he7YMRvfyU/o4MO19uJzydYsCGbcvZ/HWdeuOvyxahU+LziIwcgF6Rz+J8nzHo5mBraM/aye2gE8lMW1E9a3Nxdsd6bD6abKJ4Ze2Eueo7wtSp/vju+UhE9emGmGVZCGjXTJiGESTwf/ptLA9PxLRu4ejXPwLhf/kcyRJnDJ46Ff7fMVmj+qBbzDJkBbRDs/JObJjMtkyvMuHvFRJ4xr2D1Y/extweHdFnyDAM7NUewdHLoTeLHL1GDofL3lmI6ReNKRsy4CHavorOdDiIy1KDRvER1q7yPHPzrSm/DduWs/OFR0Qk8P7rMizqlMjsHIkBvSLx7Pk+GNPNgemTNTXni1UwP0/BTyvnWY6pOTqLxnkV/6pPvDDkvUZiuMtezIrph+gpG6AcaHpcifdfsWxRJyQyX44c0AuRz55HnzHd4KBXFlpOfAf/HHoD8yLDED0oGmE95yFl7Ed4P85LN1ZNW1enAW1RJ53asHFsmV5kur8CmrNnTeyjJuIJ/wykO43EX/uXL4xVEffTh798hriuHRA1aAC6D14N1VNzEOevt5GNYwAcDk1G95790KP3bCRFv4nX4zzN66Sm7S3ORZbHuM4nFnbE0ecMPjHtFLzD3NlsDdiG4W+zRiD7vcEI7xOJ3jOuInp0lwqfEY/dqlTxeWGrSjyJ2cqh51D01fyC0+fP4vihffj63afQo9MorPuFFQkNJZs1OZ7tFPKPgDVrec04zfCwLq9KhXHZPlvDn7Sr5ln9DkcEOBzC5O490a9Hb8xOisabr8fBU2JtfjUzL3kvjBzugr2zYtAvego2pGuZGf6GWSOy8d7gcPSJ7I0ZV6Mxuosh7hk152Kx3iQtMfGdf2LojXmIDIvGoOgw9JyXgrEfvY+4igfSbeAY4IBDk7ujZ78e6D07CdFvvo444VauEVkF+1XGVM25S9lhYZ+t4UmCqmuNeEyp045j66avcTTZ7O0ws9gIb20Zfm8EtChKv4qkm7mQeLRFWEdvNjUrUGfj+rlryPMIRfcgt8pEUQe0ham4nHQHeVIPBIW2h4+j9b3Vp4+Se1dw4WY+XNqGo1PVh9S0hUi9nIQ7eVJ4BIWivY+jxfPUFiTjUlI65EHdWJ/in0gs2taEnrV3P8PoyI/QdecxvNqziswmUSP7+jlcy/NAaPcguJmdSAnuXbmAm/kuaBveqeLZPXX2dZy7lgeP0O4IMtuJFoWpl5F0Jw9SjyCEtvdBpVm0yLtzDpfS7RAc3hk+OucTa18b62RhvTeGj1TDOvmroS1A8qUkpMuD0K2Tt+HD6atghS/WdZ5G52hNnNcnXvLu4NyldNgFh6Oz4Ayi42pRkHwJSelyBHVjvllLWRrk/ZaEyyklcG3bBaEtrcpsrPuGs0W9dcqw2J7aZHwwtDM+7LwPP/+zL7tENIVpPy3N/hUXr2ZC4huG8EA33UWa6uB0BE8qxprkjxBx/RLuMr2EM71UiwKrbG95LrI8xplP/HZBn08ignHhhWD8TfUhUr583CAnW+9Sf8alNBk73hGetZRTj9itQm1bqXFsdhjGZ72Ba5vHQvdHRPVZLAzvj5+ev42Dzwmfi91Qslmb4w1Y4Y+14lTYV4+8WoHqIKYHT0LxmmR8FHEdl+6y2K6y7uix0kZi89Lm4c65S0i3C0Z4Zx997aMtQurPl5AmC0ZER0+R+DFgTRxr8vBb0mWklLiibZdQVKYkFQ5OD8ak4jVI/igC1y/dZXVAzTrEiKz1wNp1sy40cvHKabqU4vTCvpgpXYNDr/WqtzNzOJymj+aXtxDdfSP6fH8J7/Y2u/RaTEXxmvoVRlcrJv6oqHBgWlCN4vW/RSnOLIjA4H+H4403p6KnpxZpR/+Fhe+k4+mEI5hf/qfO/3UqitdUfNU0nKyBqCxeU78a/V/21YajcUpizp8AOcIXJeAoL1w5HI4OLXKuZsLl8RcwqUfDFa4CUkUHREWHwrvJrEhSeHbog+hO3n+ARVSOnku248uJTji27hXMm/8GvrzaFv/YF495vHCtRKpAh6hohDYdJ2sgpFB0iEJ06B/BVxsOfueVw+FwOBwOh9Nk4HdeORwOh8PhcDhNBl68cjgcDofD4XCaDLx45XA4KC1Uoqj+n17SKKjrLVspCgtKYPoTFS1DqyqAsrCmIBoU5xXU+hgrTj0pLURBSX0t1rCUFjA/rP/HU3I4nAag0YrX4nu/ICnpEvv5GdduZ/KgbxC0SE/cgq8OV/nA5iaMNj0RW746XOWDx5safzR7lOLk8sGIWXjYsG0Z6mv/xCPthmHlxbp8SHXlmI1RwKl/WY1h7QbjnXN17V2LzE1/RYdRa3G7zkbS4NfP49C+ZWt0bB+OF38ol0WL+/FT0bn7TBwQPnj/fx1tOhK3fIXDDRDQufHT0Wnwu7hmoqvSk8sxOGahYavxKb3wGvq1fwxrrzbEFd4fKG+UnsTywTFYePi/e/nVFNcCszKbiYfSk69iUL9FOFJv1bMc/Oog9Ft05H/qIrpxilfNbawd1xV9Rz2D556bjkkjI+Dv0xmjl/0bvzXElzhYTSlOr5yAaeuvmv+mqAak9PRKTJi2HnXOd6WnsXLCNKyv6KAIiWvnYM6Hx6A07GnKFCWuxZw5H+JYk53MH80ehLy067iWkmvYtgBtMjYu+Biyf2zA/O51eYO8csw6vflZy8eroE3BlwvWwualDVgYKf45xibR/IqNHyei68QnYcEX+xlHfQEbV+1Dq2UXkJZ2CasGGmQpSMDypRcx8qOVeLziC8n/hylKxNo5c/BhAwR089hJeOTu5/jkhPHlmPLScP1aimGrkWE+9PE/voLXq59jToO8vf8HyhuUh7Tr15BiwTdlNSbV14L/znptLWZlNhMPpBR8ONX0t41ZDEEp5ODUOubgJkojZVwtNBop2j61AUeOn8RPV1Jwc///wXbTBAx/+QcrA1aD4txclH/THbQlUGZlIqfY9CWapjgX2QVV3V6N1HPf4VBSZu0rXXUhsrOUsPQvVOrCbGQpjf0JUo3C+1nIq1Kcq1PP4btDScisPSgKs7OgNDeoOhXnvjuEpIoOnDFuSwaytk9EC8MePWb60xQhJ7e4isylyMtWQmVqeEHH2XmslRG0Kijv30dBHS5C1IX3kVVFQc7jtiAjazsmVp9MJcw297OMyWGh/gxoS5TIrmqYqmiKkVtNN8KwltrYhD3M6kjw6WxUc1EDgqxZmTkQcW89FsRBOUI85Jps54S+y/Zj2wsdTXxgtmlZa6NFiTLHxLy1UCnv437Ng7V8vAokQ+cXNmHjjLDaH+Kvw7xsmuvbsf1KOEbE1vh+7dIC3L9fUMO3BPmzkJlTXD1PqDORke0E/wDhw97Zf4aOtFofjF27FcsHNNfvEEGrUhoZzzilBUb0ZEq2Koj6ue787Gr5yWKM6opRc7/zOGzJyML2WgEtZicTfuHYDyMHFGHvtyctvptkcezo0KAop8q6wijNy4bSSFLUlkgRPm8rPn4qSPeFCtVgcZibbZldKzGVx5lUtdYuAxbHe+11qBxrfNCqPG9mDdUU5bD8U03RyFaqmOUrqb4WNNx6LYqQ+5ntLEtttddEszIbjQcWhywWTMehiXgwhs73TKzTAlboyvSaJ1CjBtNhZJ85nzGy1tYL4aOyGhz1DXqrtwN1W3aJygy7BHJ2TiIflyH0rxQNUUkCzYvsS4uPqQxHVZS4uC9FzjtEJcLW8SXUP3YxrZoRTq4SGYUuSKQTK4ZSiJcn+YcEk7ebgsKnbqHbasPZQvsRS2n9KyOpc9sA8nZVUPeZuym9LIO+iAsiD0cpyZy9qJVfEI3fkE4aUtLp1eMozMeHAoJ9ydM/hubEp5Chu9ooT9PqcWHk4xNAwb5Mhpg5FJ+ib62+sYme7uJNnq2Dyc87iOI2/kYZX8RRkIcjSWXO5NXKj4LGb6B0Nm3l6dU0LsyHfAKCydfTn2LmxJOhm2poMr6guCAPcpTKyNmrFfkFjacN6Q/p+JJo6vnyjzodCZjsT3WclvQfQUs/WUojOrclfw83Chqzjs4nfUnT+rSnIB83ah42nb4VbCGgSmTtR9Mrnyyk4Z0CKdDXjdw7TaTPrpbbJ59+WjeZuvt6kX/bNuTZIoAGvhxPySYVVgXmD5ue7kLenq0p2M+bguI2kjCsYLPoni/Tj+WTqUBNNzY9TV28Pal1sB95B8XRRoOclupPlcj8YfQr9MnC4dQpMJB83dyp08TPSD8dFdNjf4pdvIpmhLuSRBZKC84wT7XKximGfqraQ0xH+jFHLF1Pr4zsTG0DvMlV0Z1m7hZ8kVFyglYMDSEvNqeQYG9yU4TT1C23jfhjiUgclNCBaa3IY8JOXUtSnqC3R4ZQy1aB5O/tRT6tBD8aQ58ka1j4zaPIvoupMvwSaXHfSJp3SBd94rJWQz9mi+Gz6B+PdKLAQB9ya9GZnt74C+tFT/5P62hyd1/y8m9LbTxbUMDAlymeKcW4jwsj1EOP1dBQ2oeDyKnrUrpQnog0WXTotVimPx8KCmIyBQ6iFSdKmPpX0NAQL5YHQijY240U4VNpi6DU7C00OVhBTlIpOSlaUeteiyhRZUXuyP+J1k3uTr5e/tS2jSe1CBhIL8cnG22ryTpEr8UyH/AJoiA298BBK4iJZlo2hjk/T2S6Gv3KJ7RwuGAbX3Jz70QTP7uqt42ZHGxKVyb3Czknuie9rAto83Yy5RflZK1/lFxCF5AQmjUpOTCNWnlMMGxYGjvlMn1CS0cwmfw9yI3Fw7rzSfTltD7UPoj5bvMwmv5tigUxqaGMgwtpgF8L8m7jT216TqG35z9Ovefqc4H5+KrMGybXLr0QouteVYznKIaYD5YcoGmtPGjCzoe6puKxVxPTcVA+p0+WjmBz8icPtyAas+48JX05jfq0DyIft+YUNv1b3TogULEWFNd3vS6hhHmR1HfxMb2PM1SJi6lv5DzSq96wLq5/hUaydTHA25UU3WfSbr2yq2NmTTQrc7V4YB6TcYAWDvAjd+825Nc6kqY89wh5KSbRLoPqzcVDJcz3Dgi+5858z49aR06h5x7xIsWkXaTvyor8JLLm6WxYrQY7Y3SfuM/oY67WWtsA/K7FK+V+QY85edAkwVoP42myly9N2VceNCW0f6pvhQGE5ORr34z8Y1fS8du36EZaDiXt3kzH0vSOoLqygqIcO9Dck3pH0rW386C+87+nDKa0wuNzKbRZV1rKVi31w0zaNNad2kzfS1nKfHrIjhcdnkXtvIbSqstF7Gw1pWweT34+E2h7jq67GhTR4VntyGvoKtI3T6HN4/3IZ8J2ymHGOTKzLXmO2USZgv8XJdONZNZI/ZAyN40l9zbTaW+WkvL1g9Ksdl40dNVl1qPQzWYa7+dDE4wOqqaHmZtorHsbmr43i5T5D9meyuJEpzWx/oSk5GtHHtGLKCFLQ5r0jTRa4UQtQuNo/RXWuuQCLYtwoLCFZ/U20rWXUbOOU2jbbabTslv0cayC3B/bQPfYvIoSXqQQt560KDFHl9iLLq+mYQoPGr3xnnC2KKojM6mt5xjapFcQJd9I1slbvgBV5M1yVEdoZltPGrMpUz9W8g0SVGqN/nT+IGtGHadsI/10PqZYhTs9tkGQV9CjL9k386fYlcfp9q0blFZYBxvXsIe4jvRj2nn0pfnfZzBbFtLxuaHUrLywUiXR7s3HSO/eKrqyIoocO8wlg3tXQSUSB5XyCP5z471ocuu5jM4zUTUPdtMzga1o8vYHOns/jJ9MXr5TqDL89tNUX4U+Ns3JWg19W6l9R5q+4zcmnYquf/gItXAfTRszmBaKEujFEDfquSiRcvRKodXDFOQxeiPzK2M+Xk89VoO1ZTnFdcxmll715O+bSq09htCqK8I8NZRzfgft/ZlJnbSbNh9LY2cwVFdoRZQjdZh7km0wGbO20URvb5q4LZOUhSorckcRJbwYwmzACl795Ony6mGk8GC6EYKqGvm0b2pr8hiyivSi5dD5HXuJiSYiG5uhBX4ua9aRpmy7zSxTRrc+jiWF+2O0QRjfTA42pStT+3U5pKIQMmMnUb9g2wzV0VnU1imWPsvWb1elPHfosDh2ymWKpkUJWaTRpNPG0ezCpEUoxa2/wqxTQheWRZBD2EI6ay4mCw/Ss23cKOatJKYrNaUfmE0RTlJqYdCd+fiqzBtia5cwrti6V4mpHGXGB2sUr9bkebE4KJ9T9KIEytJoKH3jaFI4taDQuPWkX36WUYRDGC3UKVrfvnwtqN96/ZDiJ3uR75R9Ot0KlOyfSr7lRWL5uth3Pn2vVzbNDW1GXZdeqF6rCJhZE83JrDu/QreFdPDZNuQW8xYlCe3TD9DsCCeStjDIZUE8VGDG96zJT6bXPP38qtdghUb3WZKvq6+1bHcD8Ps+qGXvCAfbhygssvDGsTwa89fNQlRAIIJ9myNs1JPo6ytFYWYyUqkl/F3uI/1eZV82zsMwe9lgeEkBx4hBiPJIwY2bpZDaO8FeZgOJ3AEurs6wl6pwZsceZHaPRX/bVFy/fhPFYdHoWnwShy8Z+SOV6gx27MlE99j+sE29jus3ixEW3RXFJw/jkkqC/2fvXeCiqvP//xczzIDcRW6CIAjeEFQEuQoimGhqJVvKmprlpX/Zllq63tK20rbW1su6Wlm5ZrlZmvr12n9LUfGeCuQlL6mAIqDAcJUZZ+b9+5yZgWFg5swM4G33PHuQc26fz/v++ZwzZ85xcXPB3fM/Y89ZGdQOAQgJcADrFE72EtiIpHBwcYWzvZg1swU7iqMwPNkWBRcv4kptOBL71uJoZo6Rr8bEsHeyh8RGBKmDC1yd7Zt9ZWW2PRtnpE1fgGRPEUTeA5HYU42A9LmYGMrks+uJuEh33Lh6Tf+1g40TRry9DM8FSQHbLhiTMQBKpuMJhRyHv92K4qRXMCOhvebrV4dek/Bymgj7d+zXHsuDyMUNLnfP4+c9ZyFTOyAgJID/rV0iF7i53MX5n/fgrEwNh4AQcCa1zn6cOiPw9rLnoFVnDDIGKNm+J3RbufCagzXT4xHUJQR+ti3wsQGW2MgGzmkzsGiwN/OlIyJT4+GRfxksRJkw4Xhq7AD4iatRnFcA6hgAl9uFaBTeOqRm80CLEjeuF8IxLAo9maii9r3Rq5MM+TdqDL8+NwmPrM2wgcvIt7E0vTOTTopu455HkvIw9h1XQH74W2wtTsIrMxLQXmsUTHo5DaL9O7C/xliMt9KOBtzFraJyOHVw190SIUfW1j2oGDiR5QD3kkQR2kekY3gYkzr8KYwd4AdxdTHyCggdA1xwu/AW24fJyOSS2NhAYs9kdCTLa4f8ML7dWoykV2YgQas8ek16GWmi/dixv0a7Tz3yLGzdU4GBEydCK1p7RKQPBxONRzYt/HFuA6cRb2PZc0HMBrboMiYDA5RM1hOmvturx5StyKQNm2PaT/xxoT1a7OUFd3UxCovMfFVuce5wcDJNx4JkT4hE3hiY2BPqgHTMnRjKvGOHnnGRcL9xFdfM5KTi1G78XJqACS+Fg4vajkPfx6Jnm9yaYgWmxi7L891EjbImBi3KvXrMj6GcTtMXJMNTJIL3wET0VAcgfS6LbyaWXc84RLrfwFWNoQ1p9XhtDm5cnLEIg7XGRmq8B/IvXzH+9bvJMVG3XUdzmXUb6lGcwu6fS5Ew4SWEs7QRdxyK9xc9Cy9dwFiSD/Xwx54VtuKd1+j2MZiDORpZZ2tRzBiMtbpmWovOdA8GdVE+btR1gDcXNBZgI/WET8MPIdS4uWse0rr5Ijh2GNLHLsZPZSpQkxy20f3LJb3UVg2l0bqnQtGtEtQeX4kJY8ZgDPc3fi0KgsMR6GpENlURbpXU4vjKCdp92d/4tQUIDg+Eq9gWfd/8FEsTLmBuXBBCR87HdiMJyaEquoWS2uNYOUHX55jxWFsQjPBAVxaC1mNRew0GYfZgycXG4AakUglI1diAYkjtJLrP7FzD0xMu1TLIVArcLCyFW6cAOOm2ARL4+XlAUXpHt2wa275v4tOlCbgwNw5BoSMxf3ujCbMxbPvizU+XIuHCXMQFhWLk/O2awcRq+4ml0KtjD09PF1TL6u+4toHU04cVVt1iq31sqY0MHABbtVJ7j5T6JnbNS0M332DEDkvH2MU/gZ2BG7k/yLI8YMMDeifFgPauwJJ//4hdn7+P9Wd7IDnJ14qkNyGrEcRSO6atDntPeLpUQyZTQXGzEKVunRCgNwokfn7wUJTiTmVz7VptRwPuQXGPYCupn1gpUFxcDjdvn2bv91bf3IV5ad3gGxyLYeljsfinMqiaG5VhRe1Q3ERhqRs6GSoPPw8FSu9U6lboUBSjuNwN3j5NJbNANt44N+0bfkzZyrQNjWPcTxbFha0tm26rcI/5kBeLc6cevUxcDbQxLIqQkEp7LE+7yuJi3HHyho8ztyOHmInbuuG0kVSNxi5L891EjbImBi3OPQ7L8qBBJ86uzM4GOkoIBsOPSawcry3BwOW2UBufKDBMjYm6FZaiZPl9x4nld0PAQMziuz5irKmT/LFnha14xzztLoZzMC2G6yyJmSZjbRvRxs3xIUfOv/6NX1wHIDWK+/mFCGKbe6wwabdyv5hT872pVr4Pi6ethmJqJvKunUfOiVVIrz9tMUvT/URwZmdHjqlLcCQ7G9m6vzO/bMObEUZ+TSpyhquzI1KXHGnYNzv7DH7Z9iY0uztHYurnx3D13HfIqP0cE/+0QXuY5v96RM6ucHZMxZIj+j6zz/yCbW9GsNJjBDPqWd2eJTRygaK8DNUu7mgvlsDFpR2qWDA2uIsV1dt3KmDn4alb5sMZkVM/x7Gr5/BdRi0+n/gnbCjir1rOkVPx+bGrOPddBmo/n4g/bShqkb56dRQoL6uGi7uJH9e00Md6Wmcj+b7FmLZagamZebh2PgcnVqU3nJUbYHEeKHDhRA5cIruheOtqfPqzHSZ8uwVz6+NbJIYNSz59+qnRuhdFGwQOymtc4N5eDImLC9pVsQKsNwrUt++gws4Dnq5M7maitzbWGuPIfCpBTWWFTjoJnJzsUFUh00yg9Mixb/E0rFZMRWbeNZzPOYFV6aauollROyQucGlXxSYJBsrjToUdPDxddSt0SJzgZFeFimajomWy8ce5oW/KqrW+4XQxXYNN2crUeuswGxcMqqxEFasdbm7GPVGPxbljJXztih2d4FjD4ryR7Qzyp63yy5pxz1iNsiYGrco9K8dQq2iqn3V9icQ2LKb1GpCa+Ub3uUUYpE/9mKhb0YCZgBM7wsmhhuWm/uonNQoIS/KhHi72HFjs6ZtqHHtW2MrcmGcRbVmvrcOMxVsDoa7sOi6c+xWnDv0fPnlrJJ758Dri58zFU25ss60//H2qcS77Eiu3QPXJZVi6tYSpbQKVDOWVEnj7+7IzfjVKj+3HaSueMdHOwQ6Vd+5o+uLO+vonx8L24Lf4vtEz2BQVFajVfTZA2h/JsbY4+O33jZ7ppkBFBbd3HS6dzAb3mEf7wBRkpAbiXpXujLadA+wq7+COtlPWTDJibQ/i2+8bPd9PUQFNM0ZpBwe7Stypb6AJ1rdnBpJhzz+W4UQV+6wuwJZNByGKS0YMO2uOS4kHZW7EpuvanlQFW7B+rxIpTw9iS3U4seZ1vLX+rNFfbtZdOolsrYGQkpGKwHtVqKzTbTRG3SWczL7NvGyPwJQMpAbeQxU7wFp9SbYH/1h2gg2AnDpbsOmgCHHJMdqNTWmpjxswZyN+VLJyVEq84e9rz4QtxbH9p40/QsXiPFCg8EYxau85I/SJZzB6VAp6Ot5r+HWorb8/fKrPIfuSJvtwctlSbC0xmX1mIMj2rMIybeCgcNv3OCSKQ3KMFNK4FMRTJjZuuq71mYrF1fq9UKY8jUGaOy+axnjr7GiILboEd0JN/jVoz5WkiE7sD+WBH7C7WKtrRfbX2HikErLySki8/aE1/zHsP23qsTNW1A5pHFLiCZkbN0GrigoFW9ZjrzIFT2uV1yONRmJ/JQ78sBta0SqQ/fVGHKlRmZWNP8453/yjwTcFWzbhoM43/DXYlK3umVjf9CtofszHBbPptWsodA5CsDf/MGVx7lgJX7uSfnGIEB3Djp1FGntVn1qJj7dpP3O0WX6pLM13EzXKmhi0KvesHEOtpOXjtS38/X1QfS4bWtOfxLKlW9Hy0mZqTNRuboyhzE2Q9ENcPxGO7dilrUXVp7Dy4226umRZPtTDxV4/LvZ2GYs9a+oT35hnKVbWa2bDHe9Nw6Ifrmn1bAX3Z/JqYwdnJxEu/ONp9A7vi7hhk/HxETeM+1cmtk8PY+oybMPxwvQRKF06GBEJMYibdh6Jo/rAwVY35ZdIILXj7tLS4TAYkycH4MdXYxCf0A9Ji0oQ1L0dt5uWpvvbsGWpBBLN5XQpYkcOg8vO6UgamIhJ64rgkfERVjx5FbP6hyLhiTSkxPZASOK7OGbsFhqRFzI+WoEnr85C/9AEPJGWgtgeIUh89xjkuIvfvshA357xSB0UhcEr5Jg4M0NzmDR2JIa57MT0pIFInLQORR4Z+GjFk7g6qz9CE55AWkoseoQk4l2jnTKksRg5zAU7pydhYOIkrCtUMzWlsJNqtRR58bXHdJfaQbcrQ8yO5dbZ6r4xsWGfpWyd/qsL2DgiyGEfJkRFY2D/OMzITcQH72fASyRCx3Ef4e9DLmN2TDgSUxMRHj0b+c9+gmUZ3iwgy3Fyy1p8czDP6OT17m9fIKNvT8SnDkLU4BWQT5yJjADWa1Of1XP3N3yR0Rc941MxKGowVsgnYmZGgBl9m2PjGASHfRMQFT0Q/eNmIDfxA7yf4aXZ1tiOGlroY307ZmxksK8WG7YsZTbgQtRh8GRMDvgRr8bEI6FfEhaVBKF7O+Yv3b4NmMkDzsfc12BsR0QPGQDVb8dx+uRh7Nv1b/xtYn/0emoNfmNVwzb8BUwfUYqlgyOQEBOHaecTMaqPA/dNra4d07I2RWLbDj0GhWD/+H7oP7A/Yl4/g7jF7yPDSwRRx3H46O9DcHl2DMITU5EYHo3Z+c/ik2UZ0MxJmsU4WmVHQ6ToFdMPLhezkX2XWxYh4MUP8W5EFqb0i8DA5EhE/OFL5ImcMXjyZAT8+Cpi4hPQL2kRSoK6o129UW1smV1Y+xIuc0TwsrR2iDpi3Ed/x5DLsxETnojUxHBEz87Hs58sQ0bTCZkoAC9++C4isqagX8RAJEdG4A9f5kEkduCXjcEX52wrHIMcsG9CFKKZb+Jm5CLxA61v+GuwKVtJTKznLkUZ1hw+P5mNC1ZJzp/Khbx3NIw+fpi1w9UvDotzh9FUJjHXDltnq/sa2dKcFPn8EYvmheLgKzGIGRSLmCnH4BPu3lBLrcov1p/JscvcuNeAiRplNga1+mtFMV/D9JjJg6Y6ibl+2Dq9oRuNzwyD/VszXtsi/IXpGFG6FIMjEhATNw3nE0ehjwN3CwoH69NgXDQyDjbG5JjItvHKXMgmk436Evngj4vmo1cWy+OYQYiNeRmnE9LRTyeX+XzQo4m9+b2QxWJCE3svn0ZCer+GvLW8PvGNeYymPuRots7KcU95A4c3bcC/TcwVrEL7u62HhYqq87Pp8JFzVNzsl6HGuEd3fjtGh45fofKmv8Azi4pkV0/Qgawcusn9sk6Diqryc+jwgYN07NxNqjbXpqqK8nMO04GDx+jczWrNL+u0yOnOxeN08OBJ+r2c+5mhHpXsKp04kEU5+k5ZM/mUc/gAHTx2jm6a61Qlo6snDlBWzk3St2CIVe2ZouGXkTVUlXeaso6cpVvcTxcNUJLsGtt24Aj9WthInxuf01N+UbTweLMDGpDfuUjHDx6kk7+Xs1YsQH6HLh4/SAdP/k5NTGqRvg2/BK2porzTWXTk7K2GX5/y0gIfG2LcRhZx7w79duwQHb9S3qhfY1iQB/KDNL1bRxr7vUy3gh11Yi6FOTxBq7mnAHCoqik/+zAdOVfMtGs9qqrrdDqL07u5pZWya2zbATrya2HzODYa462wY2PKvqUx3kH0yk+NZbpLhWeP0MEmMX7vzm907NBxumJRcbGidihldI3F4IEjv5JZVe4W0tkjB5vFqynZ+ONc/6v2mqo8jW/ONktqczXYuK1Mr7cOk3Gh/I2WxLpS8jJjj7wygsW5YyW87aqo8tovdOjwr3Sr7q7Bkxo0tFl+WTru8dQoa2LQqtyzcgy1mNaN16rqfMo+fITOWTaxMI5FY2JjjMlsiKpSWyPP3tI+PaIpvHXSABZ713UyGW3KCr+YHPOsoY3qtRXYcP/TzWMF/peR78XUkPGoXVmAr0fZ61ZaggLH5w3AG+KV2PdeLJp+EfWwkO+dipDxtVhZ8DWsUue/BcUJzI0cjP+LWIwPJkfDS30DB/85Dx8Vvoj9B+agTV4U9FhQg59e7YNJihU49/nwRj8q+O+AP87l2Ds1BONrV6Lg61EW/sDq0UCZ8w5ih53F9DPfYVzTS0+PJHLsmRKMF+SrkP/VM4+VrQVM0OIxUeBB8DhUBYEHgdgTPeMTEeZjbUhIETF/Pw4+QhNXDrFnT8QnhsFqdf5bkEbj7c1fYZzTIax5ZzbmLP4K57v+Gbu2zf4fmrhyOGLQn5fj9VCgrLU3WT2C8Me5GJ4945EY5vPYFfqaal88s3QRnnssJq4cYnj1TEBir8fP1gImaPGYKPAgEK68CggICAgICAgIPDYIpxQCAgICAgICAgKPDcLkVUBAQEBAQEBA4LFBmLwKCAgICAgICAg8NgiTVwGBRw1lNWQ1rX4K3v8UankVZNXNbaaqrUBVs2dBPmooUCWrafVDuwUeIxQsXmsEjwsItJT7NHlVoyL/Egoqmr7WohqFl66j7HEblxVH8e7gJMzL5EZBBY6+OxhJ8zK12x4ErP+/pA7E/AP3eRQ20FPgoaD8DSvSumPwR6e0D4puCepCZG38GpmN3rDywHhQsdqACpe+zECPjp0R2iMCr/+k71d9exsm947CG3u4t7VZwkPIbdbnmfcGosfTq3G+LeriA/S94uhfkDpwPh6Yq+8bahRmbcTXmY3e3Hc/UZzBewN74OnV51v/oPZGKI6+i8FJ83RLD4D7lOsPRA9r8uRh1lMeWpp/bWHf+jYe5lTh/kxeVRfxz+ciMHrNFcNiUPZvTIpIw5ITRl+g9uhCFbhx8QLyNa/lI1TcuIgL+eXabQ8Ckmn6L2iLdx7yYaCnlSiO4+Pnp2Btm4zADxMFjn/8PKasbduBxTLUyP9qLlbbvIl182Jgp1trDsXxj/H8lLX6yU9NFlbPnIlVh2S6FQ+QBxWr9SjPYP3yXei06Axu3MjB8pR6q1Vh/7sLkT3yE3z8jKeFhe7B57bq0qf489fe+MuXM9vmEWYP0Pcku4GLFwosehVrsxhtIW3VjiE1yFo9EzNXHUKbWc1kPWQnW5/+GV97/wVfzgw3fHtRK6EKzh/5uqUHwH3K9QeihzV50mY51bZjizX515i2sG99Gw+qzBvjvt02oNWpiWa6xeYP51KhtrwUVUY8qq6ToaS4DLWtPulRorq0BLI6y67BWI2yGqUlMhhtXlWL8vJaI2f1atTJSlBcZmwbp3s5SitMTPTVdZCVFKPMIsPw98OLpf0oC3Dqx33ILTayH59tGKqaMpTXv3SfQ1GBUpnc5NUyLiZM2UVZXYoSWZ3xY3V+aNhmVDclCk79iH25xdbbShPH5dCrYq3dCZLer2HD+mkINzFzNaa7suAUftyXiwbTO4/GxqISbB7XQbdCj8W2tiq+uN15YpXB65emKKpw+3YVK/WGGK0FymIUlTohIMibFTP2X31FU6vh++xqbHp3ENrrVrWMFuSOqgZljeOMaVJRKoO8uZFRJ47A7E2fYmIw93pVQzQ2rTJtU6OY9H1b1VgmM2vHtKuN19lmMdoAf11WVN3G7UY2MNmOVfHK+rxd0kgHZ4zeWISSzePQPGMawyMrq3G3Syr0MWuqHjI5xRGzsenTiTDickNM5AHnA7nM0C6mMbOv0T74Y95crqvlMhNyG8HM2GCSprWcwVtjmuppMk843ZvEt4l9zdU0VS2Xv40Tjm9ssXR+0rL8M491ediY5nrqsaruWwv3nNc2R3me3o92oNgPfjN8td+dz2ioQzeamcW9sk1Oh99OphEL19I7I3tT1yAfcvWMoje2F2pfT1Z3hJYM6UbeXgHULcSH3DwjaPJG468KLP9+EoXHz6MDDa9uq6PDC5Oo32s7qZotyY6voNHhvuQbFEJ+rL2kmdsonzUkz5pPsZ07UadO2j//Hi/TdmNvNmt4TRzXgf6Vi1pkdHzFaAr39aWgED/yCkiimdvydXLK6MiHI6lbx07UJcCHvH1ZP/7BlP5ZHtUeWUJDunmz/btRiI8beUZMpo1XddqpimjPvEHk7+5Dgf6dKWbSKzTU25PGb9X2f2TJEOrm7UUB3ULIx82TIiZvpPpDm1LH109TmuhpaT+qon9RRrAHOYol5OzN7Bg8htYVcl40bRv54bcpecRC+mzhCOrdNYA83Jhd1pym3K+mUEKPYPJ1a0/hU7+nfN276uRZbP9R79Bn84ZRry5dyM/NnXqN+4LO17/9T3acVowOJ1/fIArxYzInzaRtnJN1cTZ8wXKaFuFKIkkYzT1RbVw3RRH9KyOYPBzFJHH21vhqzDoWj3X7aXbMAFpwqL4zOWUtGEAxs/cxK+l0Gb6Alk+LIFeRhMLmnrDO7ozKX9bQhCg/8g7oSoFeHSgo5S3alqfd37TuKir6VwYFeziSWOJM3p38KXjMOiq8e5jeToymt37WvjfQOltbF1/8scow6RcjqEpo33vDWd++FBzMbNEllZYcYTqYqgWlG2lCiCc5icXk5NmJOsfOJ660mMp38xjmtlU+lDObJ4+ghZ8tpBG9u1KAhxsFp6+h07lf0ZSEHhTs60btw6fS97qA5m2b2XQvZ9MOzKYBgRQ96UOa80wczdL4s472z46hAQsONbxyVJ61gAbEzKZ92mBs5Pu2q7EcqqI9NG+QP7n7BJJ/5xia9MpQ8vYcT3pXG7O7iRhlAvD5SVWyj94bzmTzDaZgP2/qkvo+7VxrrB3r4lV5eQO92MeHvDqHkL9PMGWsz2drOTslUvRbP2vy2RimZVXS5Q0vUh8fL+oc4k8+wRm07tSXRuphreVymsoDBl+dqH9VcD18+5rqw1xc8uZ65S+0ZkIU+XkHUNdAL+oQlEJvbcszEU+mx4ameugxVsvvcc4xXWNM2bJJnmSxdke98xnNG9aLunTxIzf3XjTui/PaHDPYl8HTX32tXfvOSFZrg8jH1ZOi3thOhfdMjC2a5iyrVy3LP+22xjS1r3V5uIQ0JZlrwz2NXn8rjXoFB5F3vZ7a8sbvkzbiIU5euYHCj+w8BtCc/xSx/arp8Kwwatd3IZ1h8UjyXNr+zSG6oYkXOZ1bEk+OPWfR0fqK3QhV/j/pCZcAmrpXN/Os20evBbvT0+uKSVWTSdO7e9OQ5Wc17wpW5n9DY/x96fnNZWxJTtWyciovv0Hbp4SQx5B/0hVj9uWZvNZkTqfu3kNo+VlN65T/zRjy932euOaVl5dSols0LTrNtqnu0PaXulCnCZvpDtNPnrudvjl0Q1ss5edoSbwj9Zx1lFui6r0vU6BbEv01l/WnLKQ9MyLZAN1BVyTklLv9GzqkNQw7dAnFO/akWcYMw+DrpxkGelrTj5LuFm+gZ90DaerOEpJV3tX4nc82XPD72XlQ4vz9VKJSUeH6UeTp1IHCMtbSObZ73ZlFFOkQTvNOcsGg21/SjkInfUdXmQj3fv+UhntyPr7F9USZ07uT95DlpO0qn74Z40++z2+mMl2c2bcLoOEfH6arv1+mG9WmdVPeLaYNz7pT4NSdVCKrpLucIne30QRvP5q0S1clWJuN32Oukc2+HQUM/5gOX/2dLt+ots7uNfvp9W5uFD0/i8q45K85SyvSPMlj1Hq6xZZ5dVfepeINz5J74FTaWSKjSk5gAz/qjrfY1tbFF3+s8vmlOZW7JlNnjydo+TnuWBWVnd5CO39l/ZqsBSzuSr6jcT4+NO67YpIxv7Kg48l3cxjmttW542dHHonzaX+JilSF62mUpxN1CMugtVoj06JIBwqfd5K05a2l+X+Xtk3wJr9JuxreoV+3ezL51Q9izWpV29RYJhXtfTmQ3JL+Slqx9tCMSCcSd9D1y2d3YzHK66dK2jW5M3k8sZy0oVBGp7fspF9rjbRjVbzK6cAbXckrfQMVa/Isjy7ncb3r/c511ww+WeUH6I2uXpS+gY013K55lymvxlg9tFxOk3lgQZ1omJSY2ddUHy2Pyxra/3o3cotmJ5DaDunsijTy9BhF67kOm2BubDA+eTVWy/lrjElbGskTSbtQmvTdVeape/T7p8PJ0/1pWqc1bKN9+furr7UD5vyHilh4Vh+eRWHt+tJClnBGxxaL61Ur8q8JhnHSgjzUmI/paetGsUb0NGejtuK+3TZgGTZwTpuBRYO9IYYjIlPj4ZF/GVe4q9PScDw1dgD8xNUozisAdQyAy+1C3DJy/VnkNwqjEyux+/tM1LDlusObsasyBaOf8sK9E1uwozgKw5NtUXDxIq7UhiOxby2OZuZADikcXd1gf3EN3vnBCzOXTjb/VY4BcpzYsgPFUcORbFuAixevoDY8EX1rjyIzRw7ljesodAxDVE8HJmR79O7VCbL8G6hhVpeGP4WxA/wgri5GXgGhY4ALbhfeYm0qcGr3zyhNmICXwu0BcUcMfX8RnvWqd5UU4U+NxQA/MaqL81BAHRHgchuFxgzDMN2POazpRwx7J3tIbESQOrjA1dmereG3DYeNcxqmL0iGp0gE74GJ6KkOQPrciQhl5rLrGYdI9xu4ek3/VYWN0wi8vew5BEkB2y5jkDFAyfx4grnhBLbsKEbU8GTYFlzExSu1CE/si9qjmdB1BWniHKyZHo+gLiHwczStm9jeCfYSG4ikDnBxdYa9pfEgTcScNdMRH9QFIX6OVtldfvhbbC1OwiszEtCec7NDL0x6OQ2i/TuwnwtohkndxfZwspfARiSFg4srnE0IbLmtrfG7mVi1wC965MjaugcVAydiYij3HnER2kekY3gYU9hkLWBxx2JNYmMDiT2LO+ZXOW++W4fVuWPjjLTpC5DsKYLIeyASe6oRkD6X6aMxMuIi3XHj6jXNV5ctz39raZsaC8Up7P65FAkTXoJWrKF4f9Gz0Luax+5GYpR3f3kWtu6pwMCJLD41odAeEenDEdbOWKxbE68iuLi54O75n7HnrAxqhwCEBJh/qTWvrCIXuLncxfmf9+CsTA2HgBAEOBirh5bKaToPLKkT9fDva7qPFsel/DC+3VqMpFdmIEHbIXpNehlpov3Y0VQ4C8YGPgxquS1fjeGpKc2wgdOIt7HsuSDmKVt0GZOBAUomT9Pf51hQ07haO2PRYHiz8HSMTEW8Rz4us4QzNrZYXK9ak3/aXYzSojzUmc/GbThmGdHTEhu1BTrV2xob9p/mlgTtYj1qAnHbuI0NNFqQsrBRK7X3g6hvYte8NHTzDUbssHSMXfwT2Amd8XsnRN54evQg1O79AZk1dcjavAd1T4zBk+6AqugWSmqPY+WEMRgzhvsbj7UFwQgPdGUFhaH4Fcvf/AQ09WPMCDcW1HyoUHSrBLXHV2KCpm32N34tCoLDEegqhl3vJMTQXqxY8m/8uOtzvL/+LHokJ8GXWV19cxfmpXWDb3AshqWPxeKfyqAiTjsliovvwMnbB87aTlik2sK2wVNq3Nw1D2ndfBEcOwzpYxfjpzIVNIcawXQ/5rCun+bw26aeBu8z33OTEH00sEIqIaga9yeWwk6i+wx7eHq6oFom45yMWyW1OL5ygs7HYzB+bQGCwwOh7coGUk8fNnHTHMhorW7NsZF6wkffgVV2V9wsRKlbJwQ46VYwJH5+8FCU4k6l7hhTuluBZba2xjZmYtWsXxqjYG2Vw421xdVJA6yoBWbz3QpalDt6IzObGtY6qVQC0gV0y/O/JRgI0bIaqyxG8R0nePs0SMXEsm0YQKy1O+/+CtZXuRvrq1kkGMGaeLVF3zc/xdKEC5gbF4TQkfOxvdHJsSl4ZbXtizc/XYqEC3MRFxSKkfO3w3iTlsppOg8sqhM6+PetM9lHi+NScROFpW7oZNgh/DwUKL1TqVtRj2Vjg3Ga1HLeGsNTU4wgltpBovsMe094ulRDJmtyd6qFNc2gttqqoTR28zDD4rxp4/yrp7V5aFRPq+p+y2lVSTSJjRvauwK32Nn8Pd0qDmV+AW6ROzw9zGsg37cY01YrMDUzD9fO5+DEqvSGs4zmiOA5cjQGK/Zi8+4fsXnPPQzNGAo3boszO0N3TMWSI9nIztb9nfkF296MYKVMhStr38Lfb2fgb3+OtSjADRHBmZ1BOaYuwZH6ttnfmV+24c0IWygunECOSyS6FW/F6k9/ht2Eb7FlLtevHPsWT8NqxVRk5l3D+ZwTWJXupXOGGI5ODqgpL9OfMXG3d+g+MsNg8bTVUEzNRN6188g5sQrpJg3D148ZrOqH0WwTv21aiv50SIHysmq4uLfnnAxXZ0ekLjnS0E929hn8su1NGO2KVzdjOoogtrmHew3BzAb45r86bIR1dpe4uKBdFRtUGiWL+vYdVNh5wNNVf5RR3Rmm2m0RVvndTKxa5RcJnJzsUFUh006sGmFNLeDPd2toRe6YxVz+OzKblutrZ2ObMkRiGxaL+mAhzUUB67Gqxood4eRQw+JOf+mk8cUJc3Zv2izv/hInONlVoaLpxIHRTDxr65RzJKZ+fgxXz32HjNrPMfFPG3QbTGNON+fIqfj82FWc+y4DtZ9PxJ82FDUX1GI5TeeBpXWCg39fOxN9tGJckrjApV0Vm6gadIg7FXbw8GSTAQPacGzgrTGmbWmcRlmkKEdZtQvc2zeZq1g71hjQ3N8W16tW5p8pWpqHvLTKRpZjLHtaj8gTg4ZEomzTO3h3bz7q2CrVbTa7X/glfg8fjie7mJ+8qmTlqJR4w9+XTSnVpTi2/zT/YxnaD8OYNDV2LpyDHfQkRqdqzwCl/ZMRa3sQ337f6Bl+igpU1LJmb27En5dcxLAPFiGlaX5ZhBT9k2Nhe/BbfN/oGXCKigqw5qEovIHi2ntwDn0Cz4wehZSejrin+aW3CrLySki8/aFV7xj2ny7XpY4E/eL6QXRsB3YVcftW49TKj7FN85mhkqG8UgJvf1822Vaj9Nh+nDZpGL5+zGBVPxzt4GBXiTt3FLplftu0BJLtwT+WnUAV+6wu2IJNB0WIS47hnIzkWFsc/PZ76LtSoIJzsjHM6NbOwQ6Vd+6wFnTY+sPfpxrnsi9p1lWfXIalW0vYkaawzu7SuBTEUyY2brqujVFVAbas3wtlytMYpPtW06TuHO0cYFd5Bw2mbw1W+d1MrFrlFymiE/tDeeAH7C7WHl+R/TU2Hqmxqhbw5TtH3Yk1eP2t9Thr9lk1rcgds5jL/wiNTXcasykbivz9fVB9LhuXtMGIZUu3oqR+sxVYVWMl/RDXT4RjO3ZBK9YprPx4m/Yzw5zdm8Yo7/7SaCT2V+LAD7uhDYUKZH+9ESwUmse6VfFah0sns3GbtWkfmIKM1EDcq2p6VbA5vLLWXcLJbO45wvYITMlAauA9VFVyI16TemixnKbzwJI6UQ//vqb6qGz5uCSNQ0o8IXPjJlzXdoiCLeuxV5mCp5sK15ZjA2+NMW3L5hBke/6BZSc0FZbJvgkHRXFIjmnybay1Y00Tmo4tZvOmntbmnwlanId8mLGRumAH3pu2CD9ca9jYIu7P5JWdpfX40yf4x6hafDKyC9y42b3fALx/8wms/PLNhucZSiRS2En1U3EbtiyVSDRfRTgMnozJAT/i1Zh4JPRLwqKSIHRvJ2EpZApXpI19Ck6/X4VT+tiGZBZ5ZeCjFU/i6qz+CE14AmkpsegRkoh3j8lRc2Ab/lNchK2Tu8PD3R0dvJOwONfYqMb65WRrkFsCqWZBBK+Mj7DiyauY1T8UCU+kISW2B0IS3wVrHg7RQzBA9RuOnz6Jw/t24d9/m4j+vZ7Cmt/sMHjyZAT8+Cpi4hPQL2kRSoK6ox1rl2vT54+LML9XFtM9BoNiY/Dy6QSk93OALdelw2BMnhyAH1+NQXxCPyQtKkFQ93ZMJk6ypjjw9GOMRnpa1Q9DGouRw1ywc3oSBiZOwrpC8NqGa0hqx91dpEPM9c3W2eq+iLDhbMzWNfq+1MYxCA77JiAqeiD6x81AbuIHeD/Di3MyMj5agSevzkL/0AQ8kZaC2B4hSHz3mOYqQdM449dNitiRw+CyczqSBiZiElNEbRuOF6aPQOnSwYhIiEHctPNIHNUHDhqHMJrqYqXdRR3H4aO/D8Hl2TEIT0xFYng0Zuc/i0+WZcBbp75J3RnS2JEY5rIT05MGInHSOhSqmd2kdg3xapWtrfK7mVg14xdDRAh48UO8G5GFKf0iMDA5EhF/+BJ5IjETiacW2NiyvljNkGh14ct3blAqP7kFa785iDwTk1d9brcgdxrbnNVAri0JW6GVzIZ9lrJ13Fd9fG1rbTov9CBe0dl0yjEfhLvX54Etwl+YjhGlSzE4IgExcdNwPnEU+jgwO2i2G8rRZjVW5IM/LpqPXllM5phBiI15GacT0tFP1y+/3ZvHaJEHz/6iALz44buIyJqCfhEDkRwZgT98mQcWCs1j3d6aeL2L377IQN+e8UgdFIXBK+SYODNDs6VZjWgEr253f8MXGX3RMz4Vg6IGY4V8ImZmBDSvh7IUC+U0nQdm64Qm3rSTLf59TfXh3PJxSdQR4z76O4Zcno2Y8ESkJoYjenY+nv1kGTLqi1gD/ONmYz2a0sxPvDXGtC1ZSwZ5wuWnY5AD9k2IQvTA/oibkYvED95HhubqeKN9zdU0JrtBrTUYx5qPLcwQvHnTQCvzz4DGccJ3HE8eatowpacZGylvHMamDf/GQVNF2EJsuF9t6T7fB9SoKTyP3CvlEHl0RXioDyvbVqAsxcVTF1DhEYaoYDcWii1HXV2As7nXUCH2QHBYD/g6tqa1pqhRXXAWudcqIPYIRlgPXziKFDg0IxxjShbjwjfPsqk1Q3kS8yKS8curV7H3FW92ZnsRpy5UwCMsCsFuTeRRVyEvJxeF0mD06+XT5IH1SpRePIULFR4IiwpG00ObouTrhxfr+oG6AtdO5aDQLgQRvX11vjZmG80Gq5DvnYqQ8bVYmfcJIi/m4CazSwSzi71uuwZ1NQrO5uJahRgewWHo4evIEzN8uqlRce0UcgrtEBLRG74aRVgsF/yKnBsShESGwsuC26Ottbuq4jpyz+ajzrUr+oR1bMgVS3RXV1zDqZxC2IVEoLdW4FZgrd/5YpVhlV/qcOvcGVypdEHXiF5ouN3KylpgNN/VN/HFqBh80vcHHPpLtGHsmKDluWMe3raZTa+f0eZSZMgZvBbyAuSr8vHVM1qp1TUF+DXnBiQhkQi1JBhNYa1dq/KQk1sIaXA/9PJp/jBivjprLEZ563LdLZw7cwWVLl0N4r15O9bEqwKll7JxvlgEv/AIdHEz/y1gPSZlVZTiUvZ5FIv8EB7RBQ1NNquH1shpIg8YpuqEMfj3Nd6HubjkzXVVBa7nnkV+nSu69glDR95S1DZjgwbeGmPallrk2Ds1BONrVyLvk0hczLnJ4juCxXezHfVYVdMaY2xs4ZqzbH7SmvzjoyV5aJYW28gy7vPk9X8ZBU7MjcTg/4vA4g8mI9pLjRsH/4l5HxXixf0HMKdNXqfzv0PDBK7ga4yyOHv+O/hf1r0tURyfhwFviLFy33uI5R1UHzHkezAl2HDyKiAg0FboJ68FX4+yfHIm8FBpy4mwgAFSRL+9GV+Nc8KhNe9g9pzF+Op8V/x51zbMFiauViP27In4xDD4/A9G7P+y7m2JNGI+9h98zCauHGIv9ExIRC8hAAQE7gNiePaMR2KYjzAheowQrrwKCAgICAgICAg8NggnGgICAgICAgICAo8NwuRVQEBAQEBAQEDgsUGYvAoICAgICAgICDw2CJNXAQEBAQEBAYH/FpTVkNW07jmqjzr3bfJae+s35ObmsL9fceFqMWpa9zKF/xIUOPruYCTNy9QtPwAUR/GX1IGYf8DIw4r/21AXImvj18hs9NaWtkJx9C9IHTgf98WMzEfvDk7CvMy2bVxx9F0MTpqnW3qIPKgYbG0/beCHepu3sSsF/kswyMn7lPcC/+Mof8OKtO4Y/NEp7YsTWoQahVkb8XVmozdvPWLcn8mr6ipWj+6LAU+9hFdemYrxIyMR4Nsboxb9H67XvxftAaE4/jGen7IW5x+JkxBCxY2LuJBfrlt+AJAMNy5eQIHJVyb+F1GThdUzZ2LVIZluRdtBshu4eKGA/xXFLYUqND7Kb+PGqYKTOV+31BoUOP7x85iy9jxalEYPKgZb208b+KHe5vdbVYHHE4OcvE95//jSyjrzCPHw5h1q5H81F6tt3sS6eTHNXyJhguby1iBr9UzMXHUIbT+atg336cqrGiqVGF0nrsOBw0fxy7l8XNn9/8F2w/MY9tZPTYyhRHVpCWR1upf0WoKyGqUlMhg7RFl9GyUV+hmysuAUftyXi+Impw/qOhlKistQa+q0QlWL8vJapokZFFW4fbuKpV0T1HLIbt9GlSWTdTP7Kqpu43azjWrUyUpQXFZr9MxIXVeO0kZ2aIpaLjMut0Uwn90ugbHmldWlKJHVmbdbA+b8r0JteSmqjBYBBaoa2815NDYWlWDzuA66FTp44oVDVctsZbQDZmPWN48ZrdfXjCxmMRpv/LHQFH6ZjdlbiYJTP2JfbnGT9u9zDFqYg+b6sT4mDeE93lT+M0zHVetlMkfTOthAC+LPtKym64A2Nkzljpmcb+J3s7W6Keo6yEqKUWbxAboYsqhYG6MFYxgPfLHBxVS5FXo1xtqYs9ruLLZul1S0cEzhMFVnGObiVlWDMoNaoUBFqQxyE/tzupmqGfx24upjOWrrN5qINVPzDkvQ+rihA6tqOzsjgqT3a9iwfhrCTcxcjeneXF5njN5YhJLN49BkNGWmLmskH0NRgVKZvLm9WpCHVsE957XNUV6mv8Y5UL9FOXRPt4qj7Ifx5OvyBP0zX6VZlh1fQaPDfck3KIT8vAIoaeY2yldqNplARsdXjKZwX18KCvEjr4AkmrktnzSHsD43vNiHfLw6U4i/DwVnrKNTX2ZQsIcjiSXO5N3Jn4LHrKPC2iO0ZEg38mb9dQvxITfPCJq88aq2DZLT4beTafiC5TQtwpVEkjCae6KxBo1QldC+94ZTN29fCg72I+8uqbTkSB3bUEm/rJlAUX7eFNA1kLw6BFHKW9soT9NBHe2Z0ok8nv+BW2Dw7ct1sY/eG85k9Q2mYLZPl9QlxHVRd2QJDenmzfTvRiE+buQZMZk2Xq0/qIj2zBtE/u4+FOjfmWImvUJDvT1p/Na72u2Vv9CaCVHk5x1AXQO9qENQCr21LU+nv3mUlzfQi318yKtzCPn7BFPG+nztBtlxWjE6nHx9gyjEz4sCkmbSNn5n8vhf64cRC9fSOyN7U9cgH3L1jKI3theSNnJUVLLvPRrObOAbHMx06UKpS45QnfwwvZ0YTW/9zPmBw3S8yA+/TckjFtLad0ZS765B5OPqSVFvbKdCbQfMjHto3iB/cvcJJP/OMTTplaHk7Tme6s1ovb48sVu3h6Z08qDnf6hv3Agm4o0vFur2TKFOHs9rPmswKTOPvVk8/SsjmDwcxSRx9qZO/sE0Zl0h1d63GLQmB830Y62PmvqB73hT/uBs7p5Gr7+VRr2Cg8i7SVxZJ5OMtkwJp/h5mdQQGfIjtGhgJP1pV41uRROa1cH1pC23PPFnCh5ZjdcBOWUx34165zOaN6wXdeniR27uvWjcF+fZFi3mct7A71kHeWq1MeroyJIhzCdM1m4h5OPmSRGTN1J9WBqFxdBeLoY6sBgKCKToSR/SnGfiaJamhtTR/tkxNGDBoQb55VkLaEDMbNqnKzHWjmEGOWlNvMmO0Icju1HHTl0owIfVvU6dyD84nT7LU1Hd/tkUM2ABHdILSQsGxNBsvZBW5gHfGGkMJV3e8CL18fGiziH+5BOcQeu5oKvbT7NjBtACvWCUtWAAxczexyzbBBN1RsUXt1y9Tx5BCz9bSCN6d6UADzcKTl9Dp3O/oikJPSjY143ah0+l73XzDXkWq/mj3qHP5g2jXl26kJ+bO/Ua9wWd1wenSTtpxovhC2j5tAhyFUkobG6WiVhTUdG/jMw7VGZiSaPLcFqwfBpFuIpIEjaXsg7y1FgjVP6yhiZEsVoU0JUCvTpQUMpbtE03mTCtuyl5uXxMpOi3ftb4qn68/GzhCDZeBpCHWzClrzlNuV9NoYQeweTr1p7Cp36vqzUtyMMW8EAnr1T+L3rayUM7uNRk0vTu3jRk+VniyrAy/xsa4+9Lz28u0+5rhJrM6dTdewgtP6s5gvK/GUP+vs8Td4j8wBvU1SudNhRz1quhvMt5VKO8S8UbniX3wKm0s0RGlXeZ9eS5tP2bQ3RDkz1yOrcknhx7zqKjmojiJpd+ZN8ugIZ/fJiu/n6ZblRz65tTuWsydfZ4gpaf4wqPispOb6Gdv8qpZv/r1M0tmuZnlWkmWjVnV1CapweNWn+LLRlOXvn3raRdkzuTxxPLSdtFGZ3espNYF0yF7fTNoRvaAiA/R0viHannrKPcElXvfZkC3ZLor7nsIGUh7ZkRSU7iDroBvYb2v96N3KLnU1aZ1k5nV6SRp8coWn9LE3VmkNOBN7qSV/oG0po5jy7ncb6ooczp3cl7yHLSuiafvhnjT77PbyaT3uT1v9YPdh4DaM5/ipinq+nwrDBq13chneECqnIXTe7sQU8sP6cZ1FVlp2nLzl9J3mQw4IsXbhDxs/OgAXP+Q0UsLKoPz6Kwdn1poaaDatr7ciC5Jf2VtGbcQzMinUjcoX7yar2+fLI0G8SMYCre+GLBcPLKJzO/vZV3i2nDs+4UOHUnlcgqSZtG9ysGLc9Bc/1YHZMGfuA/3pQ/NHFl60axRuPKWplUdPOToeTqN4l26mxQt/81CnZ/itYVGc9Xo3WQ+8QXf0bhk9VUHdD6TtIulCZ9d5XtdY9+/3Q4ebo/Tes431qQ8wZ+L+Or1caQU+72b+iQ9gAWlkso3rEnzTJ9gJkYukvbJniT36RdDScPdbsnk1/9SWwLxjDTk1c+e7PJ4dJEljOL6DTbprqznV7q0okmbL6jGV/vbptA3ixGdumFpMl+9SdxLcgD3jHSCPID9EZXL0rfUKwdx/IukyYc7m6jCd5+NEkvGO2e7Eee47fqT8YaYazOmK2bfnbkkTif9peoSFW4nkZ5OlGHsAxae47tX3eGFkU6UPi8kxo7aXJT0o5CJ31HV5ku937/lIZ7utPT67jxlt9OmmPt21HA8I/p8NXf6fKNMtOxZmzeYS6WNLrYU7uA4fTx4av0++UbVMZTY5tRs59e7+ZG0fOzSFtWz9KKNE/yGLWeuNTj1d2ovFw+aucqWvG042Xi/P1UolJR4fpR5OnUgcIy1pLW1Iso0iGc5p3kLG19HraEB/u0AXtHONjeRXWNGvITW7CjOArDk21RcPEirtSGI7FvLY5m5pi4yViOE1t2oDhqOJJtC3Dx4hXUhieib+1RZObIIXJxg8vd8/h5z1nI1A4ICAmAg9geTvYS2IikcHBxhbO9GJCG46mxA+AnrkZxXgGoYwBcbhfiVqNr3tLEOVgzPR5BXULg56hbaYAcWVv3oGLgREwM5d6ELEL7iHQMDyMc/nYripNewYyE9pp7Mhx6TcLLaSLs37Ffc6QeOf++8ixs3VOBgRMnQttFe0SkD0eYlFPhKYwd4AdxdTHyCggdA1xwu/AW20mBU7t/RmnCBLwUzg4Sd8TQ9xfhWS+dm+WH8e3WYiS9MgMJ7TU9otekl5Em2o8d+2u0+/AigoubC+6e/xl7zsqgdghASIADa/cEtuwoRtTwZNgWXMTFK7UIT+yL2qOZYK4xinn/28A5bQYWDfaGGI6ITI2HR/5lXFFwptmKPRUDMXFiqOY91KL2EUgfHgZmmkbwxwuHjXMaZiwaDG8WFo6RqYj3yMdlrgPFKez+uRQJE16C1oxD8f6iZ1FvRuv1NS8LP6biTcoTC00wK7Npe4vtnWAvsYFI6gAXV2do0+j+xqD5HDTXj/UxaQDv8ab9wWHjNhyzjMWV1TKJ4JM+Fil3d+O7/1Sx5Toc/n43KlPG4Cnv+mA0xGgdbEn88cpqog5osIHTiLex7Lkglo+26DImAwOUrJ8TCtak+Zpv4Pf25mu1IVKEPzUWA/zEqC7OQwF1RIDLbRSaPMBMDJnB+jGMB157K3HjeiEcw6LQk5lZ1L43enWSIf9GjWbc4KUleWDBGGmAyAVuLndx/uc9OCtTwyEgBA3hYAXN64wFcWvjjLTpC5DsKYLIeyASe6oRkD6X5SUTwK4n4iLdcePqNeZp3e5OI/D2sucQxFLVtssYZAxQMn+dsMxO0kTMWTMd8UFdEOLX3nSsGZt3WIQUiXPWYHp8ELqE+KG9pbWdIT/8LbYWJ+GVGQnQltVemPRyGkT7d6C+rJrU3UJ5ufFy+oJkeIpE8B6YiJ7qAKTPZfMTjanjEOl+A1evcZa2Ng9bhmVZ2kaoi/Jxo64DvFlVVxXdQkntcaycMAZjxnB/47G2IBjhga5s8DSGCkW3SlB7fCUmaPZnf+PXoiA4HIGuYtj2fROfLk3AhblxCAodifnb9QFrgPomds1LQzffYMQOS8fYxT+Bnak0ul/DBlJPH+Yg3aJRFCguLoebt49m8qRHgZuFpXDrFAAn3RpAAj8/DyhK7+iW6zGzr6IYxeVu8PYx7IFDfXMX5qV1g29wLIaxwW3xT2VQEaeBksl1B05MLmftriwwbWFbr4viJgpL3dApQN8jJH7w81Cg9E6lbgUftuj75qdYmnABc+OCEDpyPrZzwaoqwq2SWhxfOUHnyzEYv7YAweGBYK4ximX+t9H9y5CyoVCt1Nz3oyguRrmbN4yYphH88VKPvgc2EbRVQ8l1oGS2v+PEbN9gRWZGW32yWK2vZbKYxlS88cVCEyyS2bi9jXF/Y9CSHDTTTwti0gDe4037ox6jcdUCmUSeIzF2KGHvpr2Q1WZh855aPDHmSbjrtjfFeB1sQfzxymqiDugQS+1YJdNh7wlPl2rIZCrWpLmcb+J3s7W6KWrc3DUPad18ERw7DOljF+OnMhWMpYMWMzFkBuvHMB547W2H3kkxoL0rsOTfP2LX5+9j/dkeSE7yNT+AtyQPrLW7bV+8+elSJFyYi7igUIycvx2NwqEVWBi3DcnGco1Nfm0MypgEpGokuVgKO31wwtPTBdUymUV2spF6wkcfnFbGmgXYSOHp49ngU4trO0NxsxClbp1gWFb94KEoxZ1K3TGmdLcCvamlkDBDG9Q5CUFr6vtgGyNYmKZtgRw5//o3fnEdgNQoO4ic2QzfMRVLjmQjO1v3d+YXbHszgk2RjCGCMzsbc0xdgiP1+7O/M79sw5sR3BHOiJz6OY5dPYfvMmrx+cQ/YUORupmC8n2LMW21AlMz83DtfA5OrErXX1GzGAmcnOxQVSFrMrhL4OLSDlVs8nlPt4Zz5O07FbDz8NQt12NmX4kTnOyqUMGKviFy7Fs8DasVU5GZdw3nc05gVbqXTk8xHJ0cUFNepj/z524N0X2ExAUu7arYJEHfI9S3cafCDh6erroVZnCOxNTPj+Hque+QUfs5Jv5pA3ONM1ydHZG65Ijel9ln8Mu2N6FxjRGs978eiZMT7Koq0Mw0BpiLFx7EjnByqEF5mf7SBDE7NmC1vq2QRYOpeOOLhSa0wEd6mmXRw41BDWb6aZW+DN7jTfnDDC2SyQ3Dnh8Ou5824Yed32H3vWHIGOqm22YMY3WQrbU2/szJaqwONNAoVxTlKKt2gXt7MWvSupy3ulbL92HxtNVQTM1E3rXzyDmxCum8B3Ax5MhiqFxfgxvHEEMktsG9e/pYJbV+e2tqWDN47a3AhRM5cInshuKtq/Hpz3aY8O0WzK33nUgMGyajXgc1p4aWFsRcS8ZI58ip+PzYVZz7LgO1n0/En7igYxVBbMPk0gsGdeM62oymnbS2bhpHL4GC1fhquLi3t95OZmLNmLn4Yqk5VtR2hsTFBe2q2ERV3zwrq3dQYecBT1f9UUZ1Z5hqt0VYnYcto+1bbIBQV3YdF879ilOH/g+fvDUSz3x4HfFz5uIpVnul/ZMRa3sQ337f6DliigpU1Oo+N0OK/smxsD34Lb5v9BxPRUUFuEPqLp1E9m02tbcPREpGKgLvVaGyjm1o5wC7yju4ozsTVMnKUSnxhr+vPfNuKY7tP92Cx9pIEZ3YH8oDP2B3sfZ0oiL7a2w8cg9xKfGgzI3YdF0ro6pgC9bvVSLl6UGaZT1S/n2l0Ujsr8SBH3ZD20UFsr/eiCM1KsjKKyHx9odWhWPYf7pcF5QS9IvrB9GxHdjFJu5ANU6t/BjbNJ8Z0jikxBMyN26CtksVCrasx15lCp4e5MCMeAJrXn+LndUb/4U097XlpZPZ0Jo5BRmpgbhXVcna7Y/kWFsc/PZ76F2jQIVpZ7bA/3qk0YnorzyAH3YXa68GVGTj641HYHjjA3+88CLph7h+IhzbsQtaM57Cyo+3aT9zWK1vK2TRYCreKnlioQkt8FFj2jnYofLOHXYEx32MQYsx10/r9OU/3pQ/zNx600KZHFPG4Rm3/+CdWf8HmyfHILXR1ZWmGK+DLYg/XllN1AENBNmef2DZCe42BzXz7SYcFMUhOUbKmrQu562u1SoZyisl8Pb3hT3ru/TYfpzmPYCLoQhNDO00FkNsCurv74Pqc9m4xAV+9UksW7oVJbrNralhzeC1twKFN4pRe88ZoU88g9GjUtDT8V7DL95t/f3hU30O2VohcXLZUmzVC2l1zFlt97pLOJl9m1ncHoEpGUgNvIcqbvC19Ye/TzXOZV9iPXLmW4alW0u0NdsEhnWmtXWzOSTbg38sOwFNdLLxdtNBEeKSY6y3k7lYazLvMBdLzeGrsc2RxqUgnjKxcdN1bSyqCrBl/V4oU55GfVk1qTtHM3lbAa9tWE3Y8R6mLfoB1/QubRnaW1/bGFU+/fMJR7LhKpmNiCSOnhQS9xzN+/Ys6X97cY+ubJxEfTw8qVv8YBoyKIa6+4fTzIZfihvh3hXaOKkPeXh2o/jBQ2hQTHfyD59J3CFl21+m7r7dKC4lmfr6eVGfads0v/BV3dlGk7o4kW/fJBrw0pd0s/QnmtXPjdy7xVF8n1Aa+OJzFOn3Am3X3EVdRz+92oX8Xvw/ozeUG3D3DK0Y2ZncfHtT0sB+FNRlEC05yo6SX6B140PJ3asnDUgZQD19fCnmja26X6By7QeRL2tfA+++XBcraGRnN/LtnUQD+wVRl0FLiOui/KdZ1M/NnbrFxVOf0IH04nOR5PfCdu1BNSfpb4M7kmtAFCXHhFLkmLdpSn9/enGHViP5hXU0PtSdvHoOoJQBPcnHN4be2Kr99aaqcBWl2vvQSztNaV9G21/uTr7MdinJfcnPqw9N21ao2XLvykaa1MeDPLvF0+Ahgyimuz+Fz9T+UtE4fP5v7gf5oZnU3XMsbdasuEtnVoykzm6+1DtpIPUL6kKDlhylu3U/0atd/OjF/9MdxRMvdT+9Sl38XqT6XVkHNLO7J43VdsDM+Dca3NGVAqKSKSY0ksa8PYX6+79IOjNary+PLEwYejXIVy+3MUzEG18scDoG+b6o+cxhWmZz9lbRnW2TqIuTL/VNGkAvfXmTSu9TDBrzvUnM9GO1j5r4gfd4E/7Q2JwnrqzPEw45HZ8bRhLbYPrTfv49TdVB1rHp+DOBaVlN1QHtjzxcI5+kwd27Uf+kfuTn1oX+8Ok5poGmRatyngU3T602Rjn9NKsfubkz/eP7UOjAF+m5SD96wfQBmhj6KNWnIYYiRo2lZE/9EyuUv/+LRgc6kWdoPEWH9adxb0+iyIY6YP0YZpCTFsebiq5/+Qz5BSbThCmT6MVxf6Dkru3Jd/hqusAljfJ3+tfoQHLyDKX46DDqP+5tmhTZijyw1u5l2+nl7r6sFqRQcl8/8uozjbZpgk5Jv/9rNAU6eVJofDSF9R9Hb0+KJP8Xd5jI7eZ1RmWubjau96pi+nSoG8UsPqerJXI6NLM7eY7drOlP82M510h6cnB36tY/ifr5uVGXP3xK53S/I+KzU7PxwkysNZt3MHPwxlJTXRi843wz5HRh3XgKdfeingNSaEBPH/KNeYO26iYT5nRvLq9hPjbVX1X8KQ11i6HF57TtG9Y5PtvI6cife5Fz1zfITCkziw33P9089qGgri7A2dxrqBB7IDisB3wdzV0MVqO64Cxyr1VA7BGMsB6+qD9EUXoJ2eeLIfILR0QXt4b7jtQV13AqpxB2IRHo7ctOQ5SluHjqAio8whAV7NaKy891uHXuDK5UuqBrRK9G92CqUHE9F2fz6+DatQ/COvJdUTKzb90tnDtzBZUuXRHRS3+PnbL0Ik5dqIBHWBSC3ZpooK5CXk4uCqXB6MeOafa4N1UFrueeRX6dK7r2CYO2SzVufjEKMZ/0xQ+H/oLoBl2aokDppWycLxbBLzwCXdwa3XukrkbB2VxcqxDDIzgMPXwdzdrWev/rqbt1DmeuVMKlawR6mbwB1nS8mENdlYec3EJIg/ux9o08NM9qfVsuixbj8cYbC01pgY+0qFFx7RRyCu0QEtEb2jRq6xhsAeb6abG+OniPN5X/ZmhB3OT9Ywh6r+qNXb/+HQMMf5nYDFN1kGvH6vgzKauxOiDH3qkhGF+7EnmfROJizk2WO81z06qct7pWK1F68RQuVHggLCoY5tJBA4uh62dyUGgXgsiQM3gt5AXIV+Xjq2e0cqtrCvBrzg1IQiIR6tXc+K2pYc0wZm/FIcwIH4OSxRfwzbPaW2uUJ+chIvkXvHp1L17hfrynrkHBrzm4IWE6hHqhmZTWxpy1dleU4lL2eRSL/BAe0QX6YUGNmoJfkXNDgpDIUBgxXxOa1xluXevqphb53qkIGV+LlXmfIPJiDm6ymtF4TNVglZ34Y63ZvINbZyaWmmJVbWeoKq4j92w+6ly7ok9YR9SXVUt0NyZvy2lBHlrJQ5+8CjwiKI5j3oA3IF65D+/FtjZwBQQE2gzVb/hrYhTWJ/wHOX+Laz4xeWTQT14Lvh5lOCl4XJDvwZRgw8nrQ0dxAnMjB+P/Ihbjg8nR8FLfwMF/zsNHhS9i/4E5CG/57Z//UzRM4Aq+xqjHMjhbzn+j7vdhPizwWCKNwPz9B4WJq4DAI4a67DyKXZ7Ba+P7P8ITVw4xPHvGIzHM5/EdWMRe6JmQiF4+j5AG0mi8vfkrjHM6hDXvzMacxV/hfNc/Y9e22cLE1QrEnj0RnxiGR8m1D4r/Rt2FK68CAgICAgICAgKPDcKVVwEBAQEBAQEBgccGYfIqICAgICAgICDw2CBMXgUEBAQEBAQEBB4bhMmrgICAwKOAshqyGlMvCHnUUaBKVqN/WL+AgIDAfeS+TV7rii/h3NVS3Zsy6pGj5Oo13G6Ltzj8D6M4+hekDpyPA/q3lwpYiLowCxu/zmz0FpXHBTUKszbi68xGb/N53FAXImvj18h8/IyvQXH0XQxOmofM+5F3yt+wIq07Bn90Sv+62xajwNF3ByNpXqZu+X6jwJn3BqLH06txvi3m3o98nDyeuWiu9vFvZzH1l1QMnH+gDeJTQKD13J/Jq+oa/vlcGMK79cHETUUs1XXU7cWs+GS8/T8w61Ic/xjPT1nbNsW8CSS7gYsXClrwWtvWosDxj5/HlLXn8aCuD7XKjorj+Pj5KVjb6OCarNWYOXMVDsl0Kx4bapC1eiZmrjqEx070emqysHrmTKx6/IyvgSq4vMtvYd7x5Y4a+V/NxWqbN7FuXkzzFy1YDaHixkVcyC/XLd9fVJc+xZ+/9sZfvpzZNo9ueuTjpEkuGqkzjyKGta95PPLXRoKMi6kC068oFRB4kNynK68qKJW2CAxph/9buASZ1brVGgjE93Lj/xKUBafw475cFLfZqbkadeWlqHioV62VKDj1I/blFj+wKw6tsqOyAKd+3IfcRgc7j96IopLNGNdBt+KxwRmjNxahZPM4PHai1+M8GhuLSrD58TN+M9R1MpRVWZOMfLlDkPR+DRvWT0N462euDxhWl8QRmL3pU0wMbvS2vdbwyMdJk1w0UmceRQxrX/N4NFob1XUoL61gU10BgUcM7jmvbY7yMv01zolSP/icXvB3prgluXSPW393G03w9qepezVvC6b9s2NowIJDuvdeE8mzFtCAmNm0T/fOW9nxFTQ63Jd8g0LIzyuAkmZu07z3v/z7SRQeP48ONLwGuI4OL0yifq/tpNIjS2hIN2/yCuhGIT5u5BkxmTZe1b3p+PDblDxiIX22cAT17hpAHm7BlL7mNOV+NYUSegSTr1t7Cp/6PeVzr2XmkB2nFaPDydc3iEL8vCggaSZt070ruL6tte+MZG0FkY+rJ0W9sZ0KVSoq+lcGBXs4kljiTN6d/Cl4zDrN+8VN6WMOVdEemjfIn9x9Asm/cwxNemUoeXuOJ83rt+v20+yYAbTgUIMVKWvBAIqZvU/zTmaNnMMX0PJpEeQqklDY3Cw6smQIdfNm+nQLIR83T4qYvJF0JjKt170i+ldGMHk4ikni7E2d/INpzLpCUpGMjq8YTeG+vhQU4sfsnkQzt9W/p74JPPZUXt5AL/bxIa/OIeTvE0wZ66+3yo6qon9RRrAHOYol5OzdifyDx9A6djCnX2L0Ww3vdDfZlvwwvZ08ghZ+tpBG9O5KAR5uFJy+hk7nfkVTEnpQsK8btQ+fSt/XB4s8i+0/it75bB4N69WFuvi5kXuvcfTF+Xq/VNIvayZQlJ83BXQNJK8OQZTy1jbKM2Ko5rbIZ2vldPjtRIp+y8g7yVm+bXixD/l4daYQfx8Kzlivi2FLfcNi5u1kGvXOZzRvWC/q0sWP3Nx70bgvzmtzU2OL4bRg+TSKcBWRJGwunWAJbdoPSrq84UXq4+NFnUP8ySc4g9ZzAnHtJEbTW/XGr/yF1kyIIj/vAOoa6EUdglLorW15Wvnq7b/2HRrJ7B/k40qeUW/Qds0701nY8+S5AZbkh9E81u7dGM37wTsMo+l/Hkq9unRh9aID9X5xPf3W4GIT+qhM5Q53yBqaEOVH3gFdKdCrAwWlvEXbdEFhjWyG1NGeKZ3I4/kftEuW2srKmOdtl+m8d94g8u/gQ4EBgRQ96UOa80wczdK+lJ6/9hvECRf3yTRi4Vp6Z2Rv6hrkQ66eUfTGdq39mBC0ZEg38mbx1y3Eh9w8I2jyxqtW1596W1s2NuhzsdZEnbE499owPuVZbN9R79Bn84Zp4tPPzZ16jfuC6ktQQ+2rNR6Pd+u3cx0z6xbtmUeD/N3JJ9CfOsdMoleGepPn+K2ad91z8MWugMD95r5OXlP+kU9XVqeRu9co+tcNlm0Gk9e7tG2CN/lN2tWQDHW7J5Nf/aSsJpOmd/emIcvPUg1bVOZ/Q2P8fen5zWWkyv8nPeESwNrhtjDq9tFrwe709Lpiupu7nb45dEM7wMvP0ZJ4R+o566h2Nzb4+Nl5UOL8/VTCJpmF60eRp1MHCstYS+dYU3VnFlGkQzjNO8lNtWsoc3p38h6ynM5qBaBvxviT7/ObqaxRWwPm/IeKWL5WH55FYe360sIz7FjlXSre8Cy5B06lnSUyqrzLduDRh59q2vtyILkl/ZVymV2UhXtoRqQTiTvo7KSxqR9N2tVgRdo92a+hyGjktG9HAcM/psNXf6fLN8ood/s3dOiGxkLMREso3rEnzTqqrXB8einvFtOGZ90pcOpOKpFVklat6dTdewgt1xqJ8r8ZQ/6+z1NztfjsKacDb3Qlr/QNVMwV5Zo8upzHdmqVHZV0t3gDPeseSFN3lpCs8q5m4NBMQDyepx/MxBjbkab42ZFH4nzaX6IiVeF6GuXpRB3CMmitNlhoUaQDhc87qT0x0+wvoXahk+i7q8yW936nT4d7kvvT6+gW06lm/+vUzS2a5mex+OW6PruC0jw9aNT6W9zRjTBhi0YTknpP1yM/8AZ19UqnDdoDKO9ynkYfy33Dte1HknahNOm7q0yCe/T7p8PJ0/1pWscJr9HNntoFDKePD1+l3y/foGo+28kP0BtdvSh9Q7FW17zLpFWBtdPJg57XGp/2v96N3KLnU1aZVu6zK9LI02MUrW/ok9l/wBz6jzYQaVZYO+q78IzG3nKePDfAkvwwlcdN0OwrtqfQqVvoOnOx/OIqGtrBnfmwiG3l18dY7rCgoNe7uVH0/CzSHnKWVqR5kseo9ZqYsUY2QwwnrxbbysqY52u3eu/LFOiWRH/VFi3aMyOSnMQdaLy2aPHXfoM40camnccAmvOfIhbF1XR4Vhi167uQNGaQ59L2bw6RtpzJ6dySeHLsOYt05awRltVzy8aGxrlovM5YnHttHZ+SdhQ66TvSlqBPabgnNy5qawy3vb72GYvHxtuZA+nlQDdK+muuRsfCPTMo0klMHeonr2ZiV0DgfnOfnzYgRtBL7+O1Tv8/3nv/P6iw4nYB+Ykt2FEcheHJtii4eBFXasOR2LcWRzNzcM9vFEYnVmL395moYfvWHd6MXZUpGP2UF+zDn8LYAX4QVxcjr4DQMcAFtwtvaRtl2DinYfqCZHiKRPAemIie6gCkz52IUAfArmccIt1v4Oo1BScAtuwoRtTwZNgWXMTFK7UIT+yL2qOZyNHdssu1NWPRYHiLAcfIVMR75OPyFXas2B5O9hLYiKRwcHGFs72YVx/eO4AVp7D751IkTHgJ4fas6Y5D8f6iZ+FljeekiZizZjrig7ogxK89wp8aiwF+YlQX56GAOiLA5TYKb+mdY0ovsb0T7CU2EEkd4OLqDHuxHCe27EBx1HAk2xbg4sUrqA1PRN/ao8isN1I9vPYUwcXNBXfP/4w9Z2VQOwQgJIA5pFV2FMPeyR4SGxGkDi5wdbZnawwx25aNM9KmL0Cypwgi74FI7KlGQPpcTNQGC+Ii3XHj6jX9V2o2Thjx9jI8FyQFbLtgTMYAKJl+JxRyHP52K4qTXsGMhPaae3Ucek3Cy2ki7N+xX3tsAyZswYPIxQ0ud8/j5z1nIVM7ICAkAA5MA4t9o8EGTiPexrLngiCFLbqMycAAJdv3RL12UiTOWYPp8UHoEuIHWz7biVzg5nIX53/eg7MyNRwCQtBMBflhfLu1GEmvzEBCe41F0GvSy0gT7ceO/VxWMzj7z1iEwdpARGq8B/IvX9HYW2omz63BZB4bwcZlJN5emo7OzMXSbuPwfJISh/cdN6tP89zhDvkWW4uT8MqMBGgP6YVJL6dBtH8H9CawXDZTWGUrK2LedLsKnNr9M0oTJuAlbdHC0PcX4VmrilZjbOCcNgOLBnuzHHZEZGo8PPIvQ2MGaTieGjsAfuJqFOcVgDoGwOV2IRqVMy0W1nOLxgYDjNUZa3OPH6vi02kE3l72HLQlaAwyBihZTp7QbdVjLB4bozi1Gz+XJmDCS+HgNOo49H0setar4T5DS2JXQOB+0tJqYjl2UZjx3liov16EVVbc0K4quoWS2uNYOWEMxozh/sZjbUEwwgNdIRZ54+nRg1C79wdk1tQha/Me1D0xBk+6A+qbuzAvrRt8g2MxLH0sFv9UBlWTm2xtdP9CKmVFx0a/zAZoqYSg4nZXFeFWSS2Or5yg638Mxq8tQHB4IFwbJbrBsbZqKE3c9sSrj24foyiLUXzHCd4+zroVrPDY2lrlOBupJ3zYYKRFjZu75iGtmy+CY4chfexi/FSmanYfsmV6qVB0qwS1x1digs5GY8avRUFwOAIbG4mD15626Pvmp1iacAFz44IQOnI+tjcbJLS02I5GsKgtfbCw2GCxojcMCx8JSBMs9YghtZPoPgP2np5wqZZBplLgZmEp3DoFwEm3DZDAz88DitI7uuV6LLdFPbZ938SnSxNwYW4cgkJHYv52bnJhhW90iKV2TCod9p7wdKmGTKZzvI0Unj6eDXHHazvbvnjz06VIuDAXcUGhGDl/O5qpoLiJwlI3dArQWwQSP/h5KFB6p1K3gmFgb1uodYFoSZ5bg6V5zIwEvYvt4enpgmqZzHJ9GqG4WYhSt04wPMQPHopS3KnU62KxbCaw2lYWxrzpdpUoLr4DJ28fNFQtluO2rRptDISArVqpvVdTfRO75qWhm28wYoelY+zin1CmIv2PhOuxtp7zjQ1msT73zGEgR0vi00qUxcW44+QN/bAjhm0jB1oauwIC94tWlRNLcRu6AAtSrmLV+7tQ3igNRWIb3Lt3T7cENoGihl8yipxd4eyYiiVHspGdrfs78wu2vRnBhncRPEeOxmDFXmze/SM277mHoRlD4cbOePctnobViqnIzLuG8zknsCpdf7ZoFSJndhbtiNQlR/T9Z5/BL9veRIQFv6ht2ie/PjyIHeHkUIPyMv0ZO1Hj33uKILa5x+yoW2QWVBtsb4J8HxZPWw3F1EzkXTuPnBOrkG7xFZFmWsGZnbU7pi7BkQYbZePML9vwZlMjmbOncySmfn4MV899h4zazzHxTxu0h2n+r8cqO5pRq8U+4aOR6RXlZah2cUd7sQQuLu1QxSaq+mhX4/adCth5eOqWG2HCFqZxRuTUz3Hs6jl8l1GLzyf+CRuK2FpLfdOAgfAoq3aBe3vjg6052zlHTsXnx67i3HcZqP18Iv7ECdQYiQtc2lWxiZ3eIlDfxp0KO3h4uupWmMKaPLcyPyxAf7QC5eU1cHFvb4E+zaWTuLigXRUb7A0OuYMKOw94upoJXotpw5poAF+7Yjg6OaKmvFwf79wtarqPHHy13xrk+xZj2moFpmbm4dr5HJxYlW78W6lW1nNemvVnRV1k+97X+Cyr1sZnM/gjQOzoBIcaVgMahh3uFkPdR8aDiV0BAdM8mCgTBWDCe2+g88/fYG95/VmZLfz9fVB9LhuXuKsy1SexbOlWlOg2S/snI9b2IL79vtGz9BQVqKjVfW4/DGPS1Ni5cA520JMYncqdAqogK6+ExNsfvvYsmUqPYf/pFj7aQ9ofybG2OPjt942ee6dARYMAZmjnALvKO7jD6cYwp0/diTV4/a31ONv04rSkH+L6iXBsxy4UcbapPoWVH2/Tfuaw9Ye/TzXOZV9i0nFmXIalW0uaX3moRyVDeaUE3v6+7LxcjdJj+3Haimf/tHOwQ+WdO5q+uKsA/ZNjYXvwW3zf6OGAiooKNLMSrz3rcOlkNm4zoe0DU5CRGoh7VbqrVVba0ZB2cLCrxJ36g5tgXVsWQDLs+ccynKhin9UF2LLpIERxyYiRShGXEg/K3IhN17U9qQq2YP1eJVKeHqRZ1sNjCxPUXTqJbO0BSMlIReC9KlTWWeEbDQTZnn9gmVZ4FGzZhIOiOCTHSLWbm8Bru7pLOJl9m7Vij8CUDKQG3kNVZZ12n3qkcUiJJ2Ru3AStSVSsz/XYq0zB04P4b5OwKs+tzQ8zkGwPVi07AY2VCrfh+0MixCXHWKSPYe5wh6QgnjKxcdN1rQ1VLGbW74Uy5WmYNQHDZM0woA1rogF87UrQLy4ComM7sFNbtHBq5cfYpi9avLXfGlSyclRKvOGvFQLH9p82/iiz1tZzXprWGSty7z7E5z/q45PVmE0HdfFphKbx2BhJvzj0Ex3Djl3aR11Wn1qJj7fpH3tpLnbVBTvw3rRF+OGaXn8BgbbkPk1exZBIbNmf/qqNbe838OFrYWhn4ww3Z+7qqy3CX5iOEaVLMTgiATFx03A+cRT6ONhqrtyIvDLw0YoncXVWf4QmPIG0lFj0CEnEu8fqTwVdkTb2KTj9fhVO6WN1xd4BgydPRsCPryImPgH9khahJKg72kl036Owf6V23B19OsQStoqts9VdDbZhn6VsHff1iMgLGR+twJNXZ6F/aAKeSEtBbI8QJL57DBoJmrbV+FiGNHYkhrnsxPSkgUictA5FHnz6qFF+cgvWfnMQeU0HIpEP/rhoPnplMZ1iBiE25mWcTkhHP52dYBuOF6aPQOnSwYhIiEHctPNIHNUHDrY6yZrK6TAYkycH4MdXYxCf0A9Ji0oQ1L0dt5sWXr2kiB05DC47pyNpYCImrSuCR8ZHWPHkVczqH4qEJ9KQEtsDIYnvosFN9fDa8y5++yIDfXvGI3VQFAavkGPizAzNYdbZsQnSWIwc5oKd05MwMHES1hWy0ttIP/4YYzpL7VhsaFpicDHNrbPVfXdgwz5L2bpGt3DYOCLIYR8mREVjYP84zMhNxAfvZ8BLJELHcR/h70MuY3ZMOBJTExEePRv5z36CZRneuoPrMW0LiUQKO71ADdz97Qtk9O2J+NRBiBq8AvKJM5ERYAsvS32jwQaOQQ7YNyEK0QP7I25GLhI/eB8ZmstYTW1hxnZ3f8MXGX3RMz4Vg6IGY4V8ImZmBLCjGrUj6ohxH/0dQy7PRkx4IlITwxE9Ox/PfrIMGd7G+mxsbzN53hhr86NJHhvA+m7XYxBC9o9Hv/4D0T/mdZyJW4z3M7ws0Kdp7hSCBQU++vsQXJ4dg/DEVCSGR2N2/rP4ZFkGtCbgk42nZjA0dU1jPCtsZVXM87Urgs8fF2Fe6EG8EhODQbExmHLMB+Hu9Tblr/1N5Wga9zZsWcr64czgMHgyJgf8iFdj4pHQLwmLSoLQvR07XrdvA9bWc76xgWEgU7M6A8tzry3jk2HjGASHfRMQFc3iM24GchM/0MYnh0FbzeNR3Wi7yOePWDS/F7LYOBEzKBYxL59GQnq/BrlEZmJXeeMwNm34Nw4aC04BgTbAhvvVlu7zQ0FdU4Bfc25AEhKJUK/mV3nU1QU4m3sNFWIPBIf1gK+j8aRtjLL0Ik5dqIBHWBSC3czvz4u6GgVnc3GtQgyP4DD08HW0eMavrriGUzmFsAuJQG9f7aUUo/qob+KLUTH4pO8POPSXaNhr9jREXZWHnNxCSIP7oZdP04dBqlFT8CtybkgQEhkKI2ZsghKlF0/hQoUHwqKCYZ2J1Ki4dgo5hXYIiegNrVpqVBecRe61Cog9ghHWwxcm3WTSngqUXsrG+WIR/MIj0MVNf+JjsR2Noa7AtVM5KLQLQURvXzbkNqclMdYM+V5MDRmP2pV5+CTyInJuShEc0Qs+Bs5UoeJ6Ls7m18G1ax+EdTQmDYdpW5hCUXoJ2eeLIfILR0QXNzbtqMcS38ixd2oIxteuRN4nkbiYc5PFWQSLM2ORaIhJ2ylKcSn7PIpFfgiP6AKTKqgqcD33LPLrXNG1TxhMmsQIlue5tflhBhbDeTkspiRdEBHW0TBfefUxljvcIdeRezYfda5d0Ye1Z5EJLKgZjWnTmtgI3nbVVbh+Rpt7kSFn8FrIC5CvysdXz2ilNVf7LUZZiounLqDCIwxRwW789bkV9ZwXo3XG0rrYNvEp3zsVIeNrsTLvE0RezMFNaTAievnwxIbxeNSjRlVeDnILWS3rx2qZkWcQtyh2BQTagIc+eRVg4/zxeRjwhhgr972HWCH7H08aJq8F+HqU+Unfo4V+8lrw9SizEyGBh89jVzPkezAl2HDyKtC2NExeC77GY1eCBASspO1OwQVajDRiPvYfFCaujzViT/SMT0SYz+OYUmJ49oxHYpiPUBAeEx67miH2Qs+ERPR6LPPj8UDs2RPxiWEQTCzwv4Bw5VVAQEBAQEBAQOCxQThHExAQEBAQEBAQeGwQJq8CAgICAgICAgKPDcLkVUBAQEBAQEBA4LFBmLwKCAgICAj8j6CorkJdS9+CIGCIWo4qWTWaPs1WVVuBKqPP0368eZRi5z5MXlUoz7uAa2VN3ttRXYiLV4rR5D07//Mojr6LwUnzkPlfGOiPBOpCZG38GpmN3nRjEmv2fVgojuIvqQMx/0ArAoa18e7gJMxrTdC1RRsCjVDg6LuDkTQvU7f8KMJk/EsqBs4/oH2wv7UIMfPQURdvwB97PoXVV4U3X7UW1aUvkdGjIzqH9kDE6z815IT69jZM7h2FN/ZwbxlsW+rnC62h5XOOcmyb2guD/3ZB+1Y1kzyYWnYfJq93ceKDJxE25ANkN5yOlGPrtGjEvvYDioScMYAqbuDihXzjrzQUaD01WVg9cyZWHZLpVvBgzb5mUBz/GM9PWYvzbf2CGZLhxsULKGhNwFCFpo38h92GQCMIFTcu4kJ+uW75UYQg42QsaOHrZVsbM4rj+Pj5KVjb5kn1oFHg+MfPY8ra882u2N1fVLi0/lNk9R2HsV3Mv/hEgA8lzqxfjl2dFuHMjRvIWZ4C7TscqrD/3YXIHvkJPn7Gs80nWPXzhdbQ8jlHewwfPxQ3v/wMR3gnvg+mlt2HyasTBs+agdjfP8PftpZqzjyU5z7BR1sd8cLcFxDIckZdJ0NJcRlqrZnIKqtxu6SCpX1zlNWlKJHVNT/LUddBVlKMMqs64g4rR2mVsZ4sw6Q8ZlDVcv0aKWct0kONOlkJistqzZwlNUUNuew2brdEf1UtykurjBdktRyy27dhfbMq1JaXo7axMVkslJbITHx9oUBV436cR2NjUQk2j+ugW1EPZ59SVDSWx9S+vP0Z95uy4BR+3JeL4mbGV6K6tAQyK7970cSkgbCGtDTmGsPbhqIKt29XGc0/Xr+bsV3bwMVIKYynTgtqjUla5rtmWJPPRu1uPrdN1hIT8NqJyVtearz2WiILL9bYQlmAUz/uQ27zpDIb/6qaMpQ3LiKKCpTK5Cb2N1IbGjATA1wulNc2tGvcrkoUnPoR+3KLW2CzJvXQGvupLmLz5nOIGDEcmrc+18Pbhq4/qwVtYVxwshiNNXPtNR0nWtJ/k7FDhykfFheVwikgSPM6XJFIZ1C1Gr7PrsamdwexqZ6FtHhsrIc/JhVVpsdzvjphLKccB47EoJqd+P6otZdtW1knjME957XtqaafX+tKTtHv06/3ymnbRH/qMHwt5dUeoSVDupG3VwB1C/EhN88ImrzxKil1RxlHSZc3vEh9fLyoc4g/+QRn0Pp8lXaT7DitGB1Ovr5BFOLnRQFJM2lbPtdaHR1ZMoS6ebN13ULIx82TIiZvpKv8HRGpimjvvEHk38GHAgMCKXrShzTnmTia9XOdZnPd/tkUM2ABHZJrFonkWbRgQAzN3qfdbloe09TtmUKd3NPo9bfSqFdwEHm7elLUG9upUKOiaT1kW6ZQePw8yryraYYhpyOLBlLkn3ZR2ZElNKSbN3kFdKMQHzfyjJhMG80qT1T5yxqaEOVH3gFdKdCrAwWlvEXb8swcJz9MbyePoIVr36GRvbtSkI8reUa9Qdu1CjAq6Zc1EyjKz5sCugaSV4cgSnlrG5lv9m1KHr6Alk+LIFeRhMLmnmBrZXR8xWgK9/WloBA/pl8SzdyWr4sfFZXse4+GM719g4PJz7sLpS45QnWcfInR9JbGh3LKejuZRr3zGc0b1ou6dPEjN/deNO6L82wLt7nxvhym+9PIN2IhrX1nJPXuGkQ+DX5TUdG/MijYw5HEEmfy7uRPwWPWafwpO76CRof7km9QCPmxHEiauY3MhIcmJvdwMenOYtK/M8VMeoWGenvS+K06x7cg5ljQ0ZROHvT8Dxa0oSqhfe8NZzHoS8HBLDa6pNKSI8w+mjbcKe31tyitVzAFeTf1O5+vLIM/3+R0mPlyxMK19M7I3tQ1yIdcPaPoje2FLBIYddbVmvLvJ2ny6UBDPtXR4YVJ1O+1nayamfadPGs+xXbuRJ06af/8e7xM22u0LTSHry7V0Z4pncjj+R80e5qyex1PbpuOSW5jFs2P7dwgZyf/HvQyJyivnVgs75lHg/zdySfQnzrHTKJXhnqT5/itxJmJTxajGMSddTVaVfQvygj2IEexhJy9mZ2Dx9A6bVKZjN16e3y2cASzRwB5uAVT+prTlPvVFEroEUy+bu0pfOr3pB1OzNQGhun81cbi8AXLaVqEK4kkYTQ366Bxu7J8/ldGMHk4ikni7M38EExj1rGYrdtPs2MG0AJ9sFPWggEUM3sfs5ROF4N6mGX1GKe6sYpSnfrSwjP3dGv4fSA78iGN7NaROnUJIB8Wh524Wpb+GRvH+WW1Oi5YbL6dPIre+WweDevVhbr4uZF7r3H0xXlt+2Zjvsk4YXX/psYOk7lRShsnhJCnk5jETp7UqXMszc+S88SHKawfGzXzBY/ndUt8McmVkH303nAmv28wBbM+uqQuIW3p5ptzMHjHlBJa+6SLxs71UdQcw1pmvT8s4z5NXpnhrq+hoe6BNPnzDynVrRfNOswKljyXtn9ziG5wEc4C/tySeHLsOYuO1ueAMeQH6I2uXpS+oVgzKNXkXaY8zeBQQ5nTu5P3kOV0lltW5tM3Y/zJ9/nNVMbazt3+DR3SdkTyc0so3rEnzeLtiE25975MgW5J9NdcJquykPbMiCQncYeGicLdbRPI228S7dIuMq/spsl+9RMJPnlMwwWSn60bxc75DxUxf1YfnkVh7eoLjGk9VDc/oaGufjRpJze0Mljxey3YnZ5aV0R3c7fTN4duaAoJO4iWxDtSz1lHNbuZpGY/vd7NjaLnZ1GZxtBnaUWaJ3mMWk+36oPaGNyA5GdHHgPm0H+0CtCssHbUd+EZTXDX7H+durlFs+Qu0/rv7ApK8/SgUetvaQ43hcYu9u0oYPjHdPjq73T5RjXVZE6n7t5DaLnWwJT/zRjy932eNnMGrtxFkzt70BPLz2kGVlXZadqy81eSNxkw90zxI0m7UJr03VVm3Xv0+6fDydP9aVrHKdlkUsfXn0Y+Ow8aYMxvyrtUvOFZcg+cSjtLZFR5l+1Qk0nTu3vTkOVnWaRw4fENjfH3pec1wpuGPyZbFnOGevK3UblrMnX2eIKWn+P2VVHZ6S2081eWRxq/25JbrAm/8/nKQvjzTetLO48BNOc/RayHajo8K4za9V1I2ilVamkAAOCiSURBVNSxrtao8v9JT7gE0NS9nLyMun2afHp6Has7vL6TU7WsnMrLb9D2KSHkMeSfdIWZwzh8dcmw4Juyu5wnt3ljkiGvljE5y+nG9ikU4jGE/skJymen6r30cqAbJf01l+WUkgr3zKBINmB30E1e+WQxikHcWVujlXS3eAM9y8aUqTtLSFbJScQfu/X2SJy/n0rYSWXh+lFswtGBwjLW0jm2f92ZRRTpEE7zTnL2MVMbeGNAe6x9uwAa/vFhuvr7ZbpRZtquyrvFtOFZdwqcupNKZJXElQcW7DTBm9VzfbDT7sl++hOFZvWwzOoxrm7PZPJzTadvKnUr+HygvExLE9l4sOg001dFd7a/RF06TaDNd5itzMjaorjwk1C70En03VXW973f6dPhnuT+9DrN2GM25puME1b3b2rs4MkN5d0S+m6cD/mM+46KZazPFtT3loyNnL4Nk1fePitp1+TO5PHEctKWkDI6vWUnaUs3s5nJOYe5MUVOB6d3JafhX7ApvCkMa5nV/rCQ+3DbgBZR5wmYP7Edvv3TX/DroNmYEWsPSMPx1NgB8BNXozivANQxAC63C3HL+NVuLSIXuLncxfmf9+CsTA2HgBAEcK9ElJ/Alh3FiBqeDNuCi7h4pRbhiX1RezQTOXIpwp8aiwF+YlQX56GAOiLA5TYKeTtS4NTun1GaMAEvhTNZxR0x9P1FeNbg+xUeeOXR7WMCG7fhmLVoMLzFgGNkKuI98nH5CneZ37QeIp90jE25i93f/QdVbM+6w99jd2UKxjzlDfvwpzB2gB/E1cXIKyB0DHDB7cJbmr5MIT/8LbYWJ+GVGQloz6ns0AuTXk6DaP8O7K/R7mMSG2ekzViEwVoFkBrvgfzLV5hF5Tj87VYUJ72CGQntNfeoOPSahJfTRNi/Y7/2WD6kiZizZjrig7ogxM8WJ7bsQHHUcCTbFuDixSuoDU9E39qjyGQGlmdtxZ6KgZg4MVTzbn5R+wikDw9jFmyKDZxGvI1lzwWxbbboMiYDA5SsjRNNv1aR8/bHYeOchhnG/Ca2h5O9BDYiKRxcXOFsL2bhsQU7iqMwPNkWBRcv4kptOBL71uJoZg7Pj1/MxGQrYq4B3jbkyNq6BxUDJ2JiqMaqaB+RjuFhOqvauGH4LON+N2e7tsEGzmkzsGiwN8RwRGRqPDzyL0ObOtbVGpHfKIxOrMTu7zPBhXvd4c3YxfJp9FNeuMfrOykcXd1gf3EN3vnBCzOXTkYwM4dxLK1Lpu0uNZPbJmOSIXV0hZv9Rax55wd4zVyKyZygPHZSnNqNn0sTMOGlcJZTYnQc+j4WPevVcK+ZOVn4sbZGi2HvZA+JjQhSBxe4OjOJLIh/zh7TFyTDUySC98BE9FQHIH3uRISyMcSuZxwi3W/g6rX63DddGyzJX2niHKyZHo+gLiHwa2/armJ7J9hLbCCSOsDF1RmsPFiGQT1sb/UYd/dWEcqdOsC9oSjy+EB5A9cLHREW1RMOXPz17oVOsnzcqDE/HrYoLmycMOLtZXguiAln2wVjMgZAyfzIlWWz7RnYxdHq/k2OHTy5IbZnfmM+tJHYMx86gqyu760cGxm8MSnPwtY9FRg4kcW6VilEpA+HvnSbmHOYzSkxvLzcoS4utPj3S62rE6YxH4ktxgFxr76IPtQBo14ZjY5cT+qb2DUvDd18gxE7jE2+Fv+EMhUZ3FPRDNu+ePPTpUi4MBdxQaEYOX87NLVGVYRbJbU4vnICxowZo/kbv7YAweGBcBWrcXPXPKR180Vw7DCkj12Mn8pUIN6OlCguvgMnbx8469ZAbAtbSy3EK49uHx5sdP9yBUVqq4ZSExg8eog8MXLsUNDeTdgrq0XW5j2ofWIMnnTnzLwL89K6wTc4FsPSx2LxT2VQ8SsPxc1ClLp1QoCTbgVD4ucHD0Up7lTyH6tBrwBLeluoNQoocLOwFG6dAqBvVgI/Pw8oSu/olk1jI/WEj2e9A1QoulWC2uMrMUFn3zHj16IgOByBzMCK4mKUu3nDh0tUM4ildkwKHfae8HSphkzWNBP5+6vHuN+aoyq6hZLa41g5QdfWmPFYWxCM8EBXVg5MYSYmWxlzGnjbULD+y+HG+jdpVqN+t8x2bYOBALBVK7X3VFlba0TeeHr0INTu/QGZNXWafKrT5ZNZ3yl+xfI3PwFN/RgzwpufLumxtC6ZtrsluW06JhX4dfmb+ISm4uMZ4Wwrg8dOSpZTd5xYTumDD7aNCmJL6oyeltToJlgY/w32YPEhsWETDt2ixj4SgqpRn6Zqg/n8tYHU04dNkjULvHZtKYb10Hr73VPcA9lKtH7XwNOGXW8kxRD2rliCf/+4C5+/vx5neyQjyVfvf1O0LC7EkNo1WJ6Z3hMu1TJwZdlce4Z2sb5/k2OHFT60vr63bmzk4O1TUYzicjd48wyIRuuEBTlla2vL9ruHexb+4Kt1dcI05iOxFdg4OaGdqB0cHbTdyPctxrTVCkzNzMO18zk4sSrd8MZxEzhHTsXnx67i3HcZqP18Iv60oYhJ7szOvh2RuuQIsrOzdX9n8Mu2NxGh2ofF01ZDMTUTedfOI+fEKqSb7UgMRydH1JSX455uDbjbKnQfNYjEsLnHnKZb5LKc7aKFTx7m6xYh59fDbdjzGG73Ezb9sBPf7b6HYRlD4cbO6PYtnobViqnIzLuG8zknsCpdf7XEFBIXF7SrYhPVBuVY0N2+gwo7D3i6WuAko0jg4tIOVSwZ9c2qcftOBew8PHXLliKCs6szHFOX4EiDfbNx5pdteJMZWMJiza6qQlPszNPIq4pylFW7wL190xLD3585mlpM5OwKZ8dULDmibyv7zC/Y9mYETLfGxaQDi8ky/dl745hsi5jjbUMCJyc7VFXIrLzJvnW2a4Av38xgfa0RwXPkaAxW7MXm3T9i8557GKrJJ85EfL5T4crat/D32xn4259jTU/yOczksx5Tdm9ZbtejurIWb/39NjL+9mdwX4Rx8NlJ7OgEhxqWH/rga2T/1sliuS0a0XTz/ai5JmqDtfnLH3/G9BRBbMNiXR/sUPMFewvs58hyUlJTiYr6ZvnaUFzAiRwXRHYrxtbVn+Jnuwn4dstcnV35ZG1FXBiYvgzVLu5oL7a2Pev7NzV2WFNDrK/vrR8befuUOMHJrgoVlg2IeszmFKGysopNytzgZpFTW1kneGiLNixGJStHpcQb/r6scqpLcWz/afOPa6i7hJPZ3PPS7BGYkoHUwHuoqqxjJwv9kRxri4Pffg/9YzkVqKio5TpCeaUE3v6+7Cg1So/tx2mzHUnQLy4ComM7sLOIOyuoxqmVH2Ob5rMWW39/+FSfQ/YlBVuqxsllS7G1RLedT56WYk4PxxSMe8YN/3lnFv7P5kmMSeXO4VSQlVdC4u0PrZmPYf9p84+2kcalIJ4ysXHTde2AqSrAlvV7oUx5GoO42zRahBRxKfGgzI3YdF1rFFXBFqzfq0TK04M0y5YjRf/kWNge/BbfN3oOq6KiApyFpdGJ6K88gB92FzNLMSqy8fXGI5qvgA0hyPb8A8tOcDdbqFGwZRMOiuKQHNP0ihl/f2Zp5wC7yju4w4UKQ9o/GbG2B/Ht93n6CYmiAvzhwcVkP01M7jIWk20Rc7xtSBGd2B/KAz9gd7G2z4rsr7HxiLn7SMzYru4E1rz+Ftaf5f81PG++maFFtab9MIxJU2PnwjnYQU9itCaf+H2nvrkRf15yEcM+WIQUV902U5jL5wZM2b2yRbmtQX0TG/+8BBeHfYBFjQTls5OkXxz6iY5hx64iTU5Vn1qJj7dpP7MjWy4Lh8W2aEw7ONhV4o4+qdq45pLJ2mBt/pqLv3YOdqi8c4dJq8PWH/4+1TiXfUmzrvrkMizdWqKztRFaYD/bLsHoVJOPa/X1g68NRSFuFNfinnMonnhmNEal9ITjPd1TFHhlbWFckAx7/rEMWtOzsWfTQYjikhEjtbY96/s3NXZUWlFDrK/vrR8befuURiOxvxIHftgNbQmpQPbXG2G+dJvLKQWuXSuEc1Cw5ikL5mllneDhvk5eRSJbSCXcJWntssPgyZgc8CNejYlHQr8kLCoJQvd2EjZE83D3N3yR0Rc941MxKGowVsgnYmZGAGvcCxkfrcCTV2ehf2gCnkhLQWyPECS+ewxyh8GYPDkAP74ag/iEfkhaVIKg7u0g4e1IBJ8/LsK80IN4JSYGg2JjMOWYD8Ld9SayDX8B00eUYungCCTExGHa+USM6uMA7io6rzzaw43DhJLYcXdY6bCRQCpl67iv58zqYY/4cc8hoKgQTiP/iGTNJNMBgydPRsCPryImPgH9khahJKg72vErD1HHcfjo70NweXYMwhNTkRgejdn5z+KTZRlmgpTJKrVr8DH3ZYSE+3pOYsssKkLHcR/h70MuY3ZMOBJTExEePRv5z36CZRneuv1NwOSVNrYLa8sr4yOsePIqZvUPRcITaUiJ7YGQxHdxjBlYFPAiPnw3AllT+iFiYDIiI/6AL/NEEBuRzzHIAfsmRCF6YH/EzchF4gfvI0NzSt14X/7+msnX2G8MaexIDHPZielJA5E4aR2KPDLw0YoncXVWf4QmPIG0lFj0CEnEu5rGTKGNyfm9sljOaGPy5dMJSO/Xypjj9KzPS942RAh48UO8G5GFKf0iMDA5EhF/+BJ5Iu4qNdeGab/z2U5dfhJb1n6Dg3lmJq98+cbgdLDTC8BcwH0NLNHcVtGiWgNXpI19Ck6/X4VT+tiGkzaRl2nf1RzYhv8UF2Hr5O7wcHdHB+8kLM41oZeZfJZwMaV1igm7O/PnNl9M1hzAtv8Uo2jrZHT3cId7B28kLc7ltZPI549YNL8Xspi8MYNiEfPyaSSk94ODxgEtqTON4q4lNVoai5HDXLBzehIGJk7CuiIP/vhvag8x1z9bZ6v7wrRJznIxbKo28MUAR9NY5I8/KWJHDoPLzulIGpiISesKobYNxwvTR6B06WBEJMQgbtp5JI7qo7M1o6kuLbCftFcM+rlcRHb2Xe0KvjYcojFkgAq/HT+Nk4f3Yde//4aJ/XvhqTW/QcUra8vGH9g4IshhHyZERWNg/zjMyE3EB+9nwEtkpr2mdmlB/6bGDmdeH9povj6X2ErYJ/4aYZwWjo1MD67OcvD2KQrAix++i4isKegXMRDJkRH4w5d53JdZ2jZM1QlzY4ryPE7lytE7OopFsWn0tayF8WAJuh9uPTju3aHfjh2i41fKNb+wswj5Hbp4/CAdPPk7lTf9Ja+qivJzDtOBg8fo3M3qRm3eozu/HaNDx69QucUdMVSVdO2XQ3T411tUd7fxr5t1qKopP/swHTlXTEZ/12lSnpbCr4fq+kpKdelGMxoeW6Ll3p3f6Nih43TFKuWJlLJrdDrrAB35tVDzC8a2QUmya6cp68AR+rWwta2qqCo/hw4fOEjHzt2k6ibq3S08S0cOHqGztxr5rAH9ryBrqvKYnqb2awx/f3yoZFfpxIEsyrmp11lVlU85hw/QwWPn6KaljbGYvH46i46cZTGpW2VAW8Qcbxt3qfDsETp45CyZNZcBxmynohufP0V+UQvpuCVtmcs3PlpSa3hoke+aYU1dMm73lua2SXjtpKLK6yx3ORmMBF/rZGlBjVbJ6OqJA5SVc1Nfn9qk5lpWG6yKATN2lV09QQeyckhfHlRUnZ9Nh4+co2KLgt1a+5XRt2O8KeiVnzS/qtdivA35wenUreNY+l6mW8H2OzE3jByeWE1Fmv34ZbUqLhqeQlFDVXm6WGtiemvjrCVxaXTssLKGWF8jWj828vZ5t5DOHjmoGTuaRzMPJnJK+dsSinVNpmVWPuqqzWsWw4b7n24eK9AU+R5MCX4B8lX5+OoZe93KRwl2ZvzXREStT8B/cv6GOL5TIQGGHHunhmB87UoUfD0Kj6JH/+tRHMe8AW9AvHIf3ott8f0oAgJtzP9Gbaj56VX0maTAinOfY3ijH+c2RXFiLiIH/x8iFn+AydFeUN84iH/O+wiFL+7HgTnhja50tgHyvZgaMh61Kwvw9SihKj+6KJHzTiyGnZ2OM9+Ns/C2gfvHQ+7+EUfshZ4Jiejl84iaSV2G88UueOa18egvTFwtQAzPnvFIDPMRAv9hIY3A/P0HhYmrwCPG/0ZtcBz0Zyx/PRQoa7ih0SjS6Lex+atxcDq0Bu/MnoPFX51H1z/vwrbZbTxx5RB7omd8IsIe1XFWQEcNqn2fwdJFzz30iSuHcOVVQEBAQEBAQEDgsUE41REQEBAQEBAQEHhsECavAgICAgICAgICjw3C5FVAQEBAQEBAQOCx4RGcvCpQJavRP3RXQEDg/qOshqyG/7mrAm2PsloGwewCAi3gf71mPYr6Kx6cTI/Y5FWBM+8NRI+nV+N8W+ivLkTWxq+R2egtP48nChz9SyoGzj+gfVDwfYf19+5gJM3L1C3/b6I4+hekDpyPAw/G6BoUR9/F4KR5uqW2RV2YhY1fZzZ6c4oO5W9YkdYdgz861bbxpTiKv6QOxPwHacBHDjUKszbi68xGb8HRofxtBdK6D8ZHp9rYPuoq/H54O77+4nNs2HoIl3SviDTpfxM8jPhvK+5nHj3qPGi//dfUrEewXj3wmq2jRT5VXsDfh3ZH2sfZbAZx/3mkJq+qS5/iz1974y9fzkR4WzyPoyYLq2fOxKpDMt2KxxWC7MZFXChom9eqmYdQwfWXX65b/t+EZDdw8UKB+deKtiFUwfWZr1tqW2qyVmPmzFUwTAc18r+ai9U2b2LdvBjY6da2CSTDjYsXUPAgDfjIUYOs1TMxc9UhGJo9H1/NXQ2bN9dhXkwbWl11CV88F464KZ/gp5PHsePv4zFg0reoZpuM+980DyP+61Ec/xjPT1nb4osY9zOPHnUetN/+a2rWI1ivHnjN1mG9T9XIWz8Xn0r+jHVz+N++1Vbc/8mrqgZl5bp3ImtQoKJUBrl+hQ416sQRmL3pU0wM5t5hZoi6rhylVVbO551HY2NRCTaP66BbUY8KteWlqDJSGNV1MpQUl6HWwqsTGrm5tlp8qqFEdWkJZHXNDMIJg/LSChNnMaxfWQmKy2otvsXCet0aY31/vLopq3G7hE+3UlQY3cjTJkNVW47yWv22lvrTeN8c/P03h+1/u8Roe8rqUpTI6liP5uDvU1F1G7eNBGDT9c6jN6KoZDMM04Eg6f0aNqyfhnATVZCzaamxZDGBJldNG9AKvS3HpIwsh2QlxSizJujVcshu3+bJab74VKDK4FhnjN5YhJLN42Bodgl6v7YB66eFmxh8TNcoPhTHP8Pf9nTGnN278K9P1uK7Q7/h138+Ce6pusb93xRz8W8ewxw0XzeM+U5ZcAo/7stFcbODrM0/PdbWAtNxajqn+WPDjOyqWpQ3Giutk7ct65Zp/e53zWIbcPt2VcO48CBqlrl6xY1VpSUyWBZyashlJnSrh6tJpsb1B66/+fzUw9WkcpPx6DRgEXZ/9xpCTcxcrfGJRXDPeW1z5Ifp7eQRtPCzhTSid1cK8HCj4PQ1dDr3K5qS0IOCfd2offhU+j5f+6qwuiNLaEg3b/IK6EYhPm7kGTGZNta/fkxVRHvnDSL/Dj4UGBBI0ZM+pDnPxNGsn7l3FdbR/tkxNGDBoYZXR8qzFtCAmNm0j9vMyZEYTW9p9pXT4beTacTCtfTOyN7UNciHXD2j6I3thdpXn9UdoSVDupG3VwB1C/EhN88ImrzxKvG9BE1VtJfmDfKnDj6BFBAYTZM+nEPPxM0irWj7aXbMAFrQ8NpWOWUtGEAxs/c1vOJTdnwFjQ73Jd+gEPJj/SbN3Eb5mg5VVLRnHg3ydyefQH/qHDOJXhnqTZ7jt2pe8cZrL2NYrZv+VYmaJWv7Y5jWTUmXN7xIfXy8qHOIP/kEZ9B6TRww+zD/jHrnM5o3rBd16eJHbu69aNwX5xt8a7JNTbwNpwXLp1GEq4gkYXPpRHVL/LlH40935k//zjE06ZWh5O05nurfDmxaJ+MoL2+gF/v4kFfnEPL3CaaM9fnaDbLjtGJ0OPn6BlGInxcFJM2kbbqG6vZMoU4ez2s+c/D1qSrZR+8NZzr6BlOwnzd1SV1CR1hwmVovP/w2JUa/pY1PRuUva2hClB95B3SlQK8OFJTyFm3L0zbO7Zs8YiGtfWck9e4aRD6unhT1xnYq5Hu7H8vVPVyuurNc9e9MMZNeoaHejV6vzKO3UczkEL+MdXRkyRDq5s366RZCPm6eFDF5I/GHbSX9smYCRTGbBXQNJK8OQZTy1jbSmsRcfKqoZN97NJzliW9wMPl5d6HUJUeYFFzdSaTot37W5T1/H7w1ygLkma9TsF1fmn+y+csgm/q/Kfzxb0GtbZKDWQdN1w3TvmO1718ZFOzhSGKJM3l38qfgMes0PrUm/wzyyNr6xxOnxnO6FbVL5/PhC5bTtAhXEknCaG7WQavkbcu69bBqFttA+94bzvLVl4KDWU3qkkpL2Ib7WrPM1SuS0fEVoync15eCQvxYHCfRzG35Jv3AJxtLFpYfo+idz+bRsF5dqIufG7n3GkdfnNdFyEPQn29cb+bTIx/SyG4dqVOXAPJhMnbi8jL9M8qrbU2Nbh33Z/LKvavYz448EufT/hIVqQrX0yhPJ+oQlkFrz9Ww7WdoUaQDhc87SffY7vLc7fTNoRva4i4/R0viHannrKPcElXvfZkC3ZLor7ksoJSFtGdGJDmJO+gC7C5tm+BNfpN2Nby3t273ZPKrT9yGdyZrFtiEzI/sPAbQnP8UsQCspsOzwqhd34V0RisEbf/mEN3QCkHnlsSTY89ZdLTeJ82opr0vB5Jb0l9JK9oemhHpROIOur7vbqMJ3n40aVeDZLR7sl/DBJRqMml6d28asvys5h3dyvxvaIy/Lz2/uYxTml4OdKOkv+ayfZVUuGcGRTqJqYPuWD57GcVq3Qwnr1b3x6eb/AC90dWL0jcUawbkmrzLlKd5pbPWP5J2oTTpu6tMynv0+6fDydP9aVp3i+3J16Ym3uypXcBw+vjwVfr98g2qbmt/8vVvFDkdeKMreaVvoGKtonRZo2gNZU7vTt5DltNZbUP0zRh/8n1+M3EtGRQN3j4radfkzuTxxHI6x8mnKqPTW3bSr3JT6/Vta9KhZj+93s2NoudnUZlGvrO0Is2TPEatJ87c3L5+dh40YM5/qIjVs+rDsyisXV9aqEkW4/DnKr/eRjGTQ/wyyil3+zd0SBsALGyXULxjT5plOgCYSV6nbm7RND+rTBubZ1dQmqcHjVp/iy2Zic/KXTS5swc9sfycRjZV2WnasvNXtp8+lzRWsKAPkzXKEupO0wcD3EjixSYxy/bS79W69QwD/zfDTPwz6c3W2iY5WMZTN3h9p7xLxRueJffAqbSzREaVd9kOVuZfva4arKoFfHFqKqdbUbt0x9q3C6DhHx+mq79fphtl1sjblnXrYdUsLn0mU2ePJ2i5dgOVnd5CO9kGg5ht45rFX684VaZTd+8htFyrNOV/M4b8fZ8no6YzIxsTjuWHhNqFTqLvrjKF7/1Onw73JPen12m2Pwz9+cZ1A58qL9PSRNbvotPMpyq6s/0l6tJpAm2+w9ptVY1uHffvtgEbZ6RNX4BkTxFE3gOR2FONgPS5mBjqANj1RFykO25cvaa5PC4NfwpjB/hBXF2MvAJCxwAX3C68xbYocGr3zyhNmICXwu0BcUcMfX8RnvVqqdg2cE6bgUWDvSGGIyJT4+GRfxlXtELgqbED4CeuRnFeAahjAFxuF+KWqa8KFKew++dSJEx4CVrRhuL9Rc/CUtHkJ7ZgR3EUhifbouDiRVypDUdi31oczcxB1and+Lk0ARNeCoc9k7Tj0Pex6Fmvhns8TNvLBNbq1gRr++PTTS5ygZvLXZz/eQ/OytRwCAhBQMObQm3gNOJtLHsuCFLYosuYDAxQHkXmCQV/m5pjpUicswbT44PQJcQPjm3sT/P9N0UEFzcX3D3/M/aclUHtEIAQTlH5CWzZUYyo4cmwLbiIi1dqEZ7YF7VHM5HTpCHePuVZ2LqnAgMnTkQo9zpwUXtEpA9HGJlY3+SrHPnhb7G1OAmvzEhAe05Hh16Y9HIaRPt3YH+Ndh8b5zTMWDQY3mLAMTIV8R75uKxJFmOYyVUr9LYG0zJKEf7UWAzwE6O6OA8F1BEBLrdRaDIA5Dj87VYUJ72CGQntNbnm0GsSXk4TYf+O/dpd+OIzayv2VAzExImhmvfii9pHIH14WJN7vyzrw2SNsgS7CMzZfRD/esEDh94ZgbDQwZi/+6b5r3lbWc+0GOZgezN1w6TvxPZwspfARiSFg4srnO3FLci/RlhTC3jj1EROa2hN7WIiJs7BmunxCOoSAr/2VsjbpnXrIdUsqRxZW/egYuBENj/QbED7iHQMb1K02rZmmZtbyHFiyw4URw1Hsm0BLl68gtrwRPStZT41UrAskQ02Thjx9jI8F8T0su2CMRkDoGQ2PKF4GPpzaWHhuK68geuFjgiL6gkHTrbevdBJlo8bNfW24se6ccRyLOu9pdjo/mXpLJXYwKZhma2RSkAqbTaqb+7CvLRu8A2OxbD0sVj8UxlUxG1Torj4Dpy8feCs2ZMhtoVtq6Q2EAK2aqX2Xg/1Teyal4ZuvsGIHZaOsYt/Aju7MV30lcUovuMEb58GyZhothYbVFV0CyW1x7FywhiMGcP9jcfagmCEB7qCiotxx8kb+qbFsG2ktGl7mcBa3ZpgbX98uolt++LNT5ci4cJcxAWFYuT87bjWKI7FUjtIdJ9h7wlPl2rIZCr+Nrl9baTw9PHU27+N/Wm2/2bYou+bn2JpwgXMjQtC6Mj52M4pqirCrZJaHF85QdfOGIxfW4Dg8EC4NmmIt08Fk7fcjcnLFbtGmFrfBMXNQpS6dUKAk24FQ+LnBw9FKe5U6q2kzxaWw7ZqKE3eGGUmV63Q21qMy6jGzV3zkNbNF8Gxw5A+djF+KlPBdNgqcLOwFG6dAqA3iQR+fh5QlN7RLZuOTwXL2XI3lrO8ZresD5M1ylKcwzH2o50491smFkf+jqUvvIF/l5jJ9lbWMw1NctCSumFpfFmff42wphbwxqmJnNbR4trFrCD19IGn3nCWy9umdesh1SyWF8XF5XBjtYMvfdq2ZpmbW6hQdKsEtcdXYoJO5zHj16IgOByBRgqWZbKJIbVriBAWIp5wqZZBpnoY+luWnxrseiMphrB3xRL8+8dd+Pz99TjbIxlJvpZXB0tlsgbLe79vyLFv8TSsVkxFZt41nM85gVXp9VcZxXB0ckRNeTnuaZYZ3K0Ouo8cIrEN7t1r2MoGJ8PtliLftxjTViswNTMP187n4MSqdP6rDmJHODnWoLy8Ud9MNj0iiG3uMdl0i0wqdaPtImdXODumYsmRbGRn6/7O/IJtb0bAztEJDjXlKGs4weNu79B95LWXcazWzQDr++PTjXuIhHPkVHx+7CrOfZeB2s8n4k8birQHamhkQwWzQbUL3NuLzbbZlBb504H5U290A39a278G50hM/fwYrp77Dhm1n2PinzZwDcHV2RGpS47o28k+g1+2vYmIJg3x9ilxgpNdFSp0j0FqwNT6JkhcXNCuihU9ffhCffsOKuw84OlqcXA0gstVB5arZforOo1z1Qq99fDnEC/yfVg8bTUUUzORd+08ck6sQjpvAEjg4tIOVWwSqTeJGrfvVMDOw1O3zGE8PiVOTrCrqmADkW6bUSzto22w9UnA6+9PRp/qc8j53cwPJczEP4d1tdb6utGYpvu1KP90WFULzMWpsZxuwHhs3Nfa1dZ162HULJYXTk52qKqQ8Z6ktW3NMlOvWAQ6uzrDMXUJjjTonI0zv2zDm0YKlsWyGYRIGapd3NFe/DD0tyI/FRdwIscFkd2KsXX1p/jZbgK+3TJX5/tW1OhWYq3G9wEVZOWVkHj7w5eddqhLj2H/6fpHQknQLy4ComM7sLOIOyOoxqmVH2Ob5jOHLfz9fVB9LhuXFGyx+iSWLd0KcxcZjKGSlaNS4g1/rRA4tv80/6NGJP0QFyHCsR07oRXtFFZ+vE37mcPWH/4+1TiXfYmdV3KiLcPSrSUNZ8/S/smItT2Ib79v9PxHRQUqarmm49BPdAw7dhVp9q8+tRIfb9N+5reXcazWzQDr++PTDXWXcDL7NtPFHoEpGUgNvIeqyjrtPqxV2Z5/YNmJKvZZjYItm3BQFIfkGHa2xtemEVrkz36cP3cZ9ae1/TNFcelkNm6z4+0DU5CRGoh7VZVcQ0iOtcXBb79v9Ow+BSqMNMTbpzQaif2VOPDDbhRrZKxA9tcbceSeifX1X13pkMalIJ4ysXHTdW3bqgJsWb8XypSnMajhNg5r4HK1nyZXd2kNaJirVujdgJkc4kUlQ3mlBN7+vizS1Cg9th+neQNAiriUeFDmRmy6rhVQVbAF6/cqkfL0IM0yb3xGJ6K/8gB+2F2sla8iG19vPAJDs1vSBw/qAux4bxoW/XBNHw8GqFG4exVWbD+LUm6uqizBkU0/4rJTL/QJMTpV0WMm/q2vtdbXDQPaOcCu8g7ucH0xrM8/PVbVAt44NZHTGh5S7WrTuvWQalaNFNGJ/aE88AN2azew9PkaG5sUrbatWWbqFcvV/smxsD34Lb7XK81UqYAx01kkG8mw5x/LoA0Rtn3TQYjikhEjfRj6W5GfikLcKK7FPedQPPHMaIxK6QnHe7qnYrSmRreS+zR5lUAitYO0oV6KIZFw62x1l49t2GcpW8d9veGAwZMnI+DHVxETn4B+SYtQEtQd7dj+nHg+f1yEeaEH8UpMDAbFxmDKMR+Eu9eLbYvwF6ZjROlSDI5IQEzcNJxPHIU+Dra6s0pDOSQSKez0QsGGLUtZP9xXBQ6DJ2NywI94NSYeCf2SsKgkCN3bseN1+zZD5IM/LpqH0IOvICZmEGJjpuCYTzj0ooXjhekjULp0MCISYhA37TwSR/WBg622f5FXBj5a8SSuzuqP0IQnkJYSix4hiXj3mJw1/Ucsmt8LWa/GIGZQLGJePo2E9H66Y/nsZRyrdWNw/pJqbGV9f3y64e5v+CKjL3rGp2JQ1GCskE/EzIwA3ZE2cAxywL4JUYge2B9xM3KR+MH7yPAS8bfZLN5a6s/56JXF9NT482WcTkhHP10s8fdvjLv47YsM9O0Zj9RBURi8Qo6JMzO4hpDx0Qo8eXUW+ocm4Im0FMT2CEHiu8e0VwCYXbnc4ODtUxSAFz98FxFZU9AvYiCSIyPwhy/zIJKYWM9908X51I67I48d3nEcPvr7EFyeHYPwxFQkhkdjdv6z+GRZBry5GG60rwYbLh6YbCbv2dHm6vxeWczm2lx9+XQC0vs5QBO25vQ2hpkc4pXRYTAmTw7AjyyH4hP6IWlRCYK6t+MOMYEIHcd9hL8PuYzZMeFITE1EePRs5D/7CZZleOv24YnPgBfx4bsRyJrSDxEDkxEZ8Qd8mSdilY8Ts77umO+Dr0Zx954d3rQB/z6YB1PXUW0qT2HVuL7wdnKGs5MvUlfV4Ll/fIgx3HfSTe3VGDPxb22tNVs3+HzHkMaOxDCXnZieNBCJk9ahyMPK/GPt1+eRVbWAN05N5LSGltau5j63Tt62rFsPqWaJRQh48UO8G5GFKf0iMDA5EhF/+BJ5XNFqFCdtW7PM1Cu23SvjI6x48ipm9Q9FwhNpSIntgZDEd2HMdGZl47BxRJDDPkyIisbA/nGYkZuID97PgJfoYehvPj/rfQqHaAwZoMJvx0/j5OF92PXvv2Fi/154as1vULWmRrcSG2r63dBDQll6EacuVMAjLArBbk0UU1fh+pkcFNqFIDLkDF4LeQHyVfn46hl2ysBtrinArzk3IAmJRKiX4U3OVqEsxcVTF1DhEYaoYDcWvuZRV13HmZxC2LG+Q868hpAX5FiV/xW0oqlRU/Arcm5IEBIZCmOiqasLcDb3GirEHggO6wFfx/pe1ajKy0FuoRTB/XrBp8nz3HjtZYwW6NYYq/tjmNRNUYpL2edRLPJDeEQXuGluIZJj79QQjK9dibxPInEx5yakwRHo1eT+KNP2MkKL/JmHnNxC1nc/1nfzh+hZ1T87Fy29lI3zxSL4hUegi1ZRLepqFJzNxbUKMTyCw9DD19GkfLx91t3CuTNXUOnSFRG9Gt0zZWp9E1QV15F7Nh91rl3RJ6wjK2mthOVqXk4uCqXB6Mf6bWZBK/TWYj6HTKNE6cVTuFDhgbCoYFgWtipUXM/F2fw6uHbtg7CO9RaxLD7rbp3DmSuVcOnafJseU320Deqamzj/61VU2HohJLQrvB0sUlyD2fi3sta2pG7Uo664hlOa2hqB3r5aG1mXf42wthaYjFNjOf3wa1fb1a2HWLNQh1vnzuBKpQu6RrAxz0T6tGnNMlevWP2pLjiL3GsVEHsEI6yHL/jcZlI2+V5MDRmP2pV5+CTyInJusnG9mY4PXn9L8lNxaAbCx5Rg8YVv8Kwrt0aJk/MikPzLq7i69xU2cW5NjW45j8zk1WLkezAl2HDy+qgg3zMFwQaTVwHL0Q8ABV+PMjnZEhB4OAjxKWAKITYEzNAweS3A16MerwhRnJiLyMH/h4jFH2BytBfUNw7in/M+QuGL+3FgTrj+quoDhucc4hFF7IWeCYns7PLRE13s1RMJieyM6fGz6iOAGJ4945EY5vMYBqXAfz9CfAqYQogNATOIPdEzPhFhj+HkQBr9NjZ/NQ5Oh9bgndlzsPir8+j6513YNvvhTVw5Hr8rrwICAgICAgICAv+zCCeKAgICAgICAgICjw3C5FVAQEBAQEBAQOCxQZi8CggICAgICPw/9t4Erqkr7///EEhAdpEAgiCbO6iIioAggpVatB2ZVhi3sePSf8eZVm31qUu1Y6sz06eOy3RqW9taa+vTujsu2F9bQcW9btSlVsWyiAQFEjZJTPL9n5uEJZDcJCxdZu67L2ruds53P+fe3NwrIPCrQZi8CggIWECNGnmt2WeLCgi0Ga0S1fIaIbYEBARs4pczeVWdwsoxiViSY+rhyT8lKpz6SwpGLT2KTpekPTorvsO/t+zHFe5tHZ2E6tRfkDJqKY52oCFUp1ZiTOISw5LALx81vl+fij5j3sT5dsSBtiQX2z7NafaGHoGfD1bjVo5B4pIcw/LPg+aHj5DZtzt69u+LqBe+7vx6+0vkFzPu/SfwE47dZvhpxrdfRv5ydMYcwVp+OZNXUqD4xnUUWv/eUrOozqzBlNmbcK1Np/MEefENXC+y4VWGbaUdOqu+/xwr5r+O3ZbeWd4OSF6MG9eLbHiVrGVIwbVZaFjqGNrn718QqjNYM2U2Nv2CFNEWfoLF79jhpc1LENP6Cd6mMaFHbe47WLDgbRyXG1b8mvkF+sk2CAquxhVWGpZ/DtS4uGUdDvZYgYvFxbi8LtnEA+Kb+I/J8ZZ04Lgn8BOO3WbojPGtNR2Yv+2sZZ0xR7CWTp68qlB9/z6qDe+nbkBbL0eZrAJ1VlyFUdeUo0xeb/ZduZq6SpRXGxteXXQeXx7Jg6xF+7z9autRWa5gEptBq4TchC6NaOpQWWl4329bYP3LK6pN9K9FvbwMsoo6/fuMDUhiVuFixVksH9z0pDVb7Goe1l9lORRmDaFGTXkZ5PUd9/bi9sptzt+WZdWgtqISdc02qxTlkCvN7M/5yFyMqGtQXiaHua64OK1s1pFJndVFOP/lEeS1VsQyLeKvY2KBFSfxQPxp6xbMjTQ3teDis0W8mNDDbdI2lJbtxNRuhhUNaGpRYZQ3KijK5WjtAtN50G4s+E1n1/Jq46+1efykVcpx/76pPDZgqr0GVNVmjuWJYyb//TKeumU1HWFfW+q9GrLScrgGhehebSkSNQxFpnVtc453Ul60CUuxZhXtrL9cDSuToaI9BmhLzjTQlhjXoUEdG5daDPV6LI3dNtZma7E0N7EVVfV93G+dPNb7qyNrGW+/luYIWijlJnRphPOl8bjbJrjnvHY8Gio78jql9fYl/7AwCvANpZTVJ6m+/iStHtubfH2CqHe4H3lKo2jWtnxSc4fUZ9HsHt40ZfdDXQskP0PrJ0WSv38IhQf4UFDiAtpbqNuTlCdepaTxy2nTaxNoYK8Q8vOQ0tAX91GJRkOlH2dSmLcL2YvdyLdHIIVlbKaSOp5+maylWUtodKAX+QUHUs+YmfT8474knbaH9JJU0bcbp9PQAF8K6hVMPt1CKPnlvVSgO1hJJ15NorRl62hulAeJxBG0+Owj3VFWodO5G42b9z/0+IBQCvX3pG4Dn6Ut3yv1m0+uprHMhj5BvSncz5OkUbNoW75eavWd9+i3EVPok1INtyOPftajKc2iJaMDycsvmAJ7xtDM5x8nX+k02tPokvU0KdKf/EPCKYD1lbhgLxlcYjX1WbOph/cUw0J75Tbjb2YS87LqfTZ++fu0fPxA6hXkTZ5h6bTxQh59Mjue+ob5k2fXSJqzo5C1zu2eS68mTaTX3l9C4zgfBXiS14Cp9OE1vY9YT3Rm/SSK9PenkPAA5qtEWrC3UK+D8gQ7No2WrZtLUR4iEkcsprM1pnVWlX5MmWHe5GIvJjffHhQYlkGbmSL12YsoZuQyOt7QHZNn2cgYWnSknltoHX+5xzokFqjqW9o4fSjL3SDqFexD3UKS6eW9BYZ2lJTL+p342vu0ZNwACg0NIE+vATT1w2v00IweXM4mDH+ZvtGJzdllPC1/fzmNH9iLgrw9KSx9I13I+4Rmx/elMJYHXSPn0I5CnQd486DtWPIbk2/TazSByRfi50HSoS/SPqaHxox+vPbiaU+HpoyOvJ5GvX39KSwsgHxDU2j1Sc5QfHGspptbn6VBfj7UMzyQ/MIyaYvBXpapp6zZPch7ym79Urvta2u9L6dt08NJ6mpP9q5S6tFzBC3NVZrRte053pF5UbljJkXGLaGjhlrI2fDE8kQa8qcDVFOfTYtiRtKypiSl3GUjKWbREbYXB0+sNRv3ePtgS+2rv/V0cvVYFmNsLO0dTn6eUoqatY1sS6O25YyONsV4Q63eRK9NYLU6xI88pEPpxX0l+tpscey2sTZbO3TzzE2Mxjcr0ZQdodfTWGz6h1EYm2eEpqymk/V8/jLO37b6xXQtq+ONE0tzhKpvN9L0ocy/Qb0o2KcbhSS/THv1kyUmCpu3pS2jdXOjyEMkpojFZ3Xr20rnTF6rDtKsnt702LqruiDSVFygXQe+I6Uyj/Z9dpyKdTGrpKur48il30I6xeW80eS1lnLm9SHfsevoSi1bVBfSZxmB5D9lJ1Xodp1NAY7eNPKVr6iU2aXmxEKK6DKYll9k0ad+SLKtT5NX8Bw6UCanqodsB75+aw7Tc8GelPi3PCarmkqy5lM0K6rdDAlQm/0C9fYczoprhS5haq+sp1SpN03cco8tcUEUQE5dgihtzQnKv32TirkqYy2czgH25NR/Du36kQmjvEFvP96NvCZuIW5OqszbR58dL9YXQOVVWh3nQv0WntIdqr72Bg13GUVrC3Q7mtfPamro8HPB5Jn4N8pjiqtLsmh+tCvZdzMEZm0OzevjS2PXXWHe4VzyGWUE+tOUnZxHrMcouTtCblP+5pVV7zNH7wRaml1GGk0JbZkoJdduEZS56Srbv54urogm58gldI4rZjofialL/5m0PZ8J9ug2vZcmJa+nNtM9ZvranHnUx3csrdMHKhV+lkGB/lNI3xV3rBN1CUqjNSfy6fbNYqoxq7OaHsq20tNewTTnQBnJq7hoJHq4dzr5Bsykg5wPOOoP0awAKU3TOcVE/FV0RCzUUvYLvclz+FLKrdBFPV1Zn0pS74m0hVPa0K+4S3+auT2f9fKIbr+XRlKvp2jzPZVJPRr8rktvnV0cyTthKWWXsSJasoUmSl2pW0QmbbrK7Fh/kVZEO1PkknOsZS5MzOdBW7HsNybfyFfoK32BoYURXWjw8otMHlN+smAv3va4cjmLeno/RuuucsbRUMWFXXTgO+YwvjhWHqUXe/lQ+laZvi4V3KQCbierMB782m3fNtR79cMy2j7Vj/ymbieZvIaUfLq2Mcc7Mi80hf+ix9yDaM5hg5Hrj9Cfwrzoqc3M/g/30nTfAJrZlKR0aFZA4yTKYqwZxj3ePtpdf5WUt+8zOq43AHPzaopz6UcLbSgMbc+ZNsa4wY+O3iPpla9KWY81dGJhBHUZvJy4od7i2G1rbWarLWN5bmLb5LWKDs7qSd6PrSO9aSrowq4D9J2Sz1/G+duxtYyvX0tzhGx6obcnDV+aS/oyeIXWp0rJm81n9GWQzduculBQ2ho6kX+bbto0WWpNp9w2oMzdgyzFKMyY0V/3nmdR1yikp0VAIonEk5NHIsC+BrKCIlD3ILjfL8G9lpePlWexa78MQ9OS4FB0Azdu1SEyYTDqTuXgsuHGYDu3VMxfMQa+9oBLdArivAtx85YKsHeCq5MYdiIJnN094ObEduDpV3X+EL4pj8f0P0QyWe3R/fE3sOJpH8P9FEqc+HwPZInPY358V9065wEz8VyqCNn7s3V7cEgSXsHGeXEICQ1HgIthpbXYuWPCq28hvaeENdQbU6ckQn3iCM4wVSSRT2LyyADY18hQUEToHuSO+yX3DAc2w1q78qE6j0PflCN++h8QyZxm3/1xvLHiafgYIkR5dhf2y4YiLckBRTdu4FZdJBIG1+FUzuW23xzfEXKb8LdlWe3gljoPy5KkEIl8MSqhH7RB6VjM4tUZjugXGw2v4nzcafjWw84V419di2dCmI8cQpGRORJqFotnVUqc3bUfsqFpSHIowo0bt1AXmYDBdaeQ0xCokCDhlY2YFxeC0PAAuJjV2R5Ork4Q24kgcXaHhxsXjdZhFH9dO8CmyhP4fI8Mic/PR3xXXdRjwMznkCrKxv7sWv0+zIau41/F2mdCmIYOCM3IxEg10/usxjo97NyQOm8ZkqQiiHxHIaGfFkHpizGjvzPg2A+x0V4ozr+j+yrQ6jywGiv8xsk3fwXG6AsMUuK8UXjzFpPHhJ+ssZfZ9pTI3ZMFxagZTHddtUTXqHSkRUj441jkDk/3h7j2TRauyLVwDgpHEDNdW2ivfdtS7+2d3OAktoOd2AnuHi4gPl3blOMdmxeigImYlFCFQztywHm0/sROHKxKxqQnG8YKc1hTI/Tw9fGo3fVXgsgnJ2NkgD1qZAUoou4Icr+PEqsLQ3typo0xrm+U1er5WDHGl2WeC6JT4uBdeBPcUK+yMHbbXJsNa3mxYm5iE8pc7MlSYNSMGdCbpiui0tMQIbHWXx1cy/jixNIc4cTn2CNLxPPz46EvgwMw87lUiLL3o3HYkCTglY3zEBcSinCbJ0vG8OddG1HJZKj09IUf54zmaO/i4JJU9PYPw4hx6Zi86muwGXrre0Y0pbhXVoczG6YjIyND9zdtUxHCIoPh0WwktDP8ywWhxEELtbnbQnj6VTNZH7gyWd30uzKXwMGhwSwq3C0ph2ePILga1gBiBAR4Q1X+wLBsB4nUD2wMbiMsXBzFhs+Ak1QK9xo55EwX7d2DWJLaG/5hIzAufTJWfV0BDZkoNtbalQ+1DLIHrvBtMgTsHRwaA0RTeg9ldWewYbreHxkZ07CpKAyRwR5MgzbSEXKbwDpZm0WPhA2Mdk3LbAXEpGkmhzkfaVB6rwx1ZzZguiFOM6ZtQlFYJIIbAtVOAqkfmyTrlzpB5xbx1xHtq+6ipNwTPYKaoh7iAAR4q1D+oMqwgllF4siywYCTFFL3Gsi5wLWWRpOz/OUmMkYuEIM0eqmtzgOrscJvHEbyOEBrrsBYaS/T7akgk1XC09dPN/FrDm8cOwzGS++9hfjrixEb0h8Tlu5rOtmykfbat931nmFrfbG8fwfnBTvJfWrSaNQd3o2c2nrk7sxC/WMZeMLLsN0sVsYaB08f7a+/Wtw9uASpvf0RNmIc0ievwtcVGljv5vbkTBtj3LBPi0bhoFUzaSyN3W2ozdZg5dzEalRs3K30ZONuq+Sx0l8dXMv4+rUwR1DdLUG5Zw8Yl8EAeKvK8aBKL7idRAq/tk+WjOiYVlogdnWFY7VCNwFrjvLIKsx9R4U5OQW4c+0yzr6d3jhrN0Lkxs4CXJCy+iQuXbpk+LuIb/e+hKim3yeZpWWTfP3au7jCubYSFY1nTdytFIaPbGh2d++CajZRfWRYwzn3/gMFHL2lhuUOoNkv9VSVlah190JXeyWOrJqLd1RzkFNwB9cun8Xb6abP8q22Kx/2LnB1rkVlkyG4W0oMnziXeMDNJQWrTzb4g/1d/BZ7X4qCFS4xSYfIzWh5SGfIauyjCtTofCSCm4cbXFJW42RDP+zv4rd78ZKZQOXV2ZTuInvYPXrUFH+sijRzSys6xKZid7h3qWYTr6aoh/Y+Higc4S31MKzgMDIKKmrc4dWVFcw2+NA81ueB9djuNyNadm61vUwhhqurI6oVct2A3BxLcewWPQcfnM7H1e2ZqPtgBv68tVR/oE20377trvcMS7q2PMzWHG9/XoggnTAJY1SHsfPQl9iZ9QiPZz4OT8M2ezuWo01JCm1jktoSa+b7aHdNUx7BqrnvQDUnBwV3ruHy2beRbpMB2pMzbY9xPvjH7nbmuDnaOTdphdgVro7VULROHiv91cG1jK9fC3MEsbs7ulSziapRGXwAhaM3pB42JZtVdHyLDMnwBAxTH8XuQzL9ma3iEj7ddhJV8kpUiX0R6M/OMrTlOJ19wfQjFiTDkDTCAcc+39HsuZAqKBR1hs8W6OIMx6oHeGC4EqHh6Vc8JBZDRKex/2CpTtaa8xuwZq/+MxMEsclxoJxt+OJHvSCaol3YcliN5KdG65bbDcmR9fZanOWe16otwd4dxyGKTUKMRAN5ZRXEvoHQi30a2RdMPwKETz+rEQ9B7BARTu8/iFK9IbBhzV79Z4ZkWBJGOBzD5zsKmgqQSgFrXWKKDpGbo4W/O1xWzkf/bPBREXZ9cczgIwmGJY2Aw7HPsaPZA0xVCgXMdcWvcxc4O1bhQYMiDIfAQPjVXMWlH7h1NTi39i3sKTM4xQQdYlNJLJLjCDnbvoA+7DUo2rUFh9XJeGp0w3fTBHnWP7FWbxS2/QscE8UiKUbCllvr0XYs5EH9WWx84WVsuWLyt81msN1vxrTQzyp7mUOC4QnDoD66G4dker8qLn2KbSdr+eO4/gecu3SfWd4JwcmZSAl+hOqqev0+NmF9nTFHu+s9w2LOtjPHOyQvuo5DRqoWB5a/gv30BCalGC4xOQQi0K8GVy/9wEYplqXn1uKtPWWNY4hNsWamj3bXNI0clVVi+Ab6s4jRovx0Ni7YZID25EwbY9wClsbu9uW4Gdo7N2mJZDgShqlxdPch6E2jwKVPt+FklbX+6uBaxhcnluYIscmIoxxs++JHvS81bKzcchjq5KdgsQy2gU6ZvIqCnsXfV0Yhd/YQRI1KQnTUb/FRATtDGDMLs4K+xB9j4hA/JBErykLQp4vY8NUj+1fMff3PNeCDzDfX44n8hRjWPx6PpSZjRN9wJKw8rb8PRiyGxJG7086AHVuWsOMNXxlIRkzAOPcDmJc4CgkzN0OebL5fkd/vsGLpAOT+MQYxo0cg5rkLiE8fAmcHnSDoPvVN/GPsTSyKiURCSgIihy9C4dPvYm2mr64vTmZHndBtQQyHLn0xOjwb04YMw6hhMXjhYixWvZEJH5EzxsyahaAv/4iYuHgMSVyBspA+6MJ0b4kzr12tROSH361YigG5rL+Y0RgR8xwuxKdjiLOD/sqHTybeXP8E8hcOQ//4x5CaPAJ9wxOw8nTTWZhVMPnFbNLH0SFyM1r6u9SbX9aWPrPnZGLrHAxfrdhxccjWNX4DZeeCEOcjmD50OPNRLObnJeCvOh+J4JP5JtY/kY+Fw/oj/rFUJI/oi/CEldB3xenqqI9pA7w6S0Zgwjh3HJiXiFEJM7G5RAuHyN9j3vhyvDUmCvExsZh7LQETBzlDF56Mlrp0TCx0x9Q3/4GxNxchJjIBKQmRGL6oEE+/uxaZ3HONdNjBJcQZR6YPxfBRwxA7Pw8Jf30DmdxZugk9OL835WxLu9izzdw6B8O3W3a6GBGLua+k+PNAW3kOuzZ9hmMFtkxebfVbc3kYLfUr9bVgL772RAh69u9YGZWL2UOiMCopGlG//QgFInv+nHv4PT7MHIx+cSkYPXQM1itnYEFmkKF9y3D25r4+ZBFjdZ0xR9vqvR2LYQdWs8U6n1uqL+3N8Y6pNR5InfwkXG/nwzV9ctOA7BCJ388bj/K3xiAqPgaxc68hYeKgxjHEYqxx9aZRVNN9tLv+Oo/BrFlB+JKNc3HxQ5C4ogwhfbqwvg3bLdKenGljjDNa+rF5bbY0dttam63CirlJw/hmFaIgPPv3lYjKnY0hUaOQFB2F335UAJEbv7+a8reDa5k82Xy/luYI3afizX+Mxc1FMYhMSEFC5HAsKnwa767N1D0Oj2vEaN7WTuy4X20ZPnc49feu4uKtKrj3isKAhns61OW4cf46FN4RGBrmqTegObQ1KLqShzsKe3iHRaCvvwv//s3QKu7g/OUSOIZHYaA/qwC8/WpRXXAZeSUShA0ZAL9Wj7TUQPFjHq4U1sOj1yBEdO/o0wgtalj/l0vECI2KQHeDqTjU5Tdw/roC3hFDEebZJLX6ykqMGHEMz978f5jbna23xa48aKsLcDmvBJKwIcxnrZ/tqa0pwpW8O1DYeyMsoi/8Xdrak4GOkrulv7l1HSGr8jDmhE9D3YYCvBt9A5fvshiJYjHSzEc6/xVdQd4dBey9wxDR1x+8XfHprFXgzvnLKHEMR9RAfza14NbVoui7yygWhyO6vw8717ZAB9kUGgV+zLuCwnoP9BrE4rIx7JU4PCcc0+o2oODdaNy4fJfFS7Mc5zClRzswnQda3P1wImLeHYzdx/+C4UY+sQYb/dYcU/qZtZc11OPe1Yu4VeWOXi3iy2wcq8rxw6VrkIkCEBkVCs+23HNnwFydsYV213sGX862O8c7Ki9MokVt0Xe4XCxGeHR/+LRK0nbEWjPaV9PUKL9xHtcV3ogYGoa2ubk9erQhxi1iaezuGLu3oh1zE5PU38PVi7dQ5d4LUQMa7g22xV8dWcv4+7U0R9AofkTelULUe/TCoIju7a795ujUyatAZ6CF/M4FnPx4IaZ83Afbf3gXj5l7frxA+2mcvBbh04k2z47+Q2mavBZ9OtFQaH8GVGewZOSLsN9wBK+P6KwSKSAgICDwS6MjzkEEflLUuL5jNd463R0vblyKFGHi2rnYS9EvLgERfkKqNGEPab84JET4/bwFRBKFpdnHhImrgICAwH8ZwpVXAQEBAQEBAQGBXw3C5SQBAQEBAQEBAYFfDcLkVUBAQEBAQEBA4FeDMHkVEBAQEBAQEBD41SBMXgUEBP6zUNdAXmvLc18FBAQEBH5NCJPXTkGFU39JwailR3UPLtaW5GLbpznN3sjx86M6tRJjEpcgR/8s6F8uqlNYOSYRS37xgjaH+X/lGCQuyTEsC/xkqL/H+tQ+GPPmef1Dw9uEFiW52/BpTrO3/ggICAgI/GIQJq+dAkFefAPXi/SvWazNfQcLFryN43L91jajOoM1U2Zj07X2X1UiRTFuXC9s2+tYTaLCmTVTMHvTNXToNS9SoPjGdRR2nKA/AQQF5//CSsOytXSSDX8GVGfWYMrsTeiAULUBLQo/WYx37F7C5iUxsPYpcq1lrUXuOwuw4O3jaG/KCggICAh0PJ08eVWh+v59VLd6xbkWSvl93G+9wYAGdZWVqDO8M7cBTV0lKpuvVNegvEyO+hb7cahr7qNMYbp9bb0c5ea2KeW4f7+aSW4OTrZyVJsalLX1qCxXtDrWbdI2lJbtxNRuhhU61KgpL4PclPA6TPSjLsL5L48gT2biehCPLSzB2bXctEKol5dBVlFn4goUk/9+GZrMqEbR+S9xJE/WYl++Nozh/FImq0CdNZe7VNUm/GS5L/O6msK69oxi0izW2MGcDRmW/KupRUVlHeulARUU5XIozezPlwPqmnKUyeubtdWcFrnJYl5eJkNFC6epi87jyyN5MBWqljC2qfXxw500iAf+CVu3zEWkmZmrKb1by+qGSdtKUbZzKoxSlqGprTD2t0qBcrmyta3M2EVAQEBAoAPgnvPa8Wio7MjrlNbbl/zDwijAN5RSVp+keral6tuNNH1oAPkG9aJgn24Ukvwy7S1Q645SnniVktKW0bq5UeQhElPE4rPcSno1KY2WrZtLUR4iEkcsprOP5HRm/SSK9PenkPAA8glKpAV7C0nXivombX12EPn59KTwQD8Ky9xChRrWTC5re+Jr9P6ScTQgNJQCPL1owNQP6ZpS1zUnGG2cPpTJGkS9gn2oW0gyvby3QN8mKenEq0k0fvkmem3CQOoV4kce0qH04r4SpimHhkqzltDoQC/yCw6knjEz6fnHfUk6bQ895I5meiUMf5m+4QzAkJ9ZT5Mi/ck/JJwCfIIoccFeKtR1ZL6fR6UfU2aYN7nYi8nNtwcFhmXQ5hKudx5b8FCfNZt6eKXSCy+n0oCwEPL1kNLQF/eRrklu+8nVNJb5zyeoN4X7eZI0ahZty9e3qr65lZ4d5Ec+PcMp0C+MMjefp48zw8jbxZ7Ebr7UIzCMMjaXUB1PG0bUn6TVY3uTL7NF73A/8pRG0axt+Xod6rNodg9vmrKbsyRDU0ZHXk+j3r7+FBbG4ig0hVafrOeVVxdX45fTptcm0MBeIeTXXFdlLi0d0ZN69Oih/wvsS8/tq+Vtz3RM6jfpqaes2T3Ie8pu/ZI1dtCUmrShhs+/OjnG0/L3l9P4gb0oyNuTwtI30oW8T2h2fF8K8/ekrpFzaAeXANzulnJAfobWT4okf/8QCg/woaDEBbRXH5h6GxrlZi6dXD2W+YHt1zuc/DylFDVrG+WrWS58nElh3i5kL3Yj3x6BFJaxmdm6nrIXxdDIZcdZlOtR5i6jkTGL6AiXFyZsmnvMyvhh8NYVs3qbk5XLwwQa/vI3uprVED/vLx/P4ieIvD3DKH3jBcr7ZDbF9w0jf8+uFDlnh67OcL43bRdum4CAgIBAR9A5k9eqgzSrpzc9tu6qbvKmqbhAuw58R8rabHqhtycNX5pLFVyhr71C61Ol5D1xC91jy9yEKsCpCwWlraET+bfpZnGNfvIS4ERdgtJozYl8un2zmMpy5lEf37G07kota0RNhZ9lUKD/FNpZwQaaoy9SL5902irTdUAFNwvY/w1ti7tQ/5nbKZ+Nno9uv0dpUi96avM93X7ZL/Qmz+FLKVcvGF1Zn0pS74m0hRNMNxkJIEfvkfTKV6Wsxxo6sTCCugxeThe5SUvNYXou2JMS/5bH9FVTSdZ8ina1p26Gyatuoug9hXTzr9ocmtfHl8auu6KTS134GWUE+tMUTnjeftT0ULaVnvYKpjkHykhexfXENWfeFnzo7OHgSSNe+YpKWUM1JxZSRJfBtFynELNj3j767HixbvAm5VVaHedC/Rae4hbo6Iu9yCd9K+lNXEA3C2pJ/VBGW5/2ouA5B6hMXkUPWZvm22iBMo/2fXacivU70tXVceTSbyGd4mY5LSavVQdnUU/vx2jdVV1kUcWFXXTgOyVvXzpdHb1ppDlda+RUWVlJxftmU7j3WPrXLTW/7CZikkVqM4wnr9bawZQNef2rk8ORvBOWUnaZhjQlW2ii1JW6RWTSpqts//qLtCLamSKXnCNOU0s5kDOvD/mOXUf6rgrps4xA8p+yk/RdtczNCsrb9xkd1zuNqbWa4lz60ULOaeqHJNv6NHkFz6EDZXKq4hRhmbB3ui8FzDyoywmO+kOzKEA6jfbok6SVTSusjR9r6oo5vU3K2uQ/vWj6+ElYmk1lGg2VbJlIUtduFJG5ifRmXkHRzpG05BxnZaV5uwgICAgIdAidctuAMncPshSjMGNGf917z0Vdo5CeFgE68Tn2yBLx/Px4dOV6dh6Amc+lQpS9H9m1ukMBSQJe2TgPcSGhCA9waViJhFc2Yl5cCELDvXF1137IhqYhyaEIN27cQl1kAgbXnULOZSVE7p5wf3gN32RdgVzrjKDwIDS8PNLOdTxeXfsMQiSAQ2gGMkeqcSrnLBP4BD7fI0Pi8/MRrxcMA2Y+h1RRNvY3CmYHt9T5WDHGF/ZwQXRKHLwLb+KWClCdP4RvyuMx/Q+RTF97dH/8Dax42sfkPRnKs7uwXzYUaUkOKLpxA7fqIpEwuI7JcdnwAxNz/djDydUJYjsRJM7u8HDjelLiLI8tLGHnmYaFK8bA1x5wiU5BnHchbnIKMSSRT2LyyADY18hQUEToHuSO+yX32BYR3D3d8fDaN8i6IofWOQjhQc6wd3KFk9gOIokz3D3c4MTaNN9GCySReHLySATY10BWUATqHgT3+yW41+q7WCVy92RBMWoGZvTXRRa6RqUjLUJisS87t1TMN6eriwc8nW5g42u74bPgLcwKs7dC9uYxGcA8ZR5r7dDahlb4184NqfOWIUkqgsh3FBL6aRGUvpjZh0W9Yz/ERnuhOP9O4+0V5nPgLHbtl2FoWhIcim7gxq06RCYMRt2pHDSGklFudkXkk5MxMsAeNbICFFF3BLnfRwnnNHsnuDqJYSeSwNndA25cMFiFsU27Wmk3pRV1xazeVsrKxc+8ZUmQikTwHZWAftogpC+eAb2ZYxHtVYz8O5yVJebtIiAgICDQIXTK5FUlk6HS0xd+3PyiGaq7JSj37IEgV8MKhjggAN6qcjyo0hd3O4kUfmwgNsJOAqmf1CCsBqX3ylB3ZgOmZ2Qgg/ubtglFYZEI9rCHw+CX8N5b8bi+OBYh/Sdg6b6mgRv2EjiKDZ/ZNFMqdUeNXM4JhpJyT/QwFgwB3iqUP6gyrOCwM/zLkEjgoFXr7sNTM30fuDJ93fSbuHe/OziYNq2m9B7K6s5gw3SD7BnTsKkoDJHBHuyoBkz30xp+W1hDU09sAuighdrQkfbuQSxJ7Q3/sBEYlz4Zq76ugIY4Hzlg8Evv4a3461gcG4L+E5Zin27Qbo35NlqgvYuDS1LR2z8MI8alY/Kqr1GhIRP3XKogk1XC09dPd1LUHGv6Mqcr1+53617CuzQHa+ZHsq1WtGcUk/xYbYdWWOnfRsWYXmzya2cUPmKQpllf5nJAU4p7ZXU4s2G6IS4zMG1TEcIig9HQlXFuanH34BKk9vZH2IhxSJ+8Cl9XaGCVWuZoYVNr7WZNXTGrtw00mVnCTiKZnQ2LersT9GbuBLsICAgICBhhzdhrM2JXVzhWKyBvMeMSu7ujSzUbUB4ZVjC09x9A4egNqYe1oojg5uEGl5TVOHnpEi4Z/i5+uxcvRTmw7W6InvMBTudfxfbMOnww48/YWto0cjT9Zl2FyooauHt15QSDe5dqNlE1EgwPFI7wlnoYVpjH3sUVzrWVqGi82MndjmH42AKRmwfcXFKw+mST7Jcufou9L0WxaaEFWpnIki3aihJHVs3FO6o5yCm4g2uXz+Lt9GZXkt2iMeeD08i/uh2ZdR9gxp+3spUthbPQRjOUR1Zh7jsqzMkpwJ1rl3H27XT4mAwHMVxdHVGtkLeYzFvflyk0tzbh5X/cR+b//g9G6GbF7WvPGFvaarm2c/xrMgdEbvBwc0HK6pON/Vy6dBHf7n0JJrtSHsGque9ANScHBXeu4fLZt5HezGmm9BPZ2+HRo6YcIy3LE8Pn1lhvN2vrikm9GababDMW7CIgICAg0H46papKhidgmPoodh+S6a+eKS7h020n8Sg2GXGUg21f/KiffGiKsGvLYaiTn8Lohu/2LSLBsKQRcDj2OXY0e3CqSqFAHfu3/odzuHSf9eoUjOTMFAQ/qkZVvX4fkmfhn2vPopp91hbtwhfHRIhNimFNxiI5jpCz7Qv8qBcMRbu24LA6GU9ZIZh4SCyGiE5j/8FSnb415zdgzV7955ZIhiVhhMMxfL6j2TMkVQooOOEt0gXOjlV48EBlWOa3BbMGzm58AS9vuWLjo5c0kFdWQewbCH82mdOWn0b2Bf1jv7g2fzh3CXoTJyMzJRiPqvVXp7s4O6LqwQM2NeDga8MYjbwSVWJfBOp3xOnsC2Ye4SXB8IRhUB/djUMyvXUVlz7FtpNVVvfVCu1dbPuf1bgx7q9YkdxwomK97JaxrS1jG1ryr+2Yz4FhSBrhgGOf72j2PGIVFOYCUyNHZZUYvoH+cGKRXn46GxeaO62LMxyrHqAxVNmpWWCgH2quXsIP3Lqac1j71h6UmUoSHdbbTWJFXTGrN0crWdsBr120KNr/Ouau2I07Te4UEBAQELCRTpm8ioKexd9XRiF39hBEjUpCdNRv8VGBCOLuU/HmP8bi5qIYRCakICFyOBYVPo1312bCl5NELIbEUdLiCqQYYokjJI0rRfDJfBPrn8jHwmH9Ef9YKpJH9EV4wkqcVgIPv/8QmYP7IS5lNIaOWQ/ljAXIDNKraecSAucj0zF0+CgMi52PvIS/4o1MH9Zkd0x98x8Ye3MRYiITkJIQieGLCvH0u2uRqROME00CxyYhYMeWJUxe7u4Akd/vsGLpAOT+MQYxo0cg5rkLiE8fAmcHw/7N9BL5ZOLN9U8gf+Ew9I9/DKnJI9A3PAErOeF1u5rvB5IRmDDOHQfmJWJUwkxsLgGvLaCtxLldm/DZsYLWk1fWpri5re2YjBK2TteRM8bMmoWgL/+ImLh4DElcgbKQPujCjmEWxvcfZmJwvzikjB6KMeuVmLEgk62XYMSEcXA/MA+JoxIwc7McyWbbMMZ5zCzMCvoSf4yJQ/yQRKwoC0GfLkwW3Vb2L2cDnaAiBD37d6yMysXsIVEYlRSNqN9+hAKRG4+8DPavUVw117X2KPZ+JUPpnlno4+0Fr26+SFx1i7+9VjHZGjHXp24HPlu2pKUNS+HN599Wctjr+hWzFfqvtO3YZwlb59CY6OZzwAeZb67HE/kLMax/PB5LTcaIvuFIWHka+q5a2NB5DGbNCsKXLObj4ocgcUUZQvp04XbTIRkxAePcD2Be4igkzNyMEq0DIn8/D+PL38KYqHjExM7FtYSJGOTsYGizpS7W201kqa4wzOrNaC0rp26zPGypuz2TlVvnYLhxoHk88dpFjeITX2Dr/x1DgW1nkwICAgICzbDjfrVl+Nzh1N+7iou3quDeKwoDmt0Aq1H8iLwrhaj36IVBEd3ZMNUWtKgpuoK8OwrYe4choq8/XAwDlar8B1y6JoMoIBJRoZ66e0mVh+cgfFodNhS8i+gbl3FXEoaoAS3undQo8GPeFRTWe6DXoAh0t0kwLaoLLiOvRIKwIQPgZ+EJ6dqaIlzJuwOFvTfCIvrCv0F4S2gVuHP+MkocwxE10N9gO9O20N79EBNj3sXg3cfxl+FGmlqFuvwGzl9XwDtiKMI8m8unQvkPl3BNJkJAZBRCPRvuv9RCcec8Lpc4IjxqIPyZcObbaIG6HDfOX4fCOwJDwzwtnFXV497Vi7hV5Y5eUczWBtWs7stKOrI969tqbUNz/rUVq3JAW4OiK3m4o7CHd1gE+vq78PhCjfIb53Fd4Y2IoWFoqZZWcQfnL5fAMTwKA/WKQFtbhO8uF0McHo3+PtzdxfzY4gNzdcUavU3J2nb47SIgICAg0D46dfL6S6JxACv6FBNtn8f9ClHhzJKReNF+A468PqKNJwgC/0n89+WAnv9WvQUEBAT+U/mvuSZgL+2HuIQI+P3XaCxB1NJsHBMmrgIG/vtyQM9/q94CAgIC/6n811x5FRAQEBAQEBAQ+PUjXIsQEBAQEBAQEBD41SBMXgUEBAQEBAQEBH41CJNXAQEBAQEBAQGBXw3C5FXgZ0aL+ppa/XNoNbWoqTP71HrLaJWolte0fqatpg6Kav1zdPXo+9Q9k55tq6kTnhgv8FOjhbJajpqWwdoqVgUEBJpQo9ZUjRf4r6PzJq/aatw+sQ+ffvgBtu45jh8M74rVluRi26c5zd7iYxuqUysxJnGJYemXS3v1/Kn4ueWUf/UiRj7zEQpVRdj6u1F44f8pDFtsQ/PDR8js2x09+/dF1Atf6x+sz6G9j72zBmLoi1m6t4LpKP8Iv+0+APO/qcV3byTCN+lvhg2/Ln5y36lOYeWYRCzJ+U+aXKlw6i8pGLX0aFPMdDaaH/BRZl9079kffaNewNcNHZuKVYEOhPl65RgkLskxLP9nYPuYqEVJ7jZ8mtPsLY+/SFr6S4P8955Cn1F/wclawypr0ZYgd9unyOmsYslq419SRmHp0V9mbeQfKzq4Bv5EtuicySsrzh8+E4nY2e/i63NnsP8f0zBy5ueoYZtqc9/BggVv47hcv6utkKIYN64XGpZ+ubRXz5+Kn1XO6iNYMS8Lg+dOhePOl/HqnfF4Ybz+ffO2ocbFLetwsMcKXCwuxuV1yWh4R0R19kosvzQB7675DaSGaFffLYZM3Av9QrUovvsAXfv212/4JaM6gzVTZmPTtaZrDj+570iB4hvXUWj63b0djApn1kzB7E3XOvkqC0FefAPXi9r6+l/bUV/cgnUHe2DFxWIUX16HZEOwmopVgY6EoOB8XVhpWP7PwNKYqDqzBlNmb0JT6ahF7jsLsODt4/hlD0/G/tLe244l/6jG8x/9BYkuulXWU5uLdxYswNuGYtnaJu2E5LraWPST1Ebb4R8rOrgG/kS26JQSqTrzPv43qydeOXQQH7+7CduPf4/v/vWE7nmjbpO2obRsJ6Z20+/Lh7qmHGXyenae2PGoa+6jTGHjy8y19ZCXyVBh7mtmTR0qK+t08prWUwul/D7uV7eh33IFG85NoUFdZSWMvm1X16C8TI56E4ZrqXdb5dTUVaK82kTmW7JRM2qz3sMnJUMxNqkKO94/gC5Jqejf+A5OFarv30crEUy2r4astByuQSG614GKRA1hrYXW/2m888VKjG6cE1fjq7d3wHH+3/AHh8+x8eggrPjLk4ZtVsBse7/MlC/UqCkvg9yU0U2iRb28DLKKOtNXP1TVuH+/uqkfdRHOf3kEebKmvW3JJVv8ooMnhqxBU1uByuZBqVKgXK7U5UZLtEq5sa461Cg6/yWO5MlM2MdSfJrIiZYwe1SazSmGjfqrqk3IY8bmalkpyl2DEKIPVkMRNhWrHYPZWmejjubrMYv9+2UwXU65OC83s81CzjSrpxzaejnKZBWwKoRtifeWuabDQn4yzNZAM1iSn2vPKGdM0JYxUV10Hl8eyUNT6XDDpG2lKNs5FUalw1I8aGpR0cwfXI1WlMuhNLM/p2+5mTHWdM5bwGkYXtm/F4ujWzy53Bq53CZhW2kZdhqKZWubNGBbHdfWsxgwoyOH9f7iySELfrEmbkyOFZZqoFYJuakx2AwdZwsr4Z7z2tEoc16gMMfBtPTcQ8OaJpQnXqWE4S/TN/WGFaaQn6H1kyLJ3z+EwgN8KChxAe0tVOs21WfNph7eU3SfTVNP2YtiaOSy46Q0rFHmLqORMYvoCNen+iZtfXYQ+fn0pPBAPwrL3EKFGnZU9iKKGbmMjjcdRMtGxtAi3UH1dHL1WOrty2TpHU5+nlKKmrWN8nUiKenEq0mUtmwdzY3yIJE4ghaffdRKz6pvN9L0oQHkG9SLgn26UUjyy7S3QK+TSVj/ryZNpNfeX0LjBoRSaIAneQ2YSh9e0wvItZ+UtozWzY0iD5GYIhafZWvldGb9JIr096eQ8ADyCUqkBXsLSdeLGb1tkVPX5/jltOm1CTSwVwj5eUhp6Iv7qIS1w28j0ygvbKL5i7fR94/K6chbL9Bfs0pJw/4rO/I6pfX2Jf+wMArwDaWU1SdZ6+baL6dt08NJ6mpP9q5S6tFzBC3NZTYyF0OPLtHmv2yhvHoNVR5ZR6v2/Ki3j0XUdHPrszTIz4d6hgeSX1gmbeEMyJCfWU+TIv3JPyScAnyCKHHBXjKEq0nqT66msUw/n6DeFO7nSdKoWbStwVCaMjryehrT05/CwpgfQlPojQObKDPMm1zsxeTm24MCwzJoMzN6k+8qacfMSIpbcpQaM67+BC1PHEJ/OlBuo194Yqg+i2b38KYpu1vnNUdDfLy/fDyLjyDy9gyj9I0XKO+T2RTfN4z8PbtS5JwdurjTUfUtbZw+lPk4iHoF+1C3kGR6eW8BqTWl9HFmGHm72JPYzZd6BIZRxuYSFhlWxGernGiJhkqzltDoQC/yCw6knjEz6fnHfUk6bY/Bdjz6m0BTdoReT+tNvv5hFBbgS6Epq+lkvflcKN82ncKlrmRv70rSHj1pxNJcUvLUO2PktGs25+ecJj8rT9KKUdH054O1hhXNMJPzturIV4/VN7fSs4P8yKdnOAX6hVHmlkK2Vkm5rCZOfO19WjJuAIWGBpCn1wCa+uG1xppsPmdM1NPcY7R6LLMx2693uB95SqNo1rZ8M/Ly1aF6yprdg7yn7NbtaSrXVp9klYYnP/lrINN76Qjq2aMH9dD9BVLf5/ZxCW9efuUJVufTaNm6uRTlISJxxGJiw0dr2jQmslj/OJPCvF3IXuxGvkyesIzNTFbOxgk0/OVvmEU4eOJBJ994Wv7+cho/sBcFeXtSWPpGupD3Cc2O70th/p7UNXIO7TAktTKX2Wfia/T+knE0IDSUAjy9aMDUD8kwbJnPecNmY4z91VTvdAs2yaXbP2E4vfxNnRmb8MWkCViNyloymgK9/Cg4sCfFzHyeHveV0rQ9hsy0OqfN5RCHJb80j5v59NdnzY0BNca2s1gDq+jbjdNpKKtnQb2CyadbCCW/vJfMTlc60Ba20CmTV6q/QH8d6UlinxiaufYw3a4xrGc0JJqZ8Y9RSznz+pDv2HV0havH6kL6LCOQ/KfspAq2aHny+pD2TvelgJkHG51Yf2gWBUinEWdL5dEXqZdPOm2VcUFdSwU3C9j/2VF7p5NvwEw62HQQzQpocICS8vZ9RseL9amuvLqa4lz60cJTXEZyCRZATl2CKG3NCcq/fZOKmb5GetZm0wu9PWk4G6gqdN1eofWpUvKeuIXuGXKrFdxEIUBMXfrPpO35rJ9Ht+m9NCl5PbVZdwzXfoBTFwpKW0Mn8m/TTdZpbc486uM7ltbpDUeFn2VQoP8U2skMZ05vW+TU9enoTSNf+YpKWezVnFhIEV0G0/KLXLXls5ENVB2kWT296bF1V3X+01RcoF0HvmOtm29f/bCMtk/1I7+p20kmZ4lqIYbahPIovdjLh9K3ynSTqNqCm1TAtV2bQ/P6+NLYdVd09lQXfkYZgf40hTO6GZR5++iz48X6gUN5lVbHuVC/had026oOzqKe3o/Ruqs67aniwi468F0dPZRtpae9gmnOgTKSVz3UFbAm32mo8F+PkXvQHDrMCcFtO/InCvN6ijbLHtrkF74Y0sUkz+S1IT4SlmZTmUZDJVsmspOKbhSRuYmusubqL66gaOdIWnKOi5dayn6hN3kOX0q5+mCjK+tTSeo9kbawYFM/lNHWp70oeM4BKpNX0UNOYWvis0VOtKLmMD0X7EmJf8tj8aWmkqz5FM1OfLoZCjev/q2oooOzepL3Y+tI764KurDrAH2n5MkF9UMq2z6V/Pym0naZnGqUtsSqhu6++zh5sDrFxiMd9dmcn5+kzaWcQYwxl/O26cgnn5KOvtiLfNK3kr6LArqpSwp9TRR36U8zt+ezvR7R7ffSSMrFI+co3pwxUU8r8mjfZ8dJb04lXV0dRy79FpLpELZUq5smQ6ZzjVUanvzkr4EMZQ3JKyupsngfzQ73prH/usXW8civq/NO1CUojdacyKfbN4upddS2Y0xk8Sbb+jR5Bc+hA2VyqtIlUpMdLMa8Tj5H8k5YStllGtKUbKGJ7OSrW0QmbdInNa2IdqbIJeeYl/WyBIi7UP+Z20k/bL1HaVIvemrzPa4n3pxvjbG/GvTUlR8b5dLt31C7TNnExjpec/g5CvZMpL/lce2VUNb8aHK172aYL9iS0+ZyiBPJkl+ax00hfW92DNAY285SDcx+gXp7DqeluRX6se7KekqVetPELZwPW9NxtrCNTrltAI5ReOXQMXz8e28cf208IvqPwdJDd627XKw8i137ZRialgSHohu4casOkQmDUXcqB5c74P5fkbsn3B9ewzdZVyDXOiMoPMiK16dKEPnkZIwMsEeNrABF1B1B7vdRcq9JI0nCK9g4Lw4hoeEIaHE/jvLE59gjS8Tz8+PRlbO48wDMfC4Vouz9yOa78dzOFeNfXYtnQiSAQygyMkdCzexwtuHKvCQBr2ych7iQUIQHOODsrv2QDU1DkkMRbty4hbrIBAyuO4UcZjhr9LZGTju3VMxfMQa+9oBLdArivAtx8xYnkGUbWYMydw+yFKMwY0Z/cK+hF3WNQnpaBGvdfPv2Tm5wEtvBTuwEdw8XSDojhkTu8HR/iGvfZOGKXAvnoHAEMQMqz+7CftlQpCU5oOjGDdyqi0TC4Dqcyrls9uZ3SeSTmDwyAPY1MhQUEboHueN+yT22RYncPVlQjJqBGf112qNrVDrSIrrAydUJYjsRJM7u8HBzAjN/M0QImDgJCVWHsCOHc1Q9Tuw8iKrkSXjSx8kGvyh5Y8gauPiYtywJUpEIvqMS0E8bhPTFM9Cf2cqxXyyivYqRf4fFi/IEPt8jQ+Lz8xGvDzYMmPkcUkXZ2M+Czd7JVedTkcSZ+ZT5lylsVR4Z5UTrG+NU5w/hm/J4TP9DJIsve3R//A2seNrH8NW9jforc7EnS4FRM5h++mBFVHoaIiQ8uWDvBDcnMezsxHBy94AL2RKrIvilT0byw0PY/lU1W2Z+3nGI+TkDT3K3ILTAdM7bqiOffCK4e7rj4bVvkHVFDq1zEMK5pNBhB9fxr2LtMyEscx0QmpGJkWrWByte1uSMUT3tGoknJ49EgH0NZAVFoO5BcL9fAtOlxdo6ZC7XWKUxm596zNdAhsQFHp5OuLHxNez2WYC3ZoVxCW9BfgkSXtmIeXEhCA0PQKuobU89Y/HmysWbSAJnFm9uXCIZYUU82Lkhdd4yJElFEPmOQkI/LYLSFzO76ZIasdFeKM6/0/j1s53reLy69hnoh60MZI5UM9+eZV3x57zN2ChXIyZsYlsdV+H8oW9QHj8df4hksWPfHY+/sQJP+xhy0CZ/mcsha/K0edwEopfZMcC4NliqgSc+3wNZ4vOYH99Vt855wEw8lypC9v5s3R7GdKQtbMNYq47ELRKT3zyAq9/nYFX0bbz1+xfxf2Umq40xmlLcK6vDmQ3TkZGRofubtqkIYZHB8GiZd23AYfBLeO+teFxfHIuQ/hOwdJ+J4G6FFncPLkFqb3+EjRiH9Mmr8HWFBtSojh0kUj+zP7JQ3S1BuWcPBLkaVjDEAQHwVpXjQRWfTewhcRQbPgNOUinca+QwPLgBdhIp/Bo71aD0XhnqzmzAdIPdMqZtQlFYJIKZ4azR21o57Qz/cskjcdBCrZPHko2sQyWTodLTF37ceGKEDe13Rgw5DMZL772F+OuLERvSHxOW7gM3B9OU3kNZ3RlsmG6wecY0bCoKQ2SwR4sJZhPauwexJLU3/MNGYBybjKz6ugIanSIqyGSV8PT1003cbUHk+xQmja7D4d05qK3Pxc6sejyW8QS8bPILfwxZS2N8sEmc2I6dVBgWdfEiJmh0qt5FSbknehgHGwK8VSh/UGVYYYw18WmcE61Rs/h64Mriy82wgnnJwcG6HGqFSgZZpSd8WwVr58WqSDoBkx8nHP7iMOR1nJ/rDH5ujemct1FHXvkcMPil9/BW/HUsjg1B/wlLsY9LCgP2Ekc0Vi8nKaTuNZCz4mU5Z1rUU+1dHFySit7+YRgxLh2TV32NCg0xK5vCWtubzzXz+dmE6RqoR/XdOrz0LmHOmvmIZBM4i/LbSSD1k5ofjDt1TLQyHpqSmuUwy+kmA7A0F4N0SW3AXoKmYcsJUqk7auTyNuW8RWyRiwfb6riaxc4DuLLYaSojDmgqI7b4y1wOWeGXFnFjfgwwhr8GqnC3pByePYLQ5CUxAgK8oSp/YFhuTkfawjbM5ktH4eAXjxfemIVBNVdx+bYVN7eL3ODh5oKU1Sdx6dIlw99FfLv3JUQ1/piHH5G9HR49emRYAitc1OxXdG6InvMBTudfxfbMOnww48/YWsoCXGQPO3ZM41GsWFHDQcojWDX3Hajm5KDgzjVcPvs20luczfAhdndHl2o2wDaJBO39B1A4ekPqYaGdZj/YU1VWoMbdC11NOl0ENw83uKSsxslGu13CxW/34iWd4czo3Yx2ydlOGzUgdnWFY7WicYLeiC3td0AMmcIteg4+OJ2Pq9szUffBDPx5aynrip25u6Rg9ckmm1+6+C32vhTFypIplDiyai7eUc1BTsEdXLt8Fm+nN5z1iuHq6ohqhZyVrhZYMqVIigmTxkB1eCcOfbkTWY8eR+bjnjb6xVIMdSBid7h3qWaDllGw4YHCEd5SD7bQWsZ2xacBexdXONdWoqLxrJ+7dcrw0Vb9xa5wdayGomWwdmqsemLclDQ4fv0Fdh/YjkOPxun9bBJTOc/W2qKjJfncojHng9PIv7odmXUfYMaft+qP02FUvFBR4w4vVrxszRnlkVWY+44Kc3IKcOfaZZx9Ox1mQ9hq25vLNb78tALNLWx6+R+4n/m/+J8R+mmxTfKbop31jL+rzsn5Js+rUFlRA3evrlbk/E9HS5vYFpP2cHF1Ri0bj5vKSLM5hq3+MplDbfCLuTGgBfw1UAx39y6oZhPVJi9pcf+BAo7eUsNyczrYFjZgSwpZiRYlh97G+n1XUM7NVdVlOPnFl7jpOgCDwq2QVjIMSSMccOzzHc2eSaaCQlFn+GwJBwQG+qHm6iX8wJ3A1JzD2rf2oOGib/0P53CJe4iiUzCSM1MQ/KgaVfXsqMBA+LEJ9iX9QTi39i3saThII0dllRi+gf7sPFKL8tPZuGDDYyAkscmIoxxs++JHfaHUFGHXlsNQJz+F0Q3fspmC5Mj651qc5b4h1LJjvjgGUWwSYriz+VZIMCxpBByOfY4dzR7mplIowFnOnN7NabOcHO20UQOS4QkYpj6K3Ydk+isTikv4dNtJ1NrSfhtiqP7sRrzw8hZcMXd+Vf8Dzl26z3p2QnByJlKCH6GaGVAyLAkjHI7h8x3NnpmoUsB8VxrIK6sg9g2EPxvbtOWnkX2h4RElEgxPGAb10d04JNPHnuLSp9ime6hhFzg7VuHBAy4+TdN1XAZStQew/JX9oCcmIYU7dbbJL/wx1KFIYpEcR8jZ9gV+1AcbinZtwWF1Mp4yBFsXZ0dUPXjAPKenXfFpQDwkFkNEp7H/YKkuvmrOb8CavfrPNusvGY6EYWoc3X0IencpcOnTbThZ1bmx6pI8Fb/x/AqvLfw37J7I0PvZBKZz3lYd+eSrxw/nLumeSesUnIzMlGA8qm64gkaQZ/0Ta/XFi/n2CxwTxSKJFS9bc0Yjr0SV2BeB+oTB6ewLMBvCVse7uVyr4slPS2hxd9v/YPWNcfjrimQ0TMdskt8U7R0TuzjDseoBTJeOjs95kmfhn2vPQj9s7cIXx0SITYphXVnO+Z+MFjaxLSbFGBI7BKLT+3FQdwGoBuc3rMHehotBNvnLXA61zS8mx4AWWKqBsclxoJxt+ELvJFZmd2HLYTWSnxqtWzamI21hG50weQXsqs7j7amD4evqBjdXf6S8XYtn/vl3ZHDfA4nFkDhyd0GZQeSDzDfX44n8hRjWPx6PpSZjRN9wJKw8rZ/Zs+PFEpOzNwMOiPz9PIwvfwtjouIREzsX1xImYpCzg67Ph99/iMzB/RCXMhpDx6yHcsYCZAaJ4BD5e8wbX463xkQhPiYWc68lYOIgZzhwBzmPwaxZQfjyjzGIix+CxBVlCOnThRNFh1gsgaOkhUbN9BR1n4o3/zEWNxfFIDIhBQmRw7Go8Gm8uzZT92gns9i5IMT5CKYPHY5Rw2IxPy8Bf30jU3/W3sqOIvhkvon1T+Rj4bD+iH8sFckj+iI8YSVOM8OZ09smOVv2aceWJcwf3HcEFmxkLaKgZ/H3lVHInT0EUaOSEB31W3xUIII9b/t2zE8OTA6x/lskSzHUCi0qz+3Cps+OocDc5PXh9/gwczD6xaVg9NAxWK+cgQWZQayrTLy5/gnkLxyG/vGPITV5BPqGJ2AlZ3STOGPMrFkI+vKPiImLx5DEFSgL6YMuOkVECHr271gZlYvZQ6IwKikaUb/9CAUie1YERmDCOHccmJeIUQkzsbmEFYeW/vBIxeQnXXE73xXpk0eznhg2+YU/hliH7Djua1Ldzq1pKY89tz9b52D4Lq95vIi6Y+qb/8DYm4sQE5mAlIRIDF9UiKffXYtMXbBJMGLCOLgfmIfEUQmYubkEsDU+TSDy+x1WLB2AXGaPmNEjEPPcBcSnD4GzLtEt6d8CURCe/ftKROXOxpCoUUiKjsJvPyqAyI3f5nasLwcxi1fOLDbHKsMpDlOfCUJpiSsm/C5J72cTmM55Bxt15JPvIb7/MBOD+8UhZfRQjFmvxIwFmYYD7eAS4owj04di+KhhiJ2fh4S/voFMVrws5UzLeuo8ZhZmBX2JP8bEIX5IIlaUhaBPFxZHhu1GWKzVXAzqfW0619x48lPXgPkaiFoc3fsVZKV7MKuPN7y8usE3cZUF+dm/EkfzOcXRzjFRMmICxrkfwLzEUUiYuRn60tFgYyty3kg+e50NxWyFPqvtdH2LWTxzFtCtcQmB85HpGDp8FIbFzkdewl/xRqYP68pSzremyV+6hWa2t1Uu4/1b2qTU25Y6LoLf71Zg6YBc5tMYjB4Rg+cuxCN9iGG+YFNOm8shW/1iwNQYwNHMdpZqYPepb+IfY29iUUwkElISEDl8EQqffhdrM311TRnTkbawDTvuV1uGzx2KtvYurn2XD4WDD8L794Kvs+ngNIu2BkVX8nBHYQ/vsAj09XcxBKF1aGuL8N3lYojDo9HfxzixVeU/4NI1GUQBkYgK9WRhb0Bbi6LvLqNYHI7o/j5s+GyOGuU3zuO6whsRQ8PgaaM6HBrFj8i7Uoh6j14YFNHd7KCjQ3kYc8KnoW5DAd6NvoHLdyUIixpg4l7QlmhRU3QFeXcUsPcOQ0Rff7gYZDWrdwtsktOI9tuogfp7V3HxVhXce0VhQKPSNrZvbQxp7+LDiTF4d/BuHP/LcJg1saocP1y6BpkoAJFRofBsZkBtTRGu5N2Bwt4bYRF94d9gdDOoy2/g/HUFvCOGIqyVIvW4d/UiblW5o1dzn2sVuHP+MkocwxE10L8T/WI+hjocjQI/5l1BYb0Heg2KQHcjpbRQ3DmPyyWOCI8aCH/DtrbHZwNaVBdcRl4Jy6khzL4Nb7RoxEb96+/h6sVbqHLvhagBDfdQdlKs6tCi4J9jMfDtgTj43T8wkudc3nzO26ijWflUKP/hEq7JRAiIjEKoLimUODwnHNPqNqDg3WjcuHwXkrDmeazHppxRl+PG+etQeEdgaJinhbHAFtubzjX+/GwDNslvhnaMiVrFHZy/XALH8CgMbEgkIzom55WH5yB8Wh02FLyL6BuXcVcS1iwnDPDm/E+HKZvYFJPaahRczkMJ03EI07F1GbHWX6ZyqIHOqsWWaqAGih/zcKWwHh69BiHCkpM6zBbW02mTV4F20jh5LcKnE42LvkDHojqzBCNftMeGI69jxM9USAUErEbzPf6WMBRb4r/C5f+NbXGS/UugafJa9OlE8yeDAv9xNE5eiz6FMGwJdCYdMocX6ATspegXl4AIP8FFnY0kaimyjwkTV4FfB9qKa5C5/wZ/mjbsFzhx5bCHtF8cEiL8hAHmvwx7aT/EJURAGLYEOhvhyquAgICAgICAgMCvBuH8SEBAQEBAQEBA4FeDMHkVEBAQEBAQEBD41fDLm7xqlaiW16DlE4s0dQpUt/fZCgI2ooWyWo4aK94tISAgIPDrQo0aeW2rsea/F8EeAr8eflGTV80PHyGzb3f07N8XUS983fgcMO39vZg1cChezOIeEm87WkURfig08daiXziqUysxJnGJYeknRvMDPsrsi+49+6Nv1Av4Wjhx4ByCv6SMwtKjgjF+zfysefVL5eeMbdb3yjGJWJLTCX1rS5C77VPkNHvQux41vl+fij5j3sT5Du9WhVN/ScGopUfb/SzLDudnsQfrtvo2Tuz7FB9+sBV7jv9geIOiFiW52/BpTrMXA9gMs/XKMUhckmNY/iXTEfr+VPzyZf0FTV7VuLhlHQ72WIGLxcW4vC7Z8KywamSvXI5LE97Fmt/wvP/ZLBrkv5eJqInrcO1XdkpJimLcuF5oWPppUV/cgnUHe2DFxWIUX16H5FYPbmuG6gzWTJmNTb82A9sKyVF84zqKbHo9jkATKpxZMwWzN137Wa/u/Jx59Yvl54xtUuj6LuyMvmtz8c6CBXj7uNywQo+28BMsfscOL21eghi+2tYmCPLiG7heZO2buX5CfgZ7aH74EM9ExmL2u1/j3Jn9+Me0kZj5eQ3bUovcdxZgwdvHYSyNLRAUnK0LKw3Lv2Q6Qt+fil++rJ08eVWh+v59VLd4LZ22Xo4yWQXqjKb0ashKy+EaFKJ7W45IZBBNq4X/0+/gi5Wj0VW/xnYMD1RoayFR15SjTF5v8qqvpq4SlcaKNKJVynH/fjWzQsdh2nbWoaq+j/utnQF5mQwVLRpUy0pR7hqEEL0zmgJFXYPyMjnqmxtDXYTzXx5Bnqy1UHy2404s6iorUde4UYt6eRlkFXW2n+0xPSrL225rPjm19ZUoV5hp2Yz9rIWLn/Lqtkzl1KgpL4PcyBGWsGxfTW0Fi+dmbaoUKJcrTdqF37emdFOj6PyXOJInM9F/W/RhtNP+DbQnr8zbgel0vwymQ4fzRbmZbRZsq6lDZWVd07Z22IA3thmWfGwOdc19lJlq11T9MANv36pq07W15Xq3SdhWWoadU7sZVugh8UD8aesWzI00M1PjbMzqiU2ZqatBCvM1yAbdm2NxHOH8b67fn9MeOtgJ6/v/i6yer+DQwY/x7qbtOP79d/jXE9xzCd0waVspynZOhbE05mhjjbAavnw1j6XaoZ8jcDKb0VerhNzEPMkauL7N5m/LOsGwvla1VVZuTC+HqSGtPTXWJNyjsjoeDZUdeZ3SevuSf1gYBfiGUsrqk1Rff5JWj+1Nvj5B1DvcjzylUTRrWz6pqZy2TQ8nqas92btKqUfPEbQ0V0nyM+tpUqQ/+YeEUwA7JnHBXipUG7qwGjXd/FssOQ9ZQZcfGVYZqM9eRDEjl9FxpWGFMpeWjYyhRUfq9cvyM7R+UiT5+4dQeIAPBSUuoL0NAshP0t8n9KbuPUIpyI/p2aMHBYal0/sFGqKqb2nj9KFM7yDqFexD3UKS6eW9BUwS26jPmk09vKcYFszZzjKasiP0eho71j+MwgJ8KTRlNZ2sr6eTq8dSb1+mV+9w8vOUUtSsbZTPGizfNp3Cpa5kb+9K0h49acTSXGLeoDPrJ1Gkvz+FhAeQT1AiLdhbSKrSjykzzJtc7MXk5svZIIM2lzAb8NhOeeJVSkpbRuvmRpGHSEwRi88y9VbTWBYvPkG9KdzPk6RRs2gbJ4xFNFR6eAmNDuxGfsFBFDx8Jv39ld9Q7MJviPNiu3ysKaWsJaMp0MuPggN7UszM5+lxXylN2/OQbTRvP0vo9B+/nDa9NoEG9gohPw8pDX1xH3Fm49rNXhRDI5cdZzbXo8xdRiNjFlGTyKbyopJ2zIykuCVHiZNOR/0JWp44hP50oIbXvg3yvL98PJMniLw9wyh94wXK+2Q2xfcNI3/PrhQ5ZwcV6uRjWPKtKd0eldLHmWHk7WJPYjdf6hEYRhmbS5j3zOmja46Httu/o/KKzw7qm1vp2UF+5NMznAL9wihzSyFbq6TcV5No4mvv05JxAyg0NIA8vQbQ1A+vNfrafJtKOsGOTVu2juZGeZBIHEGLz9a02Qb8sc3gyws+1Ddp67ODyM+nJ4UH+lFY5hZD3JiuH7oW67Nodg9vmrLbir41ZXTk9TSmsz+FhQWQb2gKrT7JEsPceuUJejVhOL38jSF5+Gozt2/SeFq+6TWaMLAXhfh5kHToi7RPn5g8sBqUxdUgL1aDAqlnzEx6/nFfkk7bY8hFHt354JU1l8k6kV57fwmNGxBKoQGe5DVgKn14zRBJP6s9mqOknBfCyHHwUjrXWJga4GI6gYa/rK/VfJivEfWUNbsHeU/ZrdvPLPXZtChmJC1rGggod9lIill0RNe36Xy1UIv5aofOdmm0bN1civIQkThiMZ191FLfKvp243QaysbkoF7B5NMthJJf3ksFFgJDmctq7MTX6P0l42hAaCgFeHrRgKkfkt71puoEm/i0oVZZL6u+z/HLN9FrEwZSrxA/8pAOpRf36et7u2osD50zea06SLN6etNj667qkldTcYF2HfiOlMo82vfZcSrWWUNJV1fHkUu/hXSKGV39sIy2T/Ujv6nbSSavIWVtDs3r40tj112hWra3uvAzygj0pyk7K7iDbcD85PXh3unkGzCTDjYkVf0hmhXQUMBrKWdeH/Idu46u6AWgzzICyX/KTqrg2nwrgTyHr6ALbJvmwT76Q2gPmr7zAT1ix2W/0JttW0q5FZzraunK+lSSek+kLfdsSXomTvNBlsd2/FTRwVk9yfuxdXRV7wy6sOsAfadUUt6+z+i4vkFSXl1NcS79aKHeGVS2fSr5+U2l7TI51bBVtTnzqI/vWFqnNwYVfpZBgf5TaGeFmh7KttLTXsE050AZyasesq18ttPrFeDUhYLS1tCJ/Nt0s5j5O28ffXa8WJ8oyqu0Os6F+i08xS3xU3OYngv2pMS/5bFYU1NJ1nyKZidB3QwDR9t9zDX9HAV7JtLf8ti+6hLKmh9NrvbdDMfy2M8COv0dvWnkK19RKcvgmhMLKaLLYFp+kQvQh7R3ui8FzDxoGPg4kWdRgHQa6UU2lxcPqPBfj5F70Bw6zG1g1B/5E4V5PUWbZRpe+zbIk7A0m8o0GirZMpGdSHajiMxNdJW1VX9xBUU7R9KSc5x8VvjWjG7qhzLa+rQXBc85QGXyKnrIVa8253n77N/+vOKzg5KOvtiLfNK3EjM927WAbhZwO3EDbQCJu/Snmdvz2V6P6PZ7aSTlfKSrDXxt6o916hJEaWtOUP7tm1TMErOtNuCPbX4f86E8+iL18kmnrXrFqeBmgc6v5usHWzSavPL3XXVwFvX0fozW6YsZVVzYRQe+U5pd37Jt3trM7RvgSN4jX6Gv9MFLCyO60ODlF5mneLBQg3h1N4s1soqpS/+ZtD2f6fnoNr2XJiWvpzYTt/lntUcL6i/8lUZ6ismHTerXHr5NNYb1bEvjxJOTxiy8NcLKyevDvTTdN4BmNg0EdGhWgOEEw1y+WqjFfLVDZzsn6hKURmtO5NPtm8VMb2N9a7NfoN6ew2lpboVukld7ZT2lSr1p4pZ7XINm0dVYcRfqP3M76V3/HqVJveipzdxxpupEW2uVtbLq+3T0HkmvfFXKIryGTiyMoC6Dl5NuSGtzjeWnU24bUObuQZZiFGbM6K97NaCoaxTS0yIgkUTiyckjEWBfA1lBEah7ENzvl+CeFrB3coOT2A52Yie4e7iAzu7CftlQpCU5oOjGDdyqi0TC4Dqcyrn809wErzyLXftlGJqWBIeiG7hxqw6RCYNRdyoHl5VqFP9YApeIoejnzOk3EAN6yFFYXAuR8gQ+3yND4vPzEd+VM68zBsx8DqmibOzPrtW33RZ4bMeLMhd7shQYNWMG+uudgaj0NERIJIh8cjJGBtijRlaAIuqOIPf7KNE7A25OYtjZieHk7gEXiRJnd+2HbGgakhyKcOPGLdRFJmBw3SnkXFbDydUJYjsRJM7u8HBzgj2v7fRiQZKAVzbOQ1xIKMIDXJh6T2LyyADY18hQUEToHuSO+yX3DDubR3X+EL4pj8f0P0SyWLNH98ffwIqnfay7H4ZXThXOH/oG5fHT8YdIZjj77nj8jRV42qehZR77WYGdWyrmrxgDX3vAJToFcd6FuHnL8vdGSrN58R28J05CQtUh7Mjh4qweJ3YeRFXyJDzJZLZkX06eecuSIBWJ4DsqAf20QUhfzGKGxbdjv1hEexUj/w6TzwrfmtPN3slVl+MiiTPLcZbvbLt5fSzlefvs30ib84rPDiK4e7rj4bVvkHVFDq1zEMKDGl7fZgfX8a9i7TMhTAMHhGZkYqSa5dFZ62wrSXgFG+fFISQ0HAEubbWBhdi2Jn/NIHL3hPvDa/gm6wrkWmcEhQexCshXP1o0yNu3Erl7sqAYNQMz9MUMXaPSkRZBZta3eP+YNbXZzg2p81dgjD54kRLnjcKbt8x/Zc/gr0E26N4cq2R1xfhX1+KZEKanQygyMkdCzex0VmXOTj+NPVriGPUKDh37GL/3Po7Xxkeg/5ilOHTX+jxte42wFr585cFi7ZAg4ZWNmBcXgtDwALgY1upR4sTneyBLfB7z47vqYsV5wEw8lypC9v5s/S482LmOx6trn4He9RnIHKlm9jhr2NqiTji0tVY1YI2sdnBLnY8VY3xZBrggOiUO3oU3oRvS2lpjLaDPrw5GJZOh0tMXflzeNEd7FweXpKK3fxhGjEvH5FVfg53wmbynSVN6D2V1Z7BhegYyMri/adhUFIbIYA9mnJ8ATSnuldXhzIbphv4zMG1TEcIig+Fh74iBiTGgw+ux+v++xMEP3sCWK32RlOgPkeouSso90SPI1dAQQxyAAG8Vyh9UGVa0ARtsZ4RKBlmlJ3xbOwN3Dy5Bam9/hI0Yh/TJq/B1hQZkskENSu+Voe7MBkw32CJj2iYUhUUi2MOEN3htp9/FTiKFn7Qp/LR3D2JJam/4h43AuPTJWPV1BTSmhTFCzWLtgSuLNTfDChYdDg5WhjWvnGrIZA/g6uuHpqYd0NS0LfYzjZ3hX67ISRy0UFtxLxBfXoh9n8Kk0XU4vDsHtfW52JlVj8cynoAXO84a+zbKw05sxHbsRNKwqJNPTNBwu1vhWw5rdWt7nrff/jramle8dnDA4Jfew1vx17E4NgT9JyzFPm7ib8Be4gix4TOcpJC610DO/fzaom3tIJH6sRMM3ZGMttrAQmxb6WNTOAx+Ce+9FY/ri2MR0n8Clu67wyY6NtQP3r5VTO5KeDK5jauZufUtsLY2NwUvSwUHaC0kJn8NsrF2NmCVrPaQODZGEgslKdxr5JBrfl57mMItcjLePHAV3+esQvTtt/D7F//PsMUynT8X4M9Xs1iqHXYSSP3M/chchbsl5fDsEYQm64sREOANVfkDwzIP9hI0ud4JUqk7auQNP61qUSfaUav0WCurUaDAQavW/7ahrTXWAqbt2k7Erq5wrFYYHofRhPLIKsx9R4U5OQW4c+0yzr6djsYLWS0QuXnAzSUFq09ewqVLhr+L32LvS1Es1DoIkT3sHj3CI8MiV/UbX5YrcoOHmwtSVp9s6v/SRXy79yVEOahw/exluEf3hmzPO3jvG0dM/3wXFkcxycTucO9SzZK/sVXmvPt4oHCEt9TDsMJ2bLGdEWJXuDpWQ9HaGVg19x2o5uSg4M41XD77NtLNNiiCm4cbXFJW42SjLS7h4rd78RKnc8vDeG1n2McIJY6smot3VHOQU3AH1y6fxdvp1l09tXdxhUttJSqbnNjkQ442+5idP7o6o7ayounsnrvNxvDRNvvZhsjeDo+YzA2Qtqlf3rwQSTFh0hioDu/EoS93IuvR48h83JMd1Xb7tsJm3zandY9tzvMOsn+b88qSHdyiMeeD08i/uh2ZdR9gxp+36o/T0SxAVZWoqHGHV1c2DNtq2zbbwEJst8vHboie8wFO51/F9sw6fDDjz9haytby1Y/m8PYthqurI6oVLR97aG59CzqpNnM1yJnVoIomYzarQRZqpzmsldUolCpQ4+6FrvY/rz3M4wC/+BfwxqxBqLl62bDOMh0zFxDB3o6NA00DAbTNBwoz+cpXi9tcO3SI4e7eBdVs8tfUuhb3Hyjg6C01LPPTJL0KlRU1cPcy85P2dtUqjvbJ2j47macDmmiNZHgChqmPYvchmX52rbiET7edRJW8ElViXwT6s/NBbTlOZ1+AuaejSIYlYYTDMXy+o9lzxlQKKOq4D1oU7X8dc1fsxh3e7GyC6ivw4/WruHqV/V37AfdqWSoFBsKv5iou/cCdadTg3Nq3sKfMcD4gGYakEQ449vkOND0STwWFTgAVSoplqHvkhv6P/QaTJiajn8sj/a/mJbFIjiPkbPsCP+qO06Bo1xYcVifjqdHOQP1ZbHzhZWy5YtvvNjU22M4IyXAkDFPj6O5DkOmdgUufbsPJKjkqq8TwDfRn521alJ/OxgWzDUowLGkEHI59jh3Nng+oUiigcwe6wNmxCg8eGM7YeG1nCg3klVUQ+wZCr95pZF+w7jEz4iGxiBKdxv4DpbpYqzm/AWv26j9ztN3HYgyJHQLR6f04WKprGec3rMFe3WeGxhb72YIDAgP9WHG/BL3I57D2rT1oEpkvL4Cu4zKQqj2A5a/sBz0xCSm6U+W227cVNvvWmC7Ojqh68IAdoceSPmbpIPu3Pa/47FCPH85dwn3mM6fgZGSmBONRdcOVLII8659Ye7aafWZ1bNcXOCaKRVKMxHbbttkGFmK7HT6u/+EcLukVR3JmCoIfVaOq3lL9aAZv3xIMTxgG9dHdOKQvZmxo+RTbTj4ys97w1XcDlmpzG+Fq0BCuBh00VYNs0L051shKcmT9cy30oVSEXV8cgyg2CTESc3bqWHtoi/bj9bkrsJtvENaW4NDb67HvSrnuSQXqspP44subcB0wSL/dCtpcI5rjEIhAvxpcvfSDrvbUnFuLt/aUGXxkLl/5a3Gba4cOCWKT40A52/CF3vjQFO3ClsNqJD81WrfMB8mz8M+1Z6F3/S58cUyE2KQY/caWtLlWNdA+WdtnJx4M9752MA/p4voJ1NPTnwYmjqIhIaE0evUpelj5NS0c4klevWMpblB/GvXsMxQd8Hvap7sbup4OzQ6koNlZ7BPHI7q1bSYN8pZS77gxNHZ0DPUJjKQFul9JKunk/wwgt14vUrZ+Zx40uh+yuNjpxmr9n50L/eaTKiL1bfp4UjC5SvtT3PAIGjb1VZoZHUjP7tffnv3o1jaaOcibpL3jaMzY0RTTJ5AiF3C/vtPQjx/9hgKCk2j67Jn07NTfUlKvruSf9g5dVzPprm+maf29yKffSEoe2Y/8/GPoxT36X5dqSt6mFCc/+sMBfR981H/9Rwrxf1a/wGs7fh5eXE8TenqS/8BEGjUkhEJHr6ZTDyvp64VDyNOrN8XGDaL+o56lZ6ID6PeGBusPzabAoNmU1WDfR7do28xB5C3tTXFjxtLomD4UGLmAdO7QPKC9M0PJ1X8wJY78A310V8NjO71eoQHP0r+byV759UIa4ulFvWPjaFD/UfTsM9EU8Pt9hq181NK5N1PIzyOIhibFUP+oiTQ5Sdr0S982+5hRe47+d0x38ggaSkkx/Sk641WaPazhWH778dFKf+VxWtBHSpN36leob39Mk4JdSdo/joZHDKOpr86k6MBnSS8yX15w1NCh54JJLOlN83Ma1vHbt6U8Gtl79LhnDK26ykUso4V8NvnW6FgNPdg7k0Jd/Wlw4kj6w0d32RpL+pijffbviLwyb4cK2vdcH/JnbSYnDaYAn0E0d28JO0L/IwiP6CdoTJ/eNCxxCAV4htJv37vKKpoe823W09d/DKWAZ//d+OOR9tiAP7Yt5AUPFfueoz7+TJ7kJBoc4EOD5u7VP0WDr37Uf01/DPGnZw1Bw9v3w4u0fkJP8vQfSImjhlBI6GhafYodZ24913ZoQGPbfLW55b5sbzq+oA9JJ+9sZnNTsBr0v2Ooe0MNis6gV2cPo8Bn9+uP49OdB35ZuR9eeVD0E2OoT+9hlDgkgDxDf0vvXTVE0k9gD+XJ/6EBbr3oRb5BWFNC/zcjnFzt7cnR1ZUc7cXkNWQ2/d8t7pc8pmLaFHw1gmsjhPxZG/yo6fbHkyjYVUr944ZTxLCp9OrMaIOPzOWrhVrMVzta2Y6jhb7K67R5Wn/y8ulHI5NHUj8/f4p5cY/FJ63ofnDqEU1PjOlDvYcl0pAATwr97Xukd71pm7alVlkva+s+lccXUB/pZNKV/XbUWD7suP/pZrGdQP29q7h4qwruvaIwoOGeS3U5bpy/DoV3BIaGeVq89KutKcKVvDtQ2HsjLKIv/F06+GKxthZF311GsTgc0f192DlGC7Q1KLqShzsKe3iHRaCvvwtEquOYH5mBslXX8dnT+q9X1OeWICrpW/wx/zCe556NqlHgx7wrKKz3QK9BEeiuO5HV4u6HExHz7mDsPv4XDDeYxGpstJ0R9fdw9eItVLn3QtSAhnuh1Ci/cR7XFd6IGBoGT4sNalFTdAV5dxSw9w5DRF9/NLpDq8Cd85dR4hiOqIH+0Ktrwna6nU2jLr+B89cV8I4YijDLwjRDi+ofL+JyiSPCo8Nx8U/h+L3ybRR+8hu9nm3xsWETtNUouJyHEkkYhjC7GT8F0Vb7WY+2tgjfXS6GODwa/X1aSdymvGi7fU1go2+b0EJx57zeV1ED4W+4wNO2PO8g+7cnr8zaQYXyHy7hmkyEgMgohHpyd+cpcXhOOKbVbUDBu9G4cfkuJGHNamMDNtm2HTbgjW1GG32sKv8Bl67JIAqIRFSoZ7P7EnnqR0t4+67HvasXcavKHb2iBjT7bYW59S0wWZvbC6tBBZeRVyJB2BDWd2tjWq97c8zJqjyMOeHTULehAO9G38Dlu6zfVjr/nPZojha1d6/hu3wFHHzC0b+XL5xtiVMD7Z8LMDmKvsPlYjEbJ/rDuKyaylc9vLW4PbVDhwaKH/NwpbAeHr0GIcIK4ysPz0H4tDpsKHgX0Tcu4y7L36YxnQebapUpbJe1kXbbqTWdOnn9j0V1Foujx+DfUavw11nD4aMtxrF/LcGbJc8i++griDR3I47qDJaMfBH2G47g9REdXiEEdCiRNTvMePIqIPCLoGnyWvTpRCE2BdpO4+S1CJ9OFCLpv4nGyWvRp/hvdn1HTID/+5AMx6s7P8FU1+PY+NoivLLqE1zr9T84uHeR+YkrhyQKS7OPCRPXTsUePv3ikcDORIXgFvhlYQ9pvzgkRAixKdBO7KXoF5eACD8hkv7bsJf2Q1xCBP7bXS9ceRUQEBAQEBAQEPjVIJy2CQgICAgICAgI/GoQJq8CAgICAgICAgK/GoTJq4CAgICAgICAwK+GTp28autrUKt7Fr8GtTV1MDzbV0CHFvU1tboHJkNTh5o6ngc9/xxolaiW1+geLC0gICAgICBgCi2U1XLUtBosNahTVDe9xU6gQ+m8yav8K7w48hl8VKhC0dbfYdQL/w8Kw6ZfLdoS5G77FDnN3pTSZso/wm+7D8D8b2rx3RuJ8E36m2GDKVQ4tXIMEpfkGJY7F80PHyGzb3f07N8XUS98/QtPPi1Kcrfh05xmb1/5OVGdwsoxiViS036raUtyse3TnGZvRRHQ5cJfUjBq6VFdXLbLRh2Zz/+t/Nps+BPJqzq1EmMSlxiWrKUD6nwH1h/r+GnHpvbSNr/woPkBH2X2Rfee/dE36gV83Wh2Le7vnYWBQ19EFvf6Kiuou/c98vIus7/vcD1fhtr/0LLUUT7opMlrNY6smIeswXMx1XEnXn71Dsa/MB5m3rz766E2F+8sWIC3j8sNK9qO+m4xZOJe6BeqRfHdB+jat79hiykIiuIbuF5YaVjuTNS4uGUdDvZYgYvFxbi8Lrn1w8uboTqzBlNmb8K1n+0SbS1y31mABW8fR/u90gGQAsU3rqOwA95/V5v7DhYseBsdEG7/QRDkXC4U6V9v2y4bdVg+q3BmzRTM3nTtv++big6siT8JP5G8pCjGjeuFhiVr6YA634H1xzp+yrGp/bTNL+ZRX9yCdQd7YMXFYhRfXofkhsGyOhsrl1/ChHfX4DdSK6ZZmny8M2kwRj75Bzz//BxMmxCNIP+BmLji3/hR9/XsT03n1bSO8kHnTF5rs/DeJyUYOjYJVTvex4EuSUjt3/QAVFX1fdyvbuERbT3kZTJU8Hx9rq2Xo1xhzpNa1MvLYXYzH6pq3L9fzdzVgpbr3SZhW2kZdk7tZljRgAZ1leWoNullLZTylvpW46u3d8Bx/t/wB4fPsfHoIKz4y5OGbdbC6VsGWUWdFVccVai+fx8tTW7a5mrISsvhGhQC7kVhIlFTiKhrylEmr2c9N6EuOo8vj+RBZkIIU/s3oqlDZWWzW0ms8L8eNWrulzXzsxsmbStF2c6paO4VTV0lKtt4Kwav3EYwWcrLIK+37sy6OZraCiZfs+NUCpTLlUZ9uk3ahtKynWgebuqa+ygzE+TWtNmAVik3HfMm4c8tva2b92Iq5pthLt/UNSgvk8OkOVl8VJYrWh1jykY6NLWoaB5f7EhFuRzK5m2byWd+/5vKdTWKzn+JI3my1rmoVUJuKvesgs/uFmKvZX5Z8klLuHw0YW89nA0qoXM5T02srTDsY0ClKIfcyAENdKIuLKbulzXTw5y8rfrgo215z41fZbIK2FyW+PKCaWaytnNwOpVXM2lNwNtm58OXY3y125a6ZX0dN8bk/IS1Ymq8VctKUe4ahBD9YNk4odJq/fH0O19g5WhrL9lpodHYo9eMzTh64hS+vVqIW4f+PzhsnYJxL39t44WZZvnJYXFstbGm2RA7bfWBVXDPee1wlBdo0/zFtO37R1R+5C164a9ZVKoh0pQdodfTepOvfxiFBfhSaMpqOllfTydXj6Xevj4U1Duc/DylFDVrG+Ub3u+rzH2Vkia+Ru8vGUcDQkMpwNOLBkz9kK7p3uOrpNxXk2jia+/TknEDKDQ0gDy9BtDUD6/p3xVen02LYkbSsuMNbw5n+y8bSTGLjpDubcyaMjryehrr25/CwgLINzSFVp9kW8ytV56gVxOG08u6dyor6QTre/zyTfTahIHUK8SPPKRD6cV9JcS9ypuj6tuNNH0oOz6oFwX7dKOQ5JdpbwFT7NEl2vyXLZRXr6HKI+to1Z4f9e+SNov+nejeU3brl06uprG9fcknqDeF+3mSNGoWbWswmBEaKjvyOqWxff3DwijAN5RSVp9krZmzeTltmx5OUld7sneVUo+eI2hpLrOd/AytnxRJ/v4hFB7AjklcQHsLVVT6cSaFebuQvdiNfHsEUljGZv17zE3uz8mnt1nasnU0N8qDROIIWny2htf/zVHf3ErPDvIjn57hFOgXRplbCtlars0EGv6y4d3n8pP09wm9qXuPUAryY3r36EGBYen0foGGhcMiihm5jJrCIZeWjYyhRUd0R/LI3Rr5mfU0KdKf/EPCKcAniBIX7NW/51n3znFvmrK79YublSdYLI9fTu8vH08DewWRt2cYpW+8QHmfzKb4vmHk79mVIufsoEJDAHH7Jwx/Wf8OdPVN2vrsIPLz6UnhgX4UlrlFt5+tbbKgpI3Th7JYCKJewT7ULSSZXt5bYCL+LOQWlwtJabRs3VyK8hCROGIxnX3EE/Mc5vKK5HRm/SSK9PenkPAAFteJtGCv4f3qLIZLs5bQ6EAv8gsOpJ4xM+n5x31JOm2P7j3aRjbSyTSelr+/nMYP7EVB3p4Ulr6RLuR9QrPj+1KYvyd1jZxDO5oM3CyfGRbi1mSua0rp48ww8naxJ7GbL/UIDKOMzVwNqKJvN06noazOBfUKJp9uIZT88l5qMIV5LNidYTb2DHIa59cjfp80h+XDq0kT6bX3l9C4AaEUGuBJXgOm0of6YquPtbRltG5uFHmIxBSx+Cy30kRNfJ+Wj2d2CvImT5Z7Gy/k0Sez46lvmD95do2kOTsKG2tkp+nCoufm1mdpkJ8P9QwPJL+wTNqiT5hW8jbvY/5fn6XIuCV0tDF96+nE8kQa8qcDVMOWzMtrjO79895TDAsnafVYNu6x/XuH+5GnNIpmbcs3kXPGdd5SXpis7br640WpL7xMqQPCKMTXg6RDX6R9usLMwddmE/Jds3V2yGm0g5JOrhhF0X8+SLWGNXpajE3tqbE8tdv6usXg6cPILy0wPT/h3Gd6vC3fNp3Cpa5kb+9K0h49acTSXGYl6+zbClbf/xbrTENWXCZWRhup2D2N/N0fo39xsWthPtM6P3N5xta21DQbdGujD2yhcyavJqmig7N6kvdj6+gqlxCaCrqw6wB9p1RS3r7P6HixPriVV1dTnEs/WnhK7yBO0QBxF+o/czvls1WPbr9HaVIvemrzPW4rS5wAEnfpTzO35zN3PKLb76WR1Osp2nyPOfvhXpruG0AzDzZkYD0dmhXQOPBVHZxFPb0fo3V6gajiwi468J3S7HrjiYm+b0fvkfTKV6XMgTV0YmEEdRm8nC5y0VebTS/09qThLKAruLpRe4XWp0rJe+IW4kSzDeMCoczbR58dL9YFLDMYrY5zoX4LT+m2GVF1kGb19KbH1l3V6aupuEC7DnzH7GTe5uqHZbR9qh/5Td1OMnkN27OWcub1Id+x6+gKV7XUhfRZRiD5T9lJFeqHJNv6NHkFz6EDZXKqesgFJ8/+Bps5dQmitDUnKP/2TSqu4fd/E0o6+mIv8knfSjKdPQvoZgHXQZNtHjIv3HwrgTyHr6ALbJPmwT76Q2gPmr7zga4gPNw7nXwDZlJTOByiWQFSmraHW8Endwtqc2heH18au+6KrpCrCz+jjEB/mrKT7ckzedXFsqM3JSzNpjKNhkq2TGQnCt0oInMTXWUN1V9cQdHOkbTknL58NSQ515Ty6IvUyyedtuqVp4KbBbq+bWuzlrJf6M3ss5Ry9UFJV9anktR7Im1pFZQWcovTM8CJugSl0ZoT+XT7ZjHVWIh5c3lVmzOP+viOpXV6w1PhZxkU6D+FOHNSzWF6LtiTEv+Wp/NvSdZ8imYnV90MOdzcRnqZHMk7YSlll2lIU7KFJrLBpVtEJm3SG4NWRDtT5JJz+gHCyFeW49Zcrqsfymjr014UPOcAlcmriEuD2uwXqLfncHbyV8E05UyxnlKl3jRxC1e3+LBgd77YM5VfZTbUIZ39xNSl/0zari+29F6alLye2qzbVxdrTl0oKG0Nnci/TTeL2XTOyIYNdkqgpdllbBAsoS0TpeTaLYIyN11l8tbTxRXR5By5hPTh2Im6KI/Si718KH2rTG//gpukLxet5W3eR+H3/6LH3INozmFuZ26XI/SnMG68Ye3wymtMQ1zqUObRvs+Ok77EKenq6jhy6beQWpU4nTxNdZ43L8zVdp0PHchzxCv0VSkLxJoTtDCiCw1eflEX87xtNkNz91163IONnQe4KTuDTZw4Ozy5uVRnzyaMZW57jeWr3bbULf46buQXI8zNTzj3mRlv2fhXtn0q+flNpe0yObGhzGr7tsLM5JUqP6anXL319rMwn2mdnxU8Y2tDrtpQ06zWra0+sI3OuW3AFMpc7MlSYNSMGejPvY9X1BVR6WmIkEgQ+eRkjAywR42sAEXUHUHu91Fyr+lCs53reLy69hmESACH0AxkjlTjVM7Zhq1wHf8q1j4TAgkcEJqRiZHqU8g5a+mLBSVy92RBMWoGZugFQteodKRFkJn1rPNW2MEtdT5WjPGFPVwQnRIH78KbuMW6Vp74HHtkiXh+fjy6clZ2HoCZz6VClL0f2bX6o9uKJPJJTB4ZAPsaGQqKCN2D3HG/5J5haxPK3D3IUozCjBn9de9RF3WNQnpaBLOTeZvbO7nBSWwHO7ET3D1cIFGexa79MgxNS4JD0Q3cuFWHyITBqDuVg8tqJ7g6iWEnksDZ3QNuTvasU579DTezSxJewcZ5cQgJDUeAi2X/6xHB3dMdD699g6wrcmidgxAe1PI1u2oU/1gCl4ih6Mc2iboOxIAechQW11q+P8YKuRtQnt2F/bKhSEtyQNGNG7hVF4mEwXUsJi9b/HGbnVsq5i1LglQkgu+oBPTTBiF9McsJJq9jv1hEexUj/07r2BW5e8L94TV8k3UFcq0zgsKD0KC91W0qT+DzPTIkPj8f8fqgxICZzyFVlI39JoPSUm5JkPDKRsyLC0FoeAAceGPefL6d3bUfsqFpSHIowo0bt1AXmYDBdawfZnjV+UP4pjwe0/8QyWLYHt0ffwMrnvYx7087N6TOW4YkqQgi31FI6KdFUPpi1qfOGIiN9kJx/p3WXzta9L/5XLd3ctXljEjizHKG5Y+9Eic+3wNZ4vOYH99VJ6vzgJl4LlWE7P3ZXGMWMG93a2KveX55X7KxDtm5Yvyra/GMvtgiI3Mk1MwGTS5PwCsb5yEuJBThAS6Glc3h7DQPy5KkEIl8MSqhH7RB6VjMapAzHNEvNhpexfnQhWNn6iJyh6f7Q1z7JgtX5Fo4B4WjVbkw0LyPwF4TMSmhCod25IBrsv7EThysSsakJ33wqK15L4nEk5NHIsC+BrKCIlD3ILjfL0GrEmeEkjcvzNd2hp0n0hauwBhfVo9dopES543Cm7dYzPO32RyRXzomJz/Eoe1foZot15/YgUPMDhlP+lqupebgzTGe2m1L3bKhjhthdn7Cuc/MeGvvxMY8Nv7ZieHExj8XifX2tRonFzg7PERNrZVfvBvlZ1cLY6ttNc1q3drqAxtpcxzajEoGWaUnfP24yGiOFncPLkFqb3+EjRiH9Mmr8HWFBtTcV/YSOIoNn1mqSqXuqJE33QViL3FE02YppO41kMvN3d/RgAoyWSU8ff10yd+EufXmsDP8y2ATcQetWnePiOpuCco9eyDIVb+JQxwQAG9VOR5UWRmIZtDePYglqb3hHzYC49InY9XXFdAYGUyPSiZDpacvWpncGps3oCnFvbI6nNkwHRkZGbq/aZuKEBYZDA9WG1thcX87SKR+bKKl25thrSwOGPzSe3gr/joWx4ag/4Sl2NdqkueIgYkxoMPrsfr/vsTBD97Alit9kZTobznQbdBTU3oPZXVnsGG6fr+MjGnYVBSGyGAPVgQs0xgxLF7EduxEwbDIVkAiJmhM+MFh8Et47614XF8ci5D+E7B0n/EEzKo2VXdRUu6JHsZBiQBvFcofVBlWGMObW3YSSP3YJEW/ZCHm683klQal98pQd2YDphvsnjFtE4rCIhHMDK9mMfzAlcWwm2F3ZmEHBwvebDIG053ZoskYzDxikCkDW+V/o4Yac701KtwtKYdnjyA0mUKMgABvqMofGJb5MWd3y7FnnF+21yF7SJqKLetaCvcaOZpcLoWfxR+gNIs+Zm87YwdATBrdPXCdqovDYLz03luIv74YsSH9MWHpPt2EuTUt6hGbcD81aTTqDu9GTm09cndmof6xDDzh1Y68197FwSWp6O0fhhHj2KRw1deo0JCF+wD588J8bTdgZHIHaNWcA/nbNEIkxYTJj7Na+gUOy+t0dqgz2KHN8OYYT+22pW7ZOl41YHZ+Yv14a5N9rURbWoji+m7w5U5ErMA4P60ZW62taTbo1lYf2IilKtRxiF3h6lgNRctJpfIIVs19B6o5OSi4cw2Xz76NdJ/WYjX9dlKFyooauHs1vxG62S8rVZWoqHGHV1fOSiLY2z3Co0f6Tdx+WmrYVwxXV0dUK+QtnGVuvW2I3d3RpZoV1ca+WSjdfwCFozekHu0xuxJHVs3FO6o5yCm4g2uXz+LtdNNXosSurnCsVjQOPI1YaXMdIjd4uLkgZfVJXLp0yfB3Ed/ufQlRDiYCyML+rbBFFrdozPngNPKvbkdm3QeY8eethg0NqHD97GW4R/eGbM87eO8bR0z/fBcWN3QssocdC4amcNCiMRxskFvk5gE3lxSsPtmwH/u7+C32vhTFptidhRui53yA0/lXsT2zDh/M+DO2lvIPf60Qu8O9SzUr+EZBiQcKR3hLPQwrWmIut1rDH/OOZvJKBDd2Zu+SshonG+1+CRe/3YuXmOHtXVzhXMv6bTxj5251MnzsSGyNWyNaxqsY7u5dUM0mqk2m0OL+AwUcvaWGZUuYtrutsdemOmTUdQVq3L1gxuXtorN1cYuegw9O5+Pq9kzUfTADf95aatjChwjSCZMwRnUYOw99iZ1Zj/B45uPw5La0Me+VR1Zh7jsqzMkpwJ1rl3H27XSYK3FN8OeF2drOC3+bLfEcNwVpjl/ji90HsP3QI4wz2IGXNtdYntptS91qax6bm5/YMN7aal/LKHH54//Dtx4jkTKUe4wB33zGBLaMra1ouZ8NurWrllqPtZq0H8lwJAxT4+juQ5DpxlwFLn26DSer5KisEsM30B9OrMCXn87GhRaP+SB5Fv659qzu6wtt0S58cUyE2KQY/UbmQHnWP7H2rG4rinZ9gWOiWCTFcF97BSLQrwZXL/2gu0pVc24t3tpTZjjjlWB4wjCoj+7GIb1AUFz6FNtOPjKz3tR3bOaRxCYjjnKw7Ysf9YO1pgi7thyGOvkpjDbz9VX92Y144eUtuML7bAoN5JVVEPsGwp+dJGrLTyP7gv6xQS2RDE/AMPVR7D4k0+usuIRPt51ErcayzRuRDEPSCAcc+3xHs2dpqqBQ1Ok/dnGGY9UDPGi4qmFp/5ZYLUs9fjh3Cdwj85yCk5GZEoxH1S2vFqpQUixD3SM39H/sN5g0MRn9XB41/urSITAQfjVXcekHXTTg3Nq3sKfMsNEGuSXDkjDC4Rg+39Hs2bIqBcyp2BHU/3AOl/TKIzkzBcGPqlFVb9hoLZJYJMcRcrZ9gR/1QcnyZQsOq5PxlMmg5MktE/DHvPl8G5Y0Ag7HPseOJsMzcyrAmVM8JBZDRKex/2CpLoZrzm/Amr36zx2KrXHbgi7Ojqh68IAdwSFBbHIcKGcbvtAbmpliF7YcViP5qdG6Zf5cN293W2PP5jpEcmT9cy30XbN9vzgGUWwSzLi8XXSqLvU/4Nyl+8x6TghOzkRK8CNUW5swXcchI1WLA8tfwX56ApNS9Ff82pr3GnklqsS+CNQXbJzOvgDLT7KS8OaF2drOfTYLf5utcEnG1N944qvXFuLfdk8gw2AHPtpeY3lqty11q615bG5+Umv9eGvRviyf9r8+Fyt232mKHyMI9RU/4vrV73D++L/x7ssT8Ju//4i4VxbjSe6sgXc+YwKNDeO8CVrWNKtjp5211Fp+usmrKAjP/n0lonJnY0jUKCRFR+G3HxWwSfoYzJoVhC//GIO4+CFIXFGGkD5dIBYbjmPYuYTA+ch0DB0+CsNi5yMv4a94I9OnYStcQpxxZPpQDB81DLHz85Dw1zeQyZ1hOETi9/PGo/ytMYiKj0Hs3GtImDgIzg7c9F+EoGf/jpVRuZg9JAqjkqIR9duPUCASm1nPXXoQQyxxhMRw9iAWS+DYsMCwY8sSJjj3raao+1S8+Y+xuLkoBpEJKUiIHI5FhU/j3bWZukdQtUaLynO7sOmzYygwMaCJWbvc1z/c/T5jZs1C0Jd/RExcPIYkrkBZSB90aW4wA6KgZ/H3lVHInT0EUaOSEB31W3xUwM7enPlsbgcHZh+xg1j/hYLIB5lvrscT+QsxrH88HktNxoi+4UhYeZqdF7I4HTEB49wPYF7iKCTM3IwS8O/f0mbglaU5D/H9h5kY3C8OKaOHYsx6JWYsyNRtaWrTGcPHjoTm+zO4cO4Ejhz8P/zvjGEY8ORGfM+SyCHy95g3vhxvjYlCfEws5l5LwMRBzkxfdqgFPZsj8snEm+ufQP7CYegf/xhSk0egb3gCVp7WaaiTp7mKjXA+dOTuYjRgz+3L1jkYvrqx43zM1jV8Ld5s/4fff4jMwf0QlzIaQ8esh3LGAmQGsf1saVPUHVPf/AfG3lyEmMgEpCREYviiQjz97lpkmgxKntxqkQsc/DFvPt98Mt/E+ifysXBYf8Q/lorkEX0RnrASnDlFfr/DiqUDkMviI2b0CMQ8dwHx6UMMOcww0r+lTPY6W4jZCr017NhnCVvnYCh8zfa34H++XOcK+4gJ4+B+YB4SRyVg5uZS+E59E/8YexOLYiKRkJKAyOGLUPj0u1ib6cv25891Prvzx15rOW2uQ3YuCHE+gulDh2PUsFjMz0vAX9/I1F8pbBlrOoxt3rJ/e87+bF1TODarkZ2py8Pv8WHmYPSLS8HooWOwXjkDCzKD2AZ+efV4IHXyk3C9nQ/X9MmNE2NL8hqhizv9jN95zCzMCvoSf4yJQ/yQRKwoC0GfLmy7bqsxTXVexJ8X5mo7p5+4eQ40j3n+NlvjhLipzyCotASuE36HJFMnO4wmmdtTY3lqN9lQtyzV8WZ+McLc/MSef7y1Y4o5MNuK9YMlv33VxTjxxVb837GC1o8vs3OEm6sI1//5FAZGDkbsuFlYc9ITUz/Owb55hnuZeeczDM4PzfPTwtjaMvYt1TRva2OnrT6wFcMPt346HpbQlZPH6OSVe7pfyOl5RA++P03Hz9yiyhY/Hmz4Zdru2moquJDb4rimXzrWVhfQhdyTdOVe01Y9GqopvEQnTl4lWatfd3I8pJIrJ+nYyStkfKi59bahlt9hch2lk9+VEPfDO7NoiumDJwNo6PIzzfQzz6MH39Pp42foVkuDmeBhyRU6eaylbczb3CSaaiq8fIKOHjtNV+/WGP3iVCPPp7NHc+ny3WYa8uzfGmtlUdKDG2fo2LFzdLtS/9gNI5THaF7v7jR5h9ywgrV8djFFOD9G73DPauPQ1FDhpRN08qqMtWYCG+TWVBfS5RNH6djpq3S3hl/DjkD54AadOXaMzt2uJBPaW49aTndYLh09+R2VmA1Ka3LLNPwxby6vNFRdeJlOHD1Gp6/eJWNzaqjqxwuUyx2j/+Fs52FT3DZHQ/L8s3Q09zI1pYGa5HeY3EdP0nfNDc2b69bZ3dbYs6oONf4Sv5aqCwz2ts7l7aJTdOFQPqAbZ47RsXO3yVS5aCttyvtHD+j708fpzK1KG2KKgy8vzNV2S/C32RzNjxsoxb03zW98PJMVtKXGWlO7rapbBtqaxybnJ5z7rB9vbbGv7Viaz7TExnHeCFM1zQbd2lxLrcOO+59hHvuLRHl4DsKn1WFD0aeY2OpeaiUOzwnHtLoNKPp0IjtP/PWiOrMEI1+0x4Yjr2OEmTNcAQuozmJx9Bj8O2oV/jprOHy0xTj2ryV4s+RZZB99BZFNJ5kCFvnPya1fGvy5/jPaXXkYc8KnoW5DET5tXWwF/uvQ4Pu/JWDolnh8dfl/EdsJt440ItRuARtp+WXLLw57aT/EJUTAz6Sk9pD2i0NChN8vXxELSKKWIvuYMHFtF5LheHXnJ5jqehwbX1uEV1Z9gmu9/gcH9y4Sip/N/Ofk1i8N/lz/Ge1uL0W/uAREmC62Av9taCtwTeaO3/xpGoZ15sSVQ6jdAjbyi7/yKiAgICAgICAgINCAcIotICAgICAgICDwq0GYvAoICAgICAgICPxqECavAgICAgICAgICvxqEyauAgIBAB6KukaOW90UjAgICAgLt4dc7edWWIHfbp8hp9raH5qhO/QUpo5biqMmHL/OgOoWVYxKxJMfWAzuQX4IMOlQ49ZcUjFp6VP9w4Z+Fesh+uIr8cv17PhpRliH/zn3DQhP19y7h8OebsemDLdh55BrKzU4imG4rxyBxSU4bdFPgu39vwf4r3GuIOo+2xrDq1EqMSVxiWBL4KVF/vx6pfcbgzfNtzxhtSS62fZrT7O00AgICAgLN+fVOXmtz8c6CBXj7uNywwhiSF+PG9SIrXsPXAlKg+MZ1FNp8YAfSgTKozqzBlNmbcK1NV4II8uIbuF5k7nV4nY/mzr/wTEQkeg+agS+avcu//vBCxCW9aljikOPU/z6F/uExmLJ0A97buBp/Gj8I4dGz8JnuVYUtISg43QrboJvqe3y+Yj5e33279ZtSOpC2xjApuOMKDUvW075Y+QWhOoM1U2Zj00+tiLYQnyx+B3YvbcaSGO5d5Nagwpk1UzB707XGWKrNfQcLFrwNM6VNQEBA4L+eTp28qmvuo0xhYuKgrkF5mRz1Zl7Kq6mrRGXDC+nN4TYJ20rLsHNqN8MKDi3qK8thqks9Wijl93G/2uwOZtEq5bh/v9rwnl9jzOpphArV9++jZdfaejnKZBWos+YqixV2K682HrDVRefx5ZE8yFq0z9uvth6V5QqTuurQKiE3oUsTGtRVVurfS21AXVOOMnk980BL1Ki5X2beZxo11A7BCO/ybyxfnYMaw2odzZ7yVvHvl/C75Vcw4l+XUHj7Ir49f4OdAOzGFLvPMff/24gfeO3L4kZeYVIfk3aSxGDVxQqcXT646VV8zGbyMhkqzDqSs0k5WrjHBJZimNmrvAxyc0FgBmvizFysWO5Tg9oKY3+rFOWQK83sz9nKXHzZWBtM6qUuwvkvjyCvtSKW0dShsrKuKU4t+rUZJMbAP23FlrmRMD115eKspW/VKDr/JY7kyRrfd+42aRtKy3bCqLRxaGpR0Vw2ZkFFuRymzGxTXREQEBD4tcE957XDUd+krc8OIj+fnhQe6EdhmVuoUPduMDmdWT+JIv39KSQ8gHyCEmnB3kL9qy6VJ+jVpDRatm4uRXmISByxmL75fCZFxi2ho43vaaunE8sTacifDlANt3/CcHr5G/37IjWlWbRkdCB5+QVTYM8Ymvn84+QrnUZ7DMdWfbuRpg8NIN+gXhTs041Ckl+mvQUm3hnY+IrExgNp4/ShFOAbRL2CfahbSDK9vLdAL7NZPZujobIjr1Nab1/yDwtj7YRSyuqTVF9/klaP7U2+PkHUO9yPPKVRNGtbvr7dljLw2E154lVKGr+cNr02gQb2CiE/DykNfXEflWg0VPpxJoV5u5C92I18ewRSWMZmKqnj6ZfJWpq1hEYHepFfcCD1jJlJzz/uS9JpewyvyquibzdOp6EBvhTUK5h8uoVQ8st7qcGMOlnSltG6uVHkIRJTxOKzTPQztH5SJPn7h1B4gA8FJS6gvYX6A9Q3t9Kzg/zIp2c4BfqFUeaWQt365qhv/o1iXVPorx/8ngLdYml13iPd+od7p5Nv4BzdZ+Z8+nC8O3lN/IRkLewv3zOdujuOoL9+bxCyEf1rOLuNm0f/8/gACg31J89uA+nZLd/rX2nI5x/1HXrvtxE05ZNSZrF6Orl6LPX2Zbr1Dic/TylFzdpG+bodlXTi1SQav3wTvTZhIPUK8SMP6VB6cV+JyVflWYph+Zn1NCnSn/xDwimAyZW4YC8ZTGlEwyuV9Qt8/m7ATKwwIc332aDb+7R8PNMtyJs8w9Jp44U8+mR2PPUNY/bsGklzdhTqdVXmsvyeSK+9v4TGDQil0ABP8howlT681vCOQ9tqw9ka03qpSj+mzDBvcrEXk5tvDwoMy6DNTJH67EUUM3IZNb7lksmzbGQMLTrC1Q+9LmnL1tHcKA8SiSNo8dkaHr+2hC8vlJTL2p742vu0ZBwXZwHk6TWApn54jZQsbj/ODCNvF3sSu/lSj8AwythcQg9ZHiUMf5l0pU2n+3ha/v5yGj+wFwV5e1JY+ka6kPcJzY7vS2H+ntQ1cg7taCg8VvlbQEBA4NdNp0xelUdfpF4+6bRVN5OopYKbBbp3UNfmzKM+vmNp3RVuSU2Fn2VQoP8U2lnBFrkJW4ATdQlKozUn8un2zWKqKvwXPeYeRHMOG16sW3+E/hTmRU9tlpHGaIJXQ4efCybPxL9RHltUl2TR/GhXsu9mGPhrs+mF3p40fGkuVehEukLrU6XkPXEL3TPU/EaM2q2l7Bd6k+fwpZSrP5CurE8lqfdE2sIONKenEVUHaVZPb3ps3VXdBFBTcYF2HfiOlMo82vfZcSrWzb2VdHV1HLn0W0inuMG1xeSVz27cRCXA0ZtGvvIVlbIRqubEQoroMpiWX2STPPVDkm19mryC59CBMjlVPWQ78PVbc5ieC/akxL/lMVnVVJI1n6Jd7ambYfJam/0C9fYcTktzK3QTktor6ylV6k0Tt9zjGtPL4tSFgtLW0In823SzuIxy5vUh37HrSC96IX2WEUj+U3ZSBev76Iu9yCd9q37CWVtANwtaWc8weU2mfxbeondSvchn4sdUzPY3mrzWf03P93SihDV3Wk0KNaXv0GNOPvT7fXpbNsFNXgPI3qk/zdn1I5NGSTfefpy6eTHfcu/S5rOT+hq9MdyFRq0tYP0pKW/fZ3RcvyMpr66mOJd+tFDvSF0fjt4j6ZWvSplFa+jEwgjqMng5ce4xxlIM59C8Pr40dt0VXYypCz+jjEB/mqJLHmOMJq98ejTHVKzw9tmgWwItzS4jjaaEtkyUkmu3CMrcdJXtX08XV0STc+QSOsfpqstvMXXpP5O257POH92m99Kk5PXUZl0O2lobaszqpaaHsq30tFcwzTlQRvIqLpIN8RIwkw42hEH9IZoVIKVpOuPqdXHqEkRpa05Q/u2bVFzD51dj+PNC37a4S3+auT2fSfqIbr+XRlKvp2gzU1z9UEZbn/ai4DkHqExeRZzZG/ynS3+d7o7knbCUsss0pCnZQhOlrtQtIpM2XWW2qr9IK6KdKXLJOdYyw1p/CwgICPyK6ZTbBkTunnB/eA3fZF2BXOuMoPAgOEOJs7v2QzY0DUkORbhx4xbqIhMwuO4Uci43/LhBgoRXNmJeXAhCwwPgFjARkxKqcGhHDmrZ1voTO3GwKhmTnvQxvt9BdR6HvilH/PQ/INIJsO/+ON5Y8TR8DDspT3yOPbJEPD8/Hl25dc4DMPO5VIiy9yOba9gcyhP4fI8Mic/PR7z+QAyY+RxSRdnYzw40racxytw9yFKMwowZ/XXvKRd1jUJ6WgQkkkg8OXkkAuxrICsoAnUPgvv9Etxr9RWgZbvZuaVi/oox8LUHXKJTEOddiJu3VMwQTnB1EsNOJIGzuwfcnNgOPP2qzh/CN+XxmP6HSCarPbo//gZWPN1gayVOfL4HssTnMT++q26d84CZeC5VhOz92bo9dEgS8MrGeYgLCUW491Xs2i/D0LQkOBTdwI1bdYhMGIy6Uzm4rBTB3dMdD699g6wrcmidgxAexPNuXPsQ/OGNP6HH/3sdb3ylaPbVKYMUqKoGXJmOBpc3InJzh6tIiXqT30PbwX3Cq3grvSeLPAl6T52CRPUJHDnDbGe1fySIfHIyRgbYo0ZWgCLqjiD3+yhp3NEObqnzsWKML7OoC6JT4uBdeBOce4ywFMNnd2G/bCjSkhxQdOMGbtVFImFwHU7lXOb/wZm1epiIFct9crrNw7IkKUQiX4xK6AdtUDoWs1h3hiP6xUbDqzgfdxp0tXPF+FfX4pkQCeAQiozMkVCzWDirsr02uJjVyx5Ork4Q24kgcXaHhxsXydYhSXgFG+fFISQ0HAEulvzagDV5YQfX8a9i7TMhTAsHhGZkYqSa6XZWxczuCiexHUQSZ7h7uIFL0VbYuSF13jIkSUUQ+Y5CQj8tgtIXY0Z/li+O/RAb7YXi/Dv62zCsjlsBAQGBXy8tx/oOwWHwS3jvrXhcXxyLkP4TsHQfV1g1KL1XhrozGzA9IwMZ3N+0TSgKi0Swh6Fi20kg9WMDoX6JSeeLpyaNRt3h3ciprUfuzizUP5aBJ7wM2xtQyyB74ApfPzfDCjYWOzg0tqO6W4Jyzx4IcjWsYIgDAuCtKseDKp6qrrqLknJP9DA+EAHeKpQ/qDKjpzEqmQyVnr7w42auzdHexcElqejtH4YR49IxedXXqNCQ8aRMhxV2Y9gZ/uUGeYmDFmpz97rx9Ktmsj5wZbI2mtEeDg6NVsTdknJ49ghCkzXECAjwhqr8gWGZc6EUfmyQ1aEpxb2yOpzZMF0vN/ubtqkIYZHB8LB3wOCX3sNb8dexODYE/Scsxb7GWY5pHIfOx+uTtfh0xdvGPyqyc4cbE6qqsqLxvsEGtA/uo0LbFd7epqcw9hJHpoUBJymk7jWQy1krVvtHi7sHlyC1tz/CRoxD+uRV+LpCAzLasck77KwFDlp1KzktxbCm9B7K6s5gw3RDDGRMw6aiMEQGe/BPzqzWozXW9dks8iRs8mtnrKuYNM36sofEsdHazNxSuNfIIde0oTa0Qy/T2EEi9UND6FrnVw7r8sJsnFlLo1lZfrPJrrGZxSCNQbAOt4uAgIDAL4/GUt2xuCF6zgc4nX8V2zPr8MGMP2NrKVvr4QaXlNU4eekSLhn+Ln67Fy9FNf7spQUiSCdMwhjVYew89CV2Zj3C45mPw9OwtRF7F7g616KyoukaFDX7MY/Y3R1dqtlE9ZFhBUN7/wEUjt6QevCYQOwO9y7VbKJqdCAeKBzhLfVgC6b0NB4mxK6ucKxWsAHasMKA8sgqzH1HhTk5Bbhz7TLOvp3eeJXNGFEb7NZEyyb5+rV3cYVzbSWazMjdVmL4yIZed/cuqGYDcpM1tLj/QAFHb6lhuQUiN3i4uSBl9clGuS9duohv974Enehu0ZjzwWnkX92OzLoPMOPPW/XHmcUTjy9bhuT8t/HGwcqmAV3cH4P6OeBq7jHcNzK/FvcOf4XLztGIHWzu19/NfsqvqkRlrTu8utpb7x/lEaya+w5Uc3JQcOcaLp99G+mmHcmPhRgWuXnAzSUFq082xcCli99i70tRTT8aM4H1cdY6VtraJy9G5q5AjbsXutrbHuO8epnST2QPu0ePmmKXzUKbmbc1VvvV2rwwjrOKGn2cmRa27djibwEBAYFfK51S1up/OIdL3CzCKRjJmSkIflSNqnoJhiWNgMOxz7Gj2QMMVQoF6gyfTdJ1HDJStTiw/BXspycwKaXZVdAGxEMQO0SE0/sPQjd3rDmPDWv26j8zJLHJiKMcbPviR/0VL00Rdm05DHXyUxjN8001OxDJcYScbV/gR/2BKNq1BYfVyXiKHWhaT92RjUiGJ2CY+ih2H5Lpr34oLuHTbSdRJa9EldgXgf5ObKwrx+nsC2YeidRGuzXQxRmOVQ/wwHBRU8PTr3hILIaITmP/wVKdrDXnN2DNXv1nTo7Y5DhQzjZ8oTcGM+MubDmsRvJTo3XLrZAMQ9IIBxz7fEezZ1aqoFBwktfjh3OXdJNNp+BkZKYE41F1lX4XHkRB0/H6iz3xzWeHUakXjK30w8SZT8Ll8Gv4/9Yew13OB9oa5B/6C6Yvz0bAsy/gqZZX63UQ5FlvY+1Z7nmtWpTs3YHjolgkxUh47WSERo7KKjF8A/3hxNooP52NC215xJmlGB6WhBEOx/D5joKmq7YqBXSm5MFqPThaxEpb+zQLyZH1z7XQm5vl4BfHIIpNQozE9hjn1+v/b+9M4KK4sjX+sSO7SAOCIJuoCCqggiiIgBpDTKJJlDFqNKh5ifOiMdExrhkzOjMZM2qS0RizmcWXxUQd17wxrojbuGBA4y6LKMhOgzR093m3upulm+7qbsC8Ibn//DBQfavq3u9859Tt6qrqLnCwq0JJ40AY1n5+8Jbm4ILqsWlSnFm7BtuLGw2kB5PjakpeCD57t8ln+d99jaManwl0cbBDVUlJq09t2oKoLkzzXW/OwYrvb7U+88/hcDidiIcyeX3w80dIG9gXcckjMShlPWTT5yPN3xqeaW9h/aM3sWBwGIaNGoOk2D4IiV+Jk6qTTTawsbWDbasTLa4YM/lxON24CacJk1tMNlu0Z5OX361Ygn4ZLyEmZiRiY17AuWETEOVgrTpDZNl9Ct76+2hcWxiDiPhkxEcMwcK8p/H+2jR4tVKAbddG+Oid/WrZHVPe+jtGX1uImIh4JMdHYMjCPDz9/lqksRX1j1N7g5b+M/DXlZHImBWFyBGJiI58Ch/nWsI5ZSZm+v+Al2LiMCwqASuKA9G7C9u3aq0WfWAhEtXNxga2dsKVdBos2N+2bH3Nx/22seMw1mU35iWMQHz6J6hIMrxfS+/fYcWSfsh4KQYxI2MR88I5DJsQBQdrlRjoPuUt/H30NSyMiUB8cjwihixE3tPvY22al2pfrfpi6Ym0t9bj0ZsLMDhsGEaNSUJsnxDErzwJGR7g54/SMLBvHJJHDkLKehmmz0/TrNgCK2Es7Kfpc2pr9J/7V/w+vAssnBvPwVvC66l38fXqwbjyZhL8XRzh4uyOXhM+RP0zH+G7VQktPtJtxsa6C/qMDMGhqVEYPGIwYl4+j6Gr/oQ0T0s4iManBQ4pmDnTHz8wzeKGRSFhRTECe3cRpFAhxNGuhakthLiyF5uuxmjEmIc90/DW+kdxc8FghA0bhTFJsegTEo+V6uTRhm3fhk0IBUweB0PXK/c8xPepOzYrYb9smbXmjHirsVo4ItDhIKYNGoIRg4filYvx+POf0uBpacTjQj7o1AbRcdnGYtxYF+yel4AR8en4pFAJ64jnMO+xUqxJicSwmKGYcyke4wc4QGVthu5YjMW1GRPyAhZwDHTAwWmDMIT5bOgrFxH/Z7XPhMlv7LixcNk9Dwkj4pH+SSGUbCfNeaQ7divWB2GZteaDBwtVrG1s1JeYiOoiL8Dxrz/H/xzNbXqmLIfD4XRGLIS7tjS/dyj1pVdx4VIRLH0jEBnk1uIaOSWk+dm4eKsSVh7BCO/jA0fdA3kbUVbnIutiIWyDo9DPu/XHxIrK27iYnYc6114YEN691c1VBlFU4vbFbOTVuaLXgHB0b7Gi4XFqU3c3B+evV8GlVyTrm716obwUV85eRqVHOAYFu6kOPoZpu27Kyls4m1UIu5BI9PdhnRfdrxLVuVm4WGiL4Kh+aC2jApW3LyI7rw6uvQYgvKUYhlBKkZ99EbcqreARHI4+Po6afdaj9OoFXCqyhG9EJILcDKlnBrV3cemnGyhVOKFHWAQCTdimUsp8w/SxCYpk49HERsCQTvJsrIyNxdEZ1/C/c7qz5XKUXjmLy5UeCB8UDDcT46IPYx5WSvORffEWKq08EBzeBz6mmMAMn7XyirCsLfvURbYfs0OmovadXLwffQVZd5i/Ipm/WsjN9mSex8XGpazErbNZKLQLQWR/H3WuK2uQ/1MWCmxCEB3myaaNxjAnrobyQob9s0MwtfYd5L4fjStZd1hsW9QAFUpU3jqLrEI7hET2h0b2tmNWXeFwOJzOx0ObvHI4v0aUFbdwLvNTLHj2U/T+5ireH2XoWlqOFk2T13x8MV5rxvorp3nymv/FeNUTRzgcDofTPvibcg7HDOSXv8XqNSfRfe5GLEnmE1eTsZKgb1w8wr1/ayXHCpK+cYgP9+bFlsPhcDoIfuaVw+FwOBwOh9Np4CcDOBwOh8PhcDidBj555XA4HA6Hw+F0GvjklcPhcDgcDofTafgVTl6VkFVXQMofZMjhcP4jqIe0uo5VJs6vl3pUV9TwL39oK0oZ00/a+vnDilpUVut5lnUnp15ajTpeENrFQ5q8KlGZfxV55nx3d0eguIqP0/qge88w9Il8GQd+fZ43Tv0J/DF5BJYc+S0O3kx+jVqxMa1MScDiw+0fk7IwA1u/ONzi29E45qNE0ee/Q9/HN+Am17FDqT/xRySPWIL///Stx/k3R6DPExtwyZyTJspCZGz9AofbkmDtWdcIv7SuiqsfI61Pd/QM64PIlw+gabfK+9gxsz8Gzd2n87Xf7af+xEqkJCzW/NUW6nFiZQoSFh9u7q/JlGPH7H5I+dtl/manHTycyaviJjalRWL8uku/6De5yM9vwbo9PbDifAEKstYhSexJRvWn8Pazs7DZrGrTCaAKFFy5jPy2fEXpb41fo1ZUqRpTXgeMqSZjA+bPfw/HKjQLfou0t06wN9RbNmVg4JTJCOqA7+DoOOpx6u1nMWvzL1ujOxKqKMCVy/mGv+64QzGsl+LqJvzhCy/88eP5iGjxJW1GqcnAhvnz8V5bEqw96xrhl9VVjvNb1mFPjxU4X1CArHVJaDxsVx9aieUXxuH9t5+EpINnKlQpjDFP81dbIFQWXMHlvHL2m7l0RerUR3Dn4w+Q+f/+xqvz8tAuG1A/gEt/WJV1FSguKkOtCW876qvv43617rd+K1FXUYyislqtdy7yonsodfJHoPCdr5aWzYOTS1FaXKF9ml6ej7M/HMTFIj2d0Ne+CQVqy8tR2/Sa/r4YRFmHitJKVgrNRy4tRXGF/o8flXXlKK00vFWxdVsil95Hsb7tiGrCVKktR3mzKNoIYy4uQpnBgAsalkLfbkW9oqhFebk+3cVjIqqV0b62wIgmqv6VVpswOahH9f37aGVzI5ieR0yP8lKzt+88cSvuFW/DlG6aBSrkkJYWo8KwEVQxEfOZoqZM2yv1lSitkOldRymrwP371YbzRVGDMq391aOytAIyfRtrS7xE6oTRvjEUV7ZhW04kHkv11Cm2RnTUi2GfiOe3vvySI//sDzh4sUhv/sgq9NVdfbTFu8ZrplBPSqv1ZY7ayyKlzqS4NGJQN+aV+8Ut67QhvVh/rCKx8OtNmB4s/u6kVW11noit94qxTTvB1D40kkOG1jVW59uuawd4Qm9tlaPoXimc/ANVX9VuyY7bapRQ+jyNDV+vxMiumkUmYk78tRHLSTGfC3MCVl/1Fnr923QcMQ4ja3bj2xN89tpmhOe8djjya/SXoQ4UtSKLGjSLVNRl0urRoeTl6U+hId7kJomkmVtvklzzcksUxQfpzVTW1ieYgn29KCh5NWXWCZtYTaNDvcjTP5RCvN1IEjmTtt6UU+nWaRQicSIrKyeS9OhJsUsySEYVdGr9RIrw8aHAEF+2TgLN35FH9fc+pbRgD3K0siFnrx7kFzyJPilUsL3qby/0T3Z8GSWmLqV1cyLJ1dKGwl8/bbAvrZBl0LLE8fTGB4tpbL8gCvJ1I/d+U+ijSzLVy3WHFlLM8KV0TP2nqv3S4TG08CAbsEDFKVo/MYJ8fAIpxNeT/BPm0448zX4U92jf4pHk5+5NAX49KSb9RXrES0JTtz9Qvy62bktYzD6fMYC8PXtSiJ83BadtoTxBEhFNmChsXKm0dN0cinS1JJvw1+m0dsApc/VoCvVi+w0NIW83CUXO3EpqiWSUsSyRxr/xAS0e24+CgnzJzb0fTfnoEntFWFXMKxWU+ddxFNq9BwX5ezOP9KAefsE04YNcqhWLiahWYn3VxZgmj9HyzW/QuP69KNDblSSD5tJOlb90UVDxwTcplfXXJziYfL2CKHl1JutJHR1aGEPDlx5Ta8GQZSyl4TELSWUJMW3q9tGsHh707Pfq+Cvu7afFI/2om3cA+QcMofS/LqInhy6gH1XbOUQLY4bT0mbjUcbS4RSz8CDrgTCUZRQ/5DV1W0bFqfU0McKHfAJDyJftO2H+DlJbSUbHWSxTl66jOZGuZGkTTq9rG0GdP48tpw+WP0b9e/mThxuL18ZzdPGzWTSsTzD5uHWliNnfajzHqPo3bZw2iGniT70CPKlbYBK9tiNXW+MPltNjTGN/DzcKnrCRzl38jGYN60PBPm7UNWI2fdu0sbbFS2GoToj1TQsFFbyXTE4Dl9P5FnLo11FO1zeOp7ARS+lItdCqgS7/YzwNfPJduiI35BPVxgzkt0h+sTz4NC2YPBytyMbZS5U7kz4pZL0VhraRpg3yJS//XhTg2Y0Ck16jHbmtR2bQu0Y8JVYzGz2y+Y1xzCOB5O0qoUFzd1Jj6iju7VN52Z152a9nDKW/+Ah5SaZSY6kzPS4Mg7rJ6drnM2iAtyf1DPEj7+A02nK7UK9eorWmJYZqq+C9+CH0mirBWufQK3+eQRFxi+lI4/iYgseXJ1DU73eTVGtdhkidb6+u7fYE+09/bS2lrdNCSOJkRVZOEurRM5aWZDDfmHrM0sWM+Nftm0U9PJ7V/GUoJ4VXDI9p36we5D7mZXptTD8KDvQiV8kgmrtTnUcChrcpUEybH3VRzSO0KyXHVH7ZyavsIu388hgVqPJNRjmr48ix7wI60VjnmqiiPTN7kseodZQjJJCijM59t5t+Yu1kF3fSl8cKmHUYshxaHedIfRecYPt8QMXfTCFv7yn0TVEFS26imsPzqLfXaFqXXcMayynvy0nk5/MsbSuT04Oiz+lp9wCavbuYKqoeqAxuuL3a7L72Xcg/9W06fvMGXSuQGu6LLsKEwteGuoSl0zc3WccabtCmVAm5P/EJ3WVOf7BjGnn5ptOexiJVt5dm+jZOqmro8Lze5DV6Ham7lUdfTvIjn2e3EesWSfe/QAFuCfSXi6ytvJD2vRJNTlbdTFq3JbIjc6mX5wT6vEhIvRrKvZbL/hXXRD0ue+rin0pvH79JN64VkJQtbkZGF3d+ScfUAWcSraY4x760QBVwIfl9yaZLGKV/c5O1bKAbm1JJ4v4EfSKIIuIV+bU1FO82hFacY31SlNDO54Oox7RtVMLMJhYTca3E+qqNcU3syGP4IvrXPeYq6XFaEN6FBi4/37pIVe2hmT09aNS6HBJ6oCg7R9/t/on15AHtmOZFvul7VMsF6vbOJN/GA4pYHmlNXqW0/4UAckv4C6mHvI9eiWZv8LpptvNgB03z8qX0ZuPR3pm+JJm6XbXfxgKv2lTNYZrX24tGr8tW+UKe9yVN8vOhZ9WDVsXSvos/pb59nG7euEYsPbRQ5Y+dB8UvOUTFCgUVbhnPDlrdKDxtM+WwDdadX0HRDhG0+IygUg0dejmU3IYsoYwytR+z148hicd42iJ4o1Hj+CV0qJhNMgu30Hj2xrVbeBptVm+MVkQ7UMTiMyrN2x4vfXXCSN+0YLowPV0nfMkqmgYxHcv/l14KdaboZadJemMjjfUKpf/ax5Yb9IlYfovnl/xBEX3+tDsFzN5NxRVV9EBVAA/Ry6FuNIS98VcPLZvWj5GQx/gtqjqlhaE+GfGUWH42emT4on+ROhQLKLzLQFqumvkb8bJZcRHRTXaE5vbypAmfF6kmITW51yiXtdGnl6n131BtVXmvKVdb51Dez/+gUS7+NHu/qjVrcpB+H+xOT3zC+qa1rnidb5euHeEJ9p+h2ip/UEzfTPEm7ynfUFEFO6YaGYthzIm/WpOmyatYThockzpe1m6xtOhf91hdkNLxBeHUpfGNqmi9FJDR0Xm9yCn1IyrVLOGYh/YnWQ8b2wg8Pnk4fK2kKMrNB3X3h8v9QtzVPUsvy8D2fZUYMX06woQvA7fsisgJqQi3FTbxOCYP94WVtAi5+YTu/i64X3gXsLKHs70NLCxsYO/iCkdbGU5/twtFg1KRaJ2PK1euozYiHgNrT+Bwlhz2TvawsbCErYMLXJ3tYQWx9ppT+7bxWLRxHuICgxDi62i4L/qwcMJjy9bimUA2COsgTEobDvmJwzht7LMN2Wl8t6sIg1ITYZ1/BVeu1yIifiBq2bpZsnqc3fsjSodNw/MRTCir7njkTyvwtKcmrKLrqps0YuniBpcHl/DjvmxUKB3gH+IPB1M0gS3iF23EvLhABIX4wlGzVI0tIh6fjOG+VpAW5SKfusPf5T4KmwJuAafHlmHtM4GspTWCJqVhuJxtWxBFxCvygtsodAzHoL4OKm/079cDFXkFqGHDNhwTI1oZ7WsjJmhi4Ywxr6xAipcV4BiN5DgP5F273upjLFnGduyrHIHp08NU33lv2TUSE1LDWU+MYGoe1Z/F3h9LMWza81AP+RH8acXTaBqyGchOf4ddRYOQmmiN/CtXcL02AvEDa3HicFbTDQu28YuwcV4cAoNCwNKjFRbOYzBvaSIklpbwGhGPvkp/THid5TgLo13foYh2L8DNW0wl2XF8tb0ICS++gmFdhc46oF/6CxhjeQi7DtU0bgxj5i1FosQSll4jEN9XCf8Jr2O6emMYGu2Ogpu3mObtiZdV6zphSt+aeIC798rh1M29KaaiOrolY+XfnkHZuy9iwvSV+PnRt7BydFfDPjGa34bzy8reCfY2FrC0dYCLqzPs2dBlx7/C9qIEvPjKMKiH1g/pL4yB5aFd0B1aW71rrGYKHnllRQrUoUhGnEcerl1nnjDmZXPiIqZbgwvcXB7g0o/7kF2hhIN/CPyZpfTpZWr9119b9dMyh/x6jcfE+Crs/fYwhBHUHd+GPVVJmPi4ziUoJtT5turaMZ4wXFut7JmWTFcLG3umKzummnHM0sKsvNRGLCerRH1uAbfUBViR4sUqhSOik+PgkXcNgqzG66UVPD3doSwqxD1D185wRNHKgYeO8g72LB6DUJ9gxI6dgMmrDoC9SWp9fU59EYrK3eDlLdhFG+WdPVg8JhQ+wbEYO2EyVh0og4JabYGhwL27xag99Q6mTZqEScLP1M3ID45AgCvL4FYYb29hK4F3iyvHTe+LgBVs7Ww0vwP2EglcpBUw+kAGxT3cLa7FqXemqfvEfqZuzkdwRABcreQoKiqBk5c3nDXNYWUN68Yuiq6raaPBeuCr2LRmGC6/PhSBYeOwZKdw4DdBQwtbSLwlBoykxJ09izEm1AfBsWMxYfIqHChToKVEVrZ2aFLFXgKJixQVgigiXrHrn4AY2o/1q/8HP+z5EH/ako0+iQnwYZ0wHBMjWpnQVzUm+spC83+Gra01lPLWga4vKkK5mxf02FwcU/NIzvKoxInlUdOI2ZCt25T0int3UVx7Cu9M04x50lRszg9GRIArc7aABWwl3kZvrGiSxdaWTQrZQUvzJ1sAWxuCQhhE/R0Ulrqhh7+T+iUBG1/4etSjtKRKs4DRvDG2LtuWluY2INXGOi5eKkztm4oG1DcQrG2ap3TiOlqiW+qrSO91Ef866YWpc1NVehr0iQn5bTC/9FB/pxClbj2gPTRfeNSXoqRK211t9a4pNVPLE9ZKqEJhzMvmxEVMN7uBeHXTGgy7/DqGBoZh3JKdEN5P6cPU+q+/tupDJ4csvfDExJGo3f89DtfUIWPbPtSNmoRH3TWvN2JinW+Lrh3jCVNrK8OMY5YWZuWlNmI5qTDqc63CAWulnFUc8W02DsOa6QxFA1iJ4LQBI4eajkV2cBXmbKjH7MO5uHUpC6ffm6D/LJCNE5zsqlHZqsjKcHDVHGyon43DubdwKes03pugeyNEI5ZwZu+QHZNXI/PCBVzQ/Jz/9w68GslM02olI+1bYU5fNLQwaX15GaQu7ugqONnSChYNzMTql1g7peaGN4alM1ydHZG8OrOpTxcunMe/d7yKSGv2fs/JATVsW01vSoVLQTS/iq+radOEM6Jnf4iTN3PwTVotPpz+3/j8HltqliY6yA5i1ZwNqJ99GLm3LiHr9HuY0CrgWqKgTOoCdyaKmFfqL59Glks0Qou2Y8OmH2E37St893okrEVjYkQrk/oqYK5PDGPj5AS76kq9b2AsrSzQwDzRCCmb+2pyHlk5wsmxBuXlLbbTZCwBS1hZMN81Gw9KrdebsXR2hbNjMlZnNo/5wvl/Y8ergu4djI0LXLpUs4NOc7+Fx+aUVNrBQ+KqWWAq7YyXrq5m9c2R5Z8Naqoqm2InrqMS93evwUeFwzFuUC4+fut73GMHeIM+MSm/W8SzRX61HpgwNBd0qWaTEq2hlaDSzgMSV+32hr0r5qk21MxGBC87MC+XNZ9+0/KyOXExoptz9Gx8ePImcr5JQ+2H0/HfQiFs1UtzxqKvtuqbueliCcm4iUip349te3/Atn0NeCTtEbhpXm3CrDqvgxFdO8QTJtdWRlvH0o6aIZaTXURqtBjG6yWhqqqaWcMNbiYlAEeXhygboa7sNi7n5CCH/Vy6ehdVFeWosvGCnw97G6MsxclD5/Q/jsN2COIHy3Hk+70oUuV4JS58sRWZNQpUlFfBxssP6k2cxKFzhh5VYYvBibGwPvoVvm3xLLz6ykrUqn7rAge7KpSU1Kv+Mt5eF3P6wqAK7Ht3LU4zv0KZj+++PgrLoYmIsWXvwPz84C3NwYWrQl+kOLN2DbYXa4qb7WAkxlrj6FfftnjeZj0qK4Ve2SBqaBQsT+7CHlUxlOLsO29jR2NhFF1Xm7qrZ3BBeJiefQCS0pIR0FCNqjpzNdFBUYHyKht4+fnAnh2YS08ewjmtgBMq9r2LtWpRkP/d1zhqORSJTBSFiFfqCwtQVNsA57BReHLieCT1dUSD6u51sZgY0cpoXxtppyYtsB0Sj8HyI/h+bxHbI6PyAr7YmokaVt78/LwhzbkAtSXOYO2a7Wi0hJg2WthEYWikJU7u2q2aBEF6Fu+8vUP9u4C1H/y8pci5cFV1Jkh6Zi3WbC9W90UH28GJiLU+iq++zVWdWVBRXwk9Vmo/tkORFEc4vPVr3FbtTMG8sQX75Ul4YqShD1wN0d546dQJs/pmjaDgHqjJu9WkuaiOZfux9LXdCF2yGV9vnA/f3YuwdE8prA35xGh+G84vgS4OdqgqKWk6C2g7NAlxdBhbv76t7puC1akt+yFPegK6QzPoXVFPmVkzWyJ4OUrw8h79XjYnLmK61V3FmQv3WX/tEZCUhuSABlRX1alaaOtl+lj011bNi8boOhaTxiixe/ki7KJHMTG5xZnFRsyo860womuHeMLk2sowNpa609j48mvYkq1za387aoZYThqu0eIYr5f1uHWrEM6BwaqnLCjzd+HNOSvw/a2m1hxjCBe+djiKPPrHKEeyEKqn5sfC8Un6LO8ALYhyI/fQoRQ3IIxGzHiGon2fo53CldA6PDi/nsb1dCOf/gk0IiqQgkauphOsXfmBBRTl5k6hQ+NoQNgImvFMNPk+t1O1Tt3eWeTnP4v2qa8LJ2q4TlvTB5CHJJTiUkbTyJje5BcxX333tKKEdqQHkZPPQEoY/jx9fEch2r7uwEsU5DuD/tmir2J90UJ1cb0rRT+aQr1DB1NClC+5BT1Fm3I0NwPJb9CnEwPISRJGcUPCafCUZZQe7Uczdql31nB9K6UP8CBJaByljB5JMb39KGL+j+obBWrO0N9SupOr/yBKjAmj6EnLaNZgE9dtQdnOF6i3TygNTUqkgb6eNGDODvXdqGIa1h2gl4J8aUZLUbQopwMLosjNnW03bgCFjZhBz0T70nOqgAsXvPcg1+hHKaV3KA1OiCJftyB6alMOqVQpN+wVxe2P6UnfAEqcNovSZ0yhpxJ7UVefVNpwWS4eE1GtxPqqg1mayOjY/N4kmbxNdcG/Ng/o/Ppx1NPNh/onjKCowCAaufqEqp38xqc0McCJJGFxNCR8ME1Zlk7RfjNI3VWRPBL2H+jTtP+aM29Rsrcr+Q9KpJiwSBo/OZEkTXcSy+nGpxMpwElCYXFDKHzwFFqWHk1+M3ap+qDt+Qa6vjWdBnhIKDQuhUaPjKHefhE0Xz1oOvBSEPnO+KeeMarRzR9F0SZ6xC2GVuUIdwoxZMdofm8JTd6mbiC7/AlNDXMnz77DKWl4X/L2iaG52zVPCNDVWFFEmx5xo5hVOerXdTVvT7z01AnRvukg/X4KeXkxvZtuYDOkYxVlLgynbvF/oYuqBJBSxqKB5Bq+iE7IDPvEcH4byS9SUMmOdApy8qGBCcPp+Y/vsCUyuvzJVApz96S+w5NoeF9v8omZS9v13ultqE/inhKt37o1VscTNWf+RindG70cTZOWzaLBjTnBMCcuBnUr20kv9PZh/UuixIG+5DlgDu1QFcLWepWaWP8N1lYt7xnOIeneFyjAxpZCXznMWmnQ8a1YnW+frh3hCfHjwN5ZfuQ/a1/T2MTGoih8j5Ltven53Y2Dacac+AuaBPrM0PwlVtsMjUmIV6BWvGTH5lNvyWRSyyq2TeHlM7Q4wplG/UPIO7Zu5h+on3MvmnuoUQWOMR7O5FWMhhL6+eQxOnW9XBU0UR4UUnbmUcrMvttkEIGGkp/p5LFTdL3c6BYYCqrOy6LjR47SyZw7JG25iqKCbp4+QhlZd1R3BKoRaa8Hk/rSdGdoDVXnnqOMzGy6q5t7CinlXThOmTlFmoOLDopqyss6TkeOnqScO1Jt7RRVdPtchkonvdYXW7cFspIrdOroUTpzo1wn4c3TRJsGKvn5JB07dZ20JVIfXD2e/Z5qqnPpXEYmZeuKotcrwl2aodR98rdUoVlCDafp9XAHGrXhnqqdaExEtTLUV320RxNtHhRmU+bR1uNXSPPowvFMyinS4wgz8khRdYv+few4/XS3jh60fGqBCgVJ8y7Q8cwc0rcbXRTVeZR1/AgdPZlDd9ozaFOQV9AtFqsjmT9RYXOCtpF2xEtfnTC1b2Vf0SSvQHrxgE5s26CjIZ/oz28T8ou1rLh5mo5kZNGdFmOQV9xi7Y9Q5k+FLeqifvT3SdxT5tVvbRRVtzVjMXCQN8czhuqirISunDpKR8/coHKtQthaL1PHYri2diAm1nl9GNO1/Z4wp7Yy9I5FQQUfPk6+g5bTKV0rN9KOmiGWkwZzzwiGtin/eTXFuibSWv3PYuSYgIXwj+oULOfhIduP2SFTUftOPr4Yb69Z+FtHhv2zQzC19h3kfzFedSenadTj9OvRSPlnJFb9eSaGeCpRcPQfWPxWIWYcOoJFZn3FzW8P2b5ZCH5OhvfyPsOT3Iq/ADU48NIApNevR86HqdDzoe9Doq35xeH8h1J/CouHz4XVOwfxZqz4pQD/2ciR9UYsxmbPw/lvpqguG+CYD5ftl8BKgr5x8Qj35nI3YwVJ3zjEh3ubaUJbDFm2DZ9NccKxjW9g4aJV+OxSL/xhzw4s5BNXo1h59sWw+H7gVvylcMTIP6zDy2FA2S96OVtb84vD+Q/FNhJLDh3t5BNXgRpIfZ7EmhXP8IlrO+BnXjkcDofD4XA4nQY+7+dwOBwOh8PhdBr45JXD4XA4HA6H02ngk1cOh8PhcDgcTqeBT145HA6Hw+FwOJ0GPnnlcDgcDofD4XQa+OSVw+FwOBwOh9Np4JNXDofD4XA4HE6ngU9eORwOh8PhcDidBj555XA4HA6Hw+F0GvjklcPhcDgcDofTaeCTVw6Hw+FwOBxOp4FPXjkcDofD4XA4nQY+eeVwOBwOh8PhdBr45JXD4XA4HA6H02ngk1cOh8PhcDgcTicB+D8NKZUCQHnFewAAAABJRU5ErkJggg==;" vertex="1" parent="1">
          <mxGeometry width="687" height="394" as="geometry" />
        </mxCell>
        <mxCell id="ZzGpuX023HWnLFC4GuzQ-6" value="" style="edgeStyle=orthogonalEdgeStyle;rounded=0;orthogonalLoop=1;jettySize=auto;html=1;" edge="1" parent="1" source="ZzGpuX023HWnLFC4GuzQ-4" target="ZzGpuX023HWnLFC4GuzQ-5">
          <mxGeometry relative="1" as="geometry" />
        </mxCell>
        <mxCell id="ZzGpuX023HWnLFC4GuzQ-4" value="" style="ellipse;whiteSpace=wrap;html=1;aspect=fixed;fillColor=#000000;" vertex="1" parent="1">
          <mxGeometry x="360" y="440" width="40" height="40" as="geometry" />
        </mxCell>
        <mxCell id="ZzGpuX023HWnLFC4GuzQ-22" value="" style="edgeStyle=orthogonalEdgeStyle;rounded=0;orthogonalLoop=1;jettySize=auto;html=1;exitX=0.25;exitY=1;exitDx=0;exitDy=0;entryX=0.25;entryY=0;entryDx=0;entryDy=0;" edge="1" parent="1" source="ZzGpuX023HWnLFC4GuzQ-5" target="ZzGpuX023HWnLFC4GuzQ-21">
          <mxGeometry relative="1" as="geometry" />
        </mxCell>
        <mxCell id="ZzGpuX023HWnLFC4GuzQ-25" value="" style="edgeStyle=orthogonalEdgeStyle;rounded=0;orthogonalLoop=1;jettySize=auto;html=1;" edge="1" parent="1" source="ZzGpuX023HWnLFC4GuzQ-5" target="ZzGpuX023HWnLFC4GuzQ-24">
          <mxGeometry relative="1" as="geometry" />
        </mxCell>
        <mxCell id="ZzGpuX023HWnLFC4GuzQ-5" value="esperando temperatura optima" style="whiteSpace=wrap;html=1;" vertex="1" parent="1">
          <mxGeometry x="320" y="620" width="120" height="60" as="geometry" />
        </mxCell>
        <mxCell id="ZzGpuX023HWnLFC4GuzQ-7" value="1" style="text;html=1;align=center;verticalAlign=middle;resizable=0;points=[];autosize=1;strokeColor=none;fillColor=none;" vertex="1" parent="1">
          <mxGeometry x="370" y="520" width="30" height="30" as="geometry" />
        </mxCell>
        <mxCell id="ZzGpuX023HWnLFC4GuzQ-8" value="List" style="swimlane;fontStyle=0;childLayout=stackLayout;horizontal=1;startSize=30;horizontalStack=0;resizeParent=1;resizeParentMax=0;resizeLast=0;collapsible=1;marginBottom=0;whiteSpace=wrap;html=1;" vertex="1" parent="1">
          <mxGeometry x="700" y="100" width="480" height="480" as="geometry" />
        </mxCell>
        <mxCell id="ZzGpuX023HWnLFC4GuzQ-9" value="1) se presiona botÃ³n &quot;encender/apagar&quot; / encender calentador de agua" style="text;strokeColor=none;fillColor=none;align=left;verticalAlign=middle;spacingLeft=4;spacingRight=4;overflow=hidden;points=[[0,0.5],[1,0.5]];portConstraint=eastwest;rotatable=0;whiteSpace=wrap;html=1;" vertex="1" parent="ZzGpuX023HWnLFC4GuzQ-8">
          <mxGeometry y="30" width="480" height="30" as="geometry" />
        </mxCell>
        <mxCell id="ZzGpuX023HWnLFC4GuzQ-10" value="2) se presiona botÃ³n &quot;encender/apagar&quot; / apagar cafetera" style="text;strokeColor=none;fillColor=none;align=left;verticalAlign=middle;spacingLeft=4;spacingRight=4;overflow=hidden;points=[[0,0.5],[1,0.5]];portConstraint=eastwest;rotatable=0;whiteSpace=wrap;html=1;" vertex="1" parent="ZzGpuX023HWnLFC4GuzQ-8">
          <mxGeometry y="60" width="480" height="30" as="geometry" />
        </mxCell>
        <mxCell id="ZzGpuX023HWnLFC4GuzQ-11" value="3) se presiona boton &quot;cafe&quot; / emitir pitido de error" style="text;strokeColor=none;fillColor=none;align=left;verticalAlign=middle;spacingLeft=4;spacingRight=4;overflow=hidden;points=[[0,0.5],[1,0.5]];portConstraint=eastwest;rotatable=0;whiteSpace=wrap;html=1;" vertex="1" parent="ZzGpuX023HWnLFC4GuzQ-8">
          <mxGeometry y="90" width="480" height="30" as="geometry" />
        </mxCell>
        <mxCell id="ZzGpuX023HWnLFC4GuzQ-20" value="4) se presiona boton &quot;capu&quot; / emitir pitido de error" style="text;strokeColor=none;fillColor=none;align=left;verticalAlign=middle;spacingLeft=4;spacingRight=4;overflow=hidden;points=[[0,0.5],[1,0.5]];portConstraint=eastwest;rotatable=0;whiteSpace=wrap;html=1;" vertex="1" parent="ZzGpuX023HWnLFC4GuzQ-8">
          <mxGeometry y="120" width="480" height="30" as="geometry" />
        </mxCell>
        <mxCell id="ZzGpuX023HWnLFC4GuzQ-56" value="5) se llego a temperatura optima / apagar calentador de agua" style="text;strokeColor=none;fillColor=none;align=left;verticalAlign=middle;spacingLeft=4;spacingRight=4;overflow=hidden;points=[[0,0.5],[1,0.5]];portConstraint=eastwest;rotatable=0;whiteSpace=wrap;html=1;" vertex="1" parent="ZzGpuX023HWnLFC4GuzQ-8">
          <mxGeometry y="150" width="480" height="30" as="geometry" />
        </mxCell>
        <mxCell id="ZzGpuX023HWnLFC4GuzQ-57" value="6) finalizo detecciÃ³n [hay recipiente] / encender calentador de leche" style="text;strokeColor=none;fillColor=none;align=left;verticalAlign=middle;spacingLeft=4;spacingRight=4;overflow=hidden;points=[[0,0.5],[1,0.5]];portConstraint=eastwest;rotatable=0;whiteSpace=wrap;html=1;" vertex="1" parent="ZzGpuX023HWnLFC4GuzQ-8">
          <mxGeometry y="180" width="480" height="30" as="geometry" />
        </mxCell>
        <mxCell id="ZzGpuX023HWnLFC4GuzQ-68" value="7) finalizo detecciÃ³n [no hay recipiente]&amp;nbsp;" style="text;strokeColor=none;fillColor=none;align=left;verticalAlign=middle;spacingLeft=4;spacingRight=4;overflow=hidden;points=[[0,0.5],[1,0.5]];portConstraint=eastwest;rotatable=0;whiteSpace=wrap;html=1;" vertex="1" parent="ZzGpuX023HWnLFC4GuzQ-8">
          <mxGeometry y="210" width="480" height="30" as="geometry" />
        </mxCell>
        <mxCell id="ZzGpuX023HWnLFC4GuzQ-58" value="8) se presiona botÃ³n &quot;encender/apagar&quot; / apagar cafetera" style="text;strokeColor=none;fillColor=none;align=left;verticalAlign=middle;spacingLeft=4;spacingRight=4;overflow=hidden;points=[[0,0.5],[1,0.5]];portConstraint=eastwest;rotatable=0;whiteSpace=wrap;html=1;" vertex="1" parent="ZzGpuX023HWnLFC4GuzQ-8">
          <mxGeometry y="240" width="480" height="30" as="geometry" />
        </mxCell>
        <mxCell id="ZzGpuX023HWnLFC4GuzQ-59" value="9) se llego temperatura optima / apagar calentador" style="text;strokeColor=none;fillColor=none;align=left;verticalAlign=middle;spacingLeft=4;spacingRight=4;overflow=hidden;points=[[0,0.5],[1,0.5]];portConstraint=eastwest;rotatable=0;whiteSpace=wrap;html=1;" vertex="1" parent="ZzGpuX023HWnLFC4GuzQ-8">
          <mxGeometry y="270" width="480" height="30" as="geometry" />
        </mxCell>
        <mxCell id="ZzGpuX023HWnLFC4GuzQ-61" value="10) se disminuyo la temperatura del cafe o la leche / prender calentador de cafe" style="text;strokeColor=none;fillColor=none;align=left;verticalAlign=middle;spacingLeft=4;spacingRight=4;overflow=hidden;points=[[0,0.5],[1,0.5]];portConstraint=eastwest;rotatable=0;whiteSpace=wrap;html=1;" vertex="1" parent="ZzGpuX023HWnLFC4GuzQ-8">
          <mxGeometry y="300" width="480" height="30" as="geometry" />
        </mxCell>
        <mxCell id="ZzGpuX023HWnLFC4GuzQ-60" value="11) se presiona &quot;cafÃ©&quot; / activar motor de cafe" style="text;strokeColor=none;fillColor=none;align=left;verticalAlign=middle;spacingLeft=4;spacingRight=4;overflow=hidden;points=[[0,0.5],[1,0.5]];portConstraint=eastwest;rotatable=0;whiteSpace=wrap;html=1;" vertex="1" parent="ZzGpuX023HWnLFC4GuzQ-8">
          <mxGeometry y="330" width="480" height="30" as="geometry" />
        </mxCell>
        <mxCell id="ZzGpuX023HWnLFC4GuzQ-62" value="12) se alcanza tiempo limite de servido / apagar motor de cafÃ©" style="text;strokeColor=none;fillColor=none;align=left;verticalAlign=middle;spacingLeft=4;spacingRight=4;overflow=hidden;points=[[0,0.5],[1,0.5]];portConstraint=eastwest;rotatable=0;whiteSpace=wrap;html=1;" vertex="1" parent="ZzGpuX023HWnLFC4GuzQ-8">
          <mxGeometry y="360" width="480" height="30" as="geometry" />
        </mxCell>
        <mxCell id="ZzGpuX023HWnLFC4GuzQ-63" value="13) se presiona &quot;capu&quot; / activar motor de leche" style="text;strokeColor=none;fillColor=none;align=left;verticalAlign=middle;spacingLeft=4;spacingRight=4;overflow=hidden;points=[[0,0.5],[1,0.5]];portConstraint=eastwest;rotatable=0;whiteSpace=wrap;html=1;" vertex="1" parent="ZzGpuX023HWnLFC4GuzQ-8">
          <mxGeometry y="390" width="480" height="30" as="geometry" />
        </mxCell>
        <mxCell id="ZzGpuX023HWnLFC4GuzQ-64" value="14) se alcanza tiempo limite de servido / apagar motor de leche" style="text;strokeColor=none;fillColor=none;align=left;verticalAlign=middle;spacingLeft=4;spacingRight=4;overflow=hidden;points=[[0,0.5],[1,0.5]];portConstraint=eastwest;rotatable=0;whiteSpace=wrap;html=1;" vertex="1" parent="ZzGpuX023HWnLFC4GuzQ-8">
          <mxGeometry y="420" width="480" height="30" as="geometry" />
        </mxCell>
        <mxCell id="ZzGpuX023HWnLFC4GuzQ-65" value="15) se presiona botÃ³n &quot;encender/apagar&quot; / apagar cafetera" style="text;strokeColor=none;fillColor=none;align=left;verticalAlign=middle;spacingLeft=4;spacingRight=4;overflow=hidden;points=[[0,0.5],[1,0.5]];portConstraint=eastwest;rotatable=0;whiteSpace=wrap;html=1;" vertex="1" parent="ZzGpuX023HWnLFC4GuzQ-8">
          <mxGeometry y="450" width="480" height="30" as="geometry" />
        </mxCell>
        <mxCell id="ZzGpuX023HWnLFC4GuzQ-12" value="" style="ellipse;shape=doubleEllipse;html=1;dashed=0;whiteSpace=wrap;aspect=fixed;" vertex="1" parent="1">
          <mxGeometry x="275" y="437.5" width="45" height="45" as="geometry" />
        </mxCell>
        <mxCell id="ZzGpuX023HWnLFC4GuzQ-13" value="" style="shape=ellipse;html=1;dashed=0;whiteSpace=wrap;aspect=fixed;perimeter=ellipsePerimeter;fillColor=#000000;" vertex="1" parent="1">
          <mxGeometry x="279" y="441.5" width="37" height="37" as="geometry" />
        </mxCell>
        <mxCell id="ZzGpuX023HWnLFC4GuzQ-14" value="" style="endArrow=classic;html=1;rounded=0;exitX=0;exitY=0;exitDx=0;exitDy=0;entryX=0.5;entryY=1;entryDx=0;entryDy=0;" edge="1" parent="1" source="ZzGpuX023HWnLFC4GuzQ-5" target="ZzGpuX023HWnLFC4GuzQ-12">
          <mxGeometry width="50" height="50" relative="1" as="geometry">
            <mxPoint x="400" y="460" as="sourcePoint" />
            <mxPoint x="450" y="410" as="targetPoint" />
          </mxGeometry>
        </mxCell>
        <mxCell id="ZzGpuX023HWnLFC4GuzQ-15" value="2" style="text;html=1;align=center;verticalAlign=middle;resizable=0;points=[];autosize=1;strokeColor=none;fillColor=none;" vertex="1" parent="1">
          <mxGeometry x="305" y="528" width="30" height="30" as="geometry" />
        </mxCell>
        <mxCell id="ZzGpuX023HWnLFC4GuzQ-16" value="" style="curved=1;endArrow=classic;html=1;rounded=0;exitX=0.75;exitY=1;exitDx=0;exitDy=0;entryX=1;entryY=0.75;entryDx=0;entryDy=0;" edge="1" parent="1" source="ZzGpuX023HWnLFC4GuzQ-5" target="ZzGpuX023HWnLFC4GuzQ-5">
          <mxGeometry width="50" height="50" relative="1" as="geometry">
            <mxPoint x="450" y="700" as="sourcePoint" />
            <mxPoint x="520" y="600" as="targetPoint" />
            <Array as="points">
              <mxPoint x="470" y="720" />
              <mxPoint x="500" y="650" />
            </Array>
          </mxGeometry>
        </mxCell>
        <mxCell id="ZzGpuX023HWnLFC4GuzQ-17" value="3" style="text;html=1;align=center;verticalAlign=middle;resizable=0;points=[];autosize=1;strokeColor=none;fillColor=none;" vertex="1" parent="1">
          <mxGeometry x="475" y="698" width="30" height="30" as="geometry" />
        </mxCell>
        <mxCell id="ZzGpuX023HWnLFC4GuzQ-18" value="" style="curved=1;endArrow=classic;html=1;rounded=0;exitX=0.25;exitY=1;exitDx=0;exitDy=0;entryX=0;entryY=0.75;entryDx=0;entryDy=0;" edge="1" parent="1" source="ZzGpuX023HWnLFC4GuzQ-5" target="ZzGpuX023HWnLFC4GuzQ-5">
          <mxGeometry width="50" height="50" relative="1" as="geometry">
            <mxPoint x="240" y="710" as="sourcePoint" />
            <mxPoint x="290" y="660" as="targetPoint" />
            <Array as="points">
              <mxPoint x="320" y="730" />
              <mxPoint x="270" y="660" />
            </Array>
          </mxGeometry>
        </mxCell>
        <mxCell id="ZzGpuX023HWnLFC4GuzQ-19" value="4" style="text;html=1;align=center;verticalAlign=middle;resizable=0;points=[];autosize=1;strokeColor=none;fillColor=none;" vertex="1" parent="1">
          <mxGeometry x="275" y="688" width="30" height="30" as="geometry" />
        </mxCell>
        <mxCell id="ZzGpuX023HWnLFC4GuzQ-21" value="detectando recipiente de leche&lt;div&gt;(saito)&lt;/div&gt;" style="whiteSpace=wrap;html=1;" vertex="1" parent="1">
          <mxGeometry x="320" y="790" width="120" height="60" as="geometry" />
        </mxCell>
        <mxCell id="ZzGpuX023HWnLFC4GuzQ-23" value="" style="endArrow=classic;html=1;rounded=0;exitX=0.75;exitY=0;exitDx=0;exitDy=0;entryX=0.75;entryY=1;entryDx=0;entryDy=0;" edge="1" parent="1" source="ZzGpuX023HWnLFC4GuzQ-21" target="ZzGpuX023HWnLFC4GuzQ-5">
          <mxGeometry width="50" height="50" relative="1" as="geometry">
            <mxPoint x="400" y="570" as="sourcePoint" />
            <mxPoint x="450" y="520" as="targetPoint" />
          </mxGeometry>
        </mxCell>
        <mxCell id="ZzGpuX023HWnLFC4GuzQ-28" value="" style="edgeStyle=orthogonalEdgeStyle;rounded=0;orthogonalLoop=1;jettySize=auto;html=1;" edge="1" parent="1" source="ZzGpuX023HWnLFC4GuzQ-24" target="ZzGpuX023HWnLFC4GuzQ-27">
          <mxGeometry relative="1" as="geometry" />
        </mxCell>
        <mxCell id="ZzGpuX023HWnLFC4GuzQ-24" value="esperando selecciÃ³n" style="whiteSpace=wrap;html=1;" vertex="1" parent="1">
          <mxGeometry x="640" y="620" width="120" height="60" as="geometry" />
        </mxCell>
        <mxCell id="ZzGpuX023HWnLFC4GuzQ-26" value="" style="endArrow=classic;html=1;rounded=0;exitX=0;exitY=0;exitDx=0;exitDy=0;entryX=1;entryY=0;entryDx=0;entryDy=0;" edge="1" parent="1" source="ZzGpuX023HWnLFC4GuzQ-24" target="ZzGpuX023HWnLFC4GuzQ-5">
          <mxGeometry width="50" height="50" relative="1" as="geometry">
            <mxPoint x="400" y="570" as="sourcePoint" />
            <mxPoint x="450" y="520" as="targetPoint" />
          </mxGeometry>
        </mxCell>
        <mxCell id="ZzGpuX023HWnLFC4GuzQ-30" value="" style="edgeStyle=orthogonalEdgeStyle;rounded=0;orthogonalLoop=1;jettySize=auto;html=1;" edge="1" parent="1" source="ZzGpuX023HWnLFC4GuzQ-27" target="ZzGpuX023HWnLFC4GuzQ-29">
          <mxGeometry relative="1" as="geometry" />
        </mxCell>
        <mxCell id="ZzGpuX023HWnLFC4GuzQ-27" value="sirviendo leche" style="whiteSpace=wrap;html=1;" vertex="1" parent="1">
          <mxGeometry x="640" y="800" width="120" height="60" as="geometry" />
        </mxCell>
        <mxCell id="ZzGpuX023HWnLFC4GuzQ-29" value="sirviendo cafe" style="whiteSpace=wrap;html=1;" vertex="1" parent="1">
          <mxGeometry x="880" y="800" width="120" height="60" as="geometry" />
        </mxCell>
        <mxCell id="ZzGpuX023HWnLFC4GuzQ-31" value="" style="endArrow=classic;html=1;rounded=0;exitX=0.808;exitY=1.033;exitDx=0;exitDy=0;entryX=0;entryY=0;entryDx=0;entryDy=0;exitPerimeter=0;" edge="1" parent="1" source="ZzGpuX023HWnLFC4GuzQ-24" target="ZzGpuX023HWnLFC4GuzQ-29">
          <mxGeometry width="50" height="50" relative="1" as="geometry">
            <mxPoint x="450" y="520" as="sourcePoint" />
            <mxPoint x="400" y="570" as="targetPoint" />
          </mxGeometry>
        </mxCell>
        <mxCell id="ZzGpuX023HWnLFC4GuzQ-32" value="" style="endArrow=classic;html=1;rounded=0;exitX=0.25;exitY=0;exitDx=0;exitDy=0;entryX=1;entryY=0.75;entryDx=0;entryDy=0;" edge="1" parent="1" source="ZzGpuX023HWnLFC4GuzQ-29" target="ZzGpuX023HWnLFC4GuzQ-24">
          <mxGeometry width="50" height="50" relative="1" as="geometry">
            <mxPoint x="400" y="570" as="sourcePoint" />
            <mxPoint x="450" y="520" as="targetPoint" />
          </mxGeometry>
        </mxCell>
        <mxCell id="ZzGpuX023HWnLFC4GuzQ-35" value="" style="ellipse;shape=doubleEllipse;html=1;dashed=0;whiteSpace=wrap;aspect=fixed;" vertex="1" parent="1">
          <mxGeometry x="114" y="813" width="45" height="45" as="geometry" />
        </mxCell>
        <mxCell id="ZzGpuX023HWnLFC4GuzQ-36" value="" style="shape=ellipse;html=1;dashed=0;whiteSpace=wrap;aspect=fixed;perimeter=ellipsePerimeter;fillColor=#000000;" vertex="1" parent="1">
          <mxGeometry x="118" y="817" width="37" height="37" as="geometry" />
        </mxCell>
        <mxCell id="ZzGpuX023HWnLFC4GuzQ-37" value="" style="ellipse;shape=doubleEllipse;html=1;dashed=0;whiteSpace=wrap;aspect=fixed;" vertex="1" parent="1">
          <mxGeometry x="970" y="627.5" width="45" height="45" as="geometry" />
        </mxCell>
        <mxCell id="ZzGpuX023HWnLFC4GuzQ-38" value="" style="shape=ellipse;html=1;dashed=0;whiteSpace=wrap;aspect=fixed;perimeter=ellipsePerimeter;fillColor=#000000;" vertex="1" parent="1">
          <mxGeometry x="974" y="631.5" width="37" height="37" as="geometry" />
        </mxCell>
        <mxCell id="ZzGpuX023HWnLFC4GuzQ-40" value="" style="endArrow=classic;html=1;rounded=0;exitX=0;exitY=0.75;exitDx=0;exitDy=0;entryX=1;entryY=0.5;entryDx=0;entryDy=0;" edge="1" parent="1" source="ZzGpuX023HWnLFC4GuzQ-21" target="ZzGpuX023HWnLFC4GuzQ-36">
          <mxGeometry width="50" height="50" relative="1" as="geometry">
            <mxPoint x="400" y="570" as="sourcePoint" />
            <mxPoint x="450" y="520" as="targetPoint" />
          </mxGeometry>
        </mxCell>
        <mxCell id="ZzGpuX023HWnLFC4GuzQ-41" value="" style="endArrow=classic;html=1;rounded=0;exitX=1;exitY=0.5;exitDx=0;exitDy=0;entryX=0;entryY=0.5;entryDx=0;entryDy=0;" edge="1" parent="1" source="ZzGpuX023HWnLFC4GuzQ-24" target="ZzGpuX023HWnLFC4GuzQ-38">
          <mxGeometry width="50" height="50" relative="1" as="geometry">
            <mxPoint x="400" y="570" as="sourcePoint" />
            <mxPoint x="450" y="520" as="targetPoint" />
          </mxGeometry>
        </mxCell>
        <mxCell id="ZzGpuX023HWnLFC4GuzQ-45" value="5" style="text;html=1;align=center;verticalAlign=middle;resizable=0;points=[];autosize=1;strokeColor=none;fillColor=none;" vertex="1" parent="1">
          <mxGeometry x="315" y="728" width="30" height="30" as="geometry" />
        </mxCell>
        <mxCell id="ZzGpuX023HWnLFC4GuzQ-46" value="6" style="text;html=1;align=center;verticalAlign=middle;resizable=0;points=[];autosize=1;strokeColor=none;fillColor=none;" vertex="1" parent="1">
          <mxGeometry x="405" y="728" width="30" height="30" as="geometry" />
        </mxCell>
        <mxCell id="ZzGpuX023HWnLFC4GuzQ-47" value="8" style="text;html=1;align=center;verticalAlign=middle;resizable=0;points=[];autosize=1;strokeColor=none;fillColor=none;" vertex="1" parent="1">
          <mxGeometry x="215" y="798" width="30" height="30" as="geometry" />
        </mxCell>
        <mxCell id="ZzGpuX023HWnLFC4GuzQ-48" value="9" style="text;html=1;align=center;verticalAlign=middle;resizable=0;points=[];autosize=1;strokeColor=none;fillColor=none;" vertex="1" parent="1">
          <mxGeometry x="525" y="648" width="30" height="30" as="geometry" />
        </mxCell>
        <mxCell id="ZzGpuX023HWnLFC4GuzQ-49" value="10" style="text;html=1;align=center;verticalAlign=middle;resizable=0;points=[];autosize=1;strokeColor=none;fillColor=none;" vertex="1" parent="1">
          <mxGeometry x="510" y="588" width="40" height="30" as="geometry" />
        </mxCell>
        <mxCell id="ZzGpuX023HWnLFC4GuzQ-50" value="11" style="text;html=1;align=center;verticalAlign=middle;resizable=0;points=[];autosize=1;strokeColor=none;fillColor=none;" vertex="1" parent="1">
          <mxGeometry x="787" y="740" width="40" height="30" as="geometry" />
        </mxCell>
        <mxCell id="ZzGpuX023HWnLFC4GuzQ-51" value="12" style="text;html=1;align=center;verticalAlign=middle;resizable=0;points=[];autosize=1;strokeColor=none;fillColor=none;" vertex="1" parent="1">
          <mxGeometry x="830" y="710" width="40" height="30" as="geometry" />
        </mxCell>
        <mxCell id="ZzGpuX023HWnLFC4GuzQ-52" value="13" style="text;html=1;align=center;verticalAlign=middle;resizable=0;points=[];autosize=1;strokeColor=none;fillColor=none;" vertex="1" parent="1">
          <mxGeometry x="670" y="728" width="40" height="30" as="geometry" />
        </mxCell>
        <mxCell id="ZzGpuX023HWnLFC4GuzQ-53" value="14" style="text;html=1;align=center;verticalAlign=middle;resizable=0;points=[];autosize=1;strokeColor=none;fillColor=none;" vertex="1" parent="1">
          <mxGeometry x="790" y="828" width="40" height="30" as="geometry" />
        </mxCell>
        <mxCell id="ZzGpuX023HWnLFC4GuzQ-54" value="15" style="text;html=1;align=center;verticalAlign=middle;resizable=0;points=[];autosize=1;strokeColor=none;fillColor=none;" vertex="1" parent="1">
          <mxGeometry x="830" y="618" width="40" height="30" as="geometry" />
        </mxCell>
        <mxCell id="ZzGpuX023HWnLFC4GuzQ-66" value="" style="endArrow=classic;html=1;rounded=0;exitX=1;exitY=0.5;exitDx=0;exitDy=0;entryX=0;entryY=1;entryDx=0;entryDy=0;" edge="1" parent="1" source="ZzGpuX023HWnLFC4GuzQ-21" target="ZzGpuX023HWnLFC4GuzQ-24">
          <mxGeometry width="50" height="50" relative="1" as="geometry">
            <mxPoint x="420" y="570" as="sourcePoint" />
            <mxPoint x="470" y="520" as="targetPoint" />
          </mxGeometry>
        </mxCell>
        <mxCell id="ZzGpuX023HWnLFC4GuzQ-67" value="7" style="text;html=1;align=center;verticalAlign=middle;resizable=0;points=[];autosize=1;strokeColor=none;fillColor=none;" vertex="1" parent="1">
          <mxGeometry x="535" y="748" width="30" height="30" as="geometry" />
        </mxCell>
      </root>
    </mxGraphModel>
  </diagram>
</mxfile>
